<?xml version="1.0" encoding="utf-8"?><svg viewBox="0 0 86 46" xmlns="http://www.w3.org/2000/svg" xmlns:xlink="http://www.w3.org/1999/xlink"><style>:root>svg{display:none}:root>svg:target{display:block}</style><svg viewBox="0 0 47 46" id="box" xmlns="http://www.w3.org/2000/svg"><path d="M34.19 8.494l-3.833-2.012C26.992 4.716 25.31 3.833 23.5 3.833c-1.81 0-3.492.883-6.857 2.649l-3.834 2.012c-3.4 1.784-5.398 2.832-6.636 4.235L23.5 21.393l17.327-8.664c-1.238-1.402-3.237-2.451-6.636-4.235zM42.184 15.265l-17.246 8.623v18.095c1.376-.343 2.941-1.165 5.42-2.465l3.833-2.012c4.124-2.164 6.186-3.246 7.33-5.19 1.146-1.945 1.146-4.365 1.146-9.204v-.224c0-3.628 0-5.896-.483-7.623zM22.063 41.983V23.888L4.816 15.265c-.483 1.727-.483 3.995-.483 7.623v.224c0 4.84 0 7.259 1.145 9.203 1.145 1.945 3.207 3.027 7.331 5.191l3.834 2.012c2.478 1.3 4.043 2.122 5.42 2.465z"/></svg><svg viewBox="0 0 86 37" id="favicon" xmlns="http://www.w3.org/2000/svg"><g clip-path="url(#bclip0_26_8)"><path d="M11.334 16.507L8.767 15.28h19.461a1.99 1.99 0 001.831-1.223l1.64-3.886-18.901-.002c-3.18 0-6.056 1.913-7.315 4.868L.323 27.299c-1.118 2.656.808 5.605 3.663 5.605H20.79c.797 0 1.518-.481 1.83-1.223l1.671-3.957H6.605l4.73-11.216zM65.543 10.168c-3.197 0-6.084 1.934-7.332 4.912l-.833 1.99-.595 1.417c-1.115 2.656.813 5.602 3.665 5.602H73.86l-1.534 3.635H54.209a1.99 1.99 0 00-1.829 1.22l-1.683 3.961h20.458c3.19 0 6.072-1.925 7.323-4.893l1.5-3.553c1.121-2.657-.806-5.609-3.662-5.609h-13.4l.985-2.34-2.504-1.23h21.137a1.99 1.99 0 001.833-1.225L86 10.169H65.543zM59.6 4.987a.033.033 0 01-.032-.033l.006-.654c0-.115-.08-.208-.18-.208a.174.174 0 00-.143.08l-.348.513a.036.036 0 01-.03.016H48.9a.073.073 0 01-.072-.072l-.02-.273c0-.046.04-.082.086-.073l.51.049a.09.09 0 00.095-.069l.371-1.524a.072.072 0 00-.045-.084l-.345-.13a.065.065 0 01-.04-.046c-.063-.266-.573-2.04-3.035-2.437-1.198-.193-1.982.324-2.401.737-.186.183-.34.398-.46.631l-.147.328a3.46 3.46 0 00-.07.36l.078 1.514c0 .052.024.1.065.132l.54.236-.299.5a.083.083 0 01-.08.062s-.635.016-.948.03c-.587.023-1.895.748-2.859 2.834-.946 2.047-1.102 2.389-1.102 2.389a.112.112 0 01-.104.061l-.88.003c-.054 0-.111.044-.134.094l-1.368 3.92a.172.172 0 00.026.167l.955.604a.091.091 0 01.03.09l-.498 1.49a.31.31 0 01-.036.096l-.662.59a.166.166 0 00-.055.09l-.91 2.36a.096.096 0 01-.092.07l-.511.003a.25.25 0 00-.247.23l-.305 3.527a2.316 2.316 0 01-.025.186l-.24 1.4a.2.2 0 01-.051.085l-.85.658a7.409 7.409 0 00-1.168 1.544l-2.832 6.048c-.068.129-.123.35-.12.497l.202.363c.003.13-.049.703-.108.818l-.949 1.678a.153.153 0 00-.004.132l.047.11.142.286 2.88.004c.178.017.376-.215.381-.463l.157-1.999-.041-.3 5.49-6.525c.144-.177.339-.488.436-.695l2.617-5.841a.262.262 0 01.153-.136l.165-.054c.1-.033.21 0 .278.081.23.279.768 1.205 1.03 1.59.217.321 1.294 1.898 1.764 2.417.13.143.53.305.709.416a.129.129 0 01.044.172l-1.568 2.788-.693 3.293a1.5 1.5 0 00-.054.235l-.627 2.286c.005.29-.215.44-.232.781l-.229 1.671a.09.09 0 00.089.095l3.874.022h.003c.005 0 .273-.004.431-.01a1.67 1.67 0 00.115-.011c.517-.067.87-.138 1.11-.22a.872.872 0 00.377-.211c.133-.14.285-.311.308-.531l.002-.026v-.015-.036-.006a.363.363 0 00-.03-.136h.002l-.002-.002a.162.162 0 00-.012-.023c-.003-.005-.005-.009-.009-.013a.144.144 0 00-.046-.044.194.194 0 00-.034-.017l-1.8-.549a.563.563 0 01-.287-.206l-.483-.723a.133.133 0 01.027-.15l.94-.94a.313.313 0 00.074-.11l2.899-6.92c.135-.438.09-.933 0-1.455-.068-.386-1.044-2.045-1.3-2.503a1422.87 1422.87 0 00-1.957-3.471.513.513 0 00-.15-.17.675.675 0 01-.123-.112.372.372 0 01-.076-.144l-.11-1.723a.062.062 0 01.054-.078l.504-.042a.141.141 0 00.113-.075l1.746-3.321a.148.148 0 00-.003-.145l-.358-.449a.136.136 0 01-.001-.134l.535-.586a.082.082 0 01.112-.031l1.422.811a.576.576 0 00.283.078c.395-.003 1.045-.239 1.383-.448a.586.586 0 00.211-.228l.698-1.65c.01-.02.04-.018.044.004l.195.918c.013.058.063.09.12.077l2.054-.462a.102.102 0 00.076-.121l-.484-2.072a.108.108 0 01.014-.082l.2-.314a.437.437 0 00.055-.126l.242-1.117a.063.063 0 01.06-.05l5.684.007a.14.14 0 00.141-.143V5.6c0-.018.015-.034.033-.034h2.192c.038 0 .07-.031.07-.071v-.44a.071.071 0 00-.07-.072h-2.192l.002.004z"/></g><defs><clipPath id="bclip0_26_8"><path d="M0 0h86v37H0z"/></clipPath></defs></svg><svg viewBox="0 0 47 46" id="graph" xmlns="http://www.w3.org/2000/svg"><path fill-rule="evenodd" clip-rule="evenodd" d="M4.333 2.396a1.437 1.437 0 100 2.875h3.834v14.854c0 5.873 0 8.81 1.924 10.634 1.925 1.824 5.023 1.824 11.219 1.824h.753v6.779l-3.04 1.519a1.438 1.438 0 001.287 2.571l3.19-1.595 3.19 1.595a1.438 1.438 0 101.286-2.571l-3.038-1.52v-6.778h.753c6.195 0 9.293 0 11.218-1.824 1.924-1.825 1.924-4.761 1.924-10.634V5.271h3.834a1.437 1.437 0 100-2.875H4.333zm25.933 12.88a1.438 1.438 0 010 2.032l-2.524 2.525c-.278.278-.579.579-.867.798-.337.258-.82.535-1.458.535-.64 0-1.122-.277-1.46-.535-.287-.22-.588-.52-.865-.798l-1.17-1.17a31.591 31.591 0 00-.339-.335c-.095.092-.204.201-.338.335l-2.479 2.478a1.437 1.437 0 11-2.032-2.032l2.524-2.525c.278-.278.579-.58.866-.799.338-.257.82-.534 1.46-.534.639 0 1.121.277 1.458.534.288.22.588.52.866.799l1.17 1.17c.134.133.243.242.339.335.095-.093.204-.202.338-.336l2.479-2.478a1.437 1.437 0 012.032 0z"/></svg><svg viewBox="0 0 42 42" id="partners" xmlns="http://www.w3.org/2000/svg"><path d="M3.5 11.375a7.875 7.875 0 0115.75 0v5.25c0 .61 0 .915-.067 1.166a1.969 1.969 0 01-1.392 1.392c-.25.067-.556.067-1.166.067h-5.25A7.875 7.875 0 013.5 11.375zM22.75 25.375c0-.61 0-.915.067-1.166.182-.68.713-1.21 1.392-1.392.25-.067.556-.067 1.166-.067h5.25a7.875 7.875 0 11-7.875 7.875v-5.25zM3.5 30.625a7.875 7.875 0 017.875-7.875H16.1c1.103 0 1.654 0 2.075.215.37.188.672.49.86.86.215.421.215.972.215 2.075v4.725a7.875 7.875 0 01-15.75 0zM22.75 11.375a7.875 7.875 0 117.875 7.875H25c-.261 0-.392 0-.502-.012a1.969 1.969 0 01-1.736-1.736c-.012-.11-.012-.24-.012-.502v-5.625z"/></svg><svg viewBox="0 0 46 46" id="price" xmlns="http://www.w3.org/2000/svg"><path fill-rule="evenodd" clip-rule="evenodd" d="M30.93 9.063l3.506 3.507c5.154 5.154 7.73 7.73 7.73 10.933 0 3.202-2.576 5.779-7.73 10.933s-7.731 7.73-10.933 7.73-5.78-2.576-10.933-7.73l-3.507-3.507c-2.962-2.962-4.443-4.444-4.995-6.365-.55-1.922-.08-3.963.862-8.045l.544-2.354c.792-3.434 1.188-5.151 2.364-6.327 1.176-1.176 2.893-1.572 6.327-2.365l2.354-.543c4.082-.942 6.123-1.413 8.045-.862 1.922.551 3.403 2.033 6.365 4.995zm-9.566 18.4c-1.29-1.29-1.278-3.14-.507-4.608a1.438 1.438 0 011.993-2.003 4.359 4.359 0 012.08-.522 1.437 1.437 0 01-.027 2.875c-.339-.004-.785.149-1.167.53-.742.744-.547 1.486-.339 1.695.209.208.952.404 1.695-.339 1.502-1.503 4.097-2.002 5.76-.339 1.29 1.29 1.278 3.14.507 4.607a1.438 1.438 0 01-1.993 2.003c-.876.466-1.872.64-2.822.445a1.438 1.438 0 01.579-2.816c.34.07.887-.042 1.357-.512.742-.743.547-1.485.339-1.694-.209-.209-.952-.404-1.694.339-1.503 1.503-4.098 2.001-5.76.339zm-2.157-7.735a3.833 3.833 0 10-5.421-5.42 3.833 3.833 0 005.42 5.42z"/></svg><svg viewBox="0 0 47 46" id="speak" xmlns="http://www.w3.org/2000/svg"><path d="M35.684 3.094a1.438 1.438 0 011.972-.493l-.74 1.232.74-1.232.003.001.003.002.007.004.018.012a3.55 3.55 0 01.219.145c.135.094.317.23.53.407.426.355.982.885 1.537 1.606 1.117 1.452 2.215 3.67 2.215 6.722 0 3.053-1.098 5.27-2.215 6.722-.555.72-1.111 1.25-1.537 1.606a7.973 7.973 0 01-.725.537l-.024.015-.018.012-.007.004-.003.002s-.003.001-.742-1.231l.74 1.232a1.438 1.438 0 01-1.488-2.46l.01-.007.078-.052c.075-.053.192-.14.338-.261a7.304 7.304 0 001.099-1.15c.8-1.04 1.618-2.655 1.618-4.97 0-2.313-.819-3.93-1.618-4.968a7.302 7.302 0 00-1.099-1.15 5.15 5.15 0 00-.416-.314l-.01-.006a1.438 1.438 0 01-.485-1.967zM19.667 19.167a7.667 7.667 0 100-15.334 7.667 7.667 0 000 15.334zM4.333 33.542c0 4.763 0 8.625 15.334 8.625C35 42.167 35 38.305 35 33.542c0-4.764-6.865-8.625-15.333-8.625-8.469 0-15.334 3.861-15.334 8.625z"/><path d="M33.823 6.434a1.437 1.437 0 00-1.972.493l.476 1.962.014.01c.023.016.065.047.122.093.113.095.275.248.44.461.32.417.66 1.075.66 2.047 0 .972-.34 1.63-.66 2.046a2.93 2.93 0 01-.44.461 1.843 1.843 0 01-.122.094l-.014.01a1.438 1.438 0 001.496 2.455l-.74-1.233.74 1.233.002-.002.003-.001.006-.004.015-.009.037-.023a4.726 4.726 0 00.418-.31c.245-.206.562-.508.877-.918.638-.83 1.257-2.088 1.257-3.8 0-1.71-.619-2.97-1.257-3.798a5.806 5.806 0 00-.878-.917 4.739 4.739 0 00-.417-.311l-.037-.023-.015-.01-.006-.003-.003-.002s-.002-.001-.742 1.232l.74-1.233z"/></svg><svg viewBox="0 0 42 42" id="user" xmlns="http://www.w3.org/2000/svg"><circle cx="21" cy="10.5" r="7"/><path fill-rule="evenodd" clip-rule="evenodd" d="M28.875 38.5c-2.887 0-4.331 0-5.228-.897-.897-.897-.897-2.34-.897-5.228 0-2.887 0-4.331.897-5.228.897-.897 2.34-.897 5.228-.897 2.887 0 4.331 0 5.228.897.897.897.897 2.34.897 5.228 0 2.887 0 4.331-.897 5.228-.897.897-2.34.897-5.228.897zm3.444-7.445a1.021 1.021 0 00-1.444-1.444l-3.361 3.362-.64-.64a1.021 1.021 0 00-1.443 1.444l1.361 1.361a1.02 1.02 0 001.444 0l4.083-4.083z"/><path d="M26.976 23.638c-1.768-.566-3.806-.888-5.976-.888-6.765 0-12.25 3.134-12.25 7 0 3.746 5.15 6.805 11.624 6.991a8.491 8.491 0 01-.113-.656c-.136-1.01-.136-2.246-.136-3.56v-.3c0-1.314 0-2.55.136-3.56.15-1.125.512-2.357 1.53-3.374 1.017-1.018 2.249-1.38 3.374-1.53a16.863 16.863 0 011.81-.123z"/></svg><svg viewBox="0 0 42 42" id="users" xmlns="http://www.w3.org/2000/svg"><path d="M27.125 13.125a6.125 6.125 0 11-12.25 0 6.125 6.125 0 0112.25 0zM31.5 28.875C31.5 32.258 26.799 35 21 35s-10.5-2.742-10.5-6.125S15.201 22.75 21 22.75s10.5 2.742 10.5 6.125zM12.464 8.75c.31 0 .613.03.906.088a8.71 8.71 0 00-1.12 4.287c0 1.52.387 2.948 1.069 4.194a4.66 4.66 0 01-.855.078c-2.476 0-4.482-1.935-4.482-4.323 0-2.388 2.006-4.324 4.482-4.324zM9.533 33.225c-.994-1.188-1.658-2.646-1.658-4.35 0-1.652.624-3.073 1.568-4.24-3.334.258-5.943 2.08-5.943 4.291 0 2.232 2.655 4.068 6.033 4.3zM29.75 13.125a8.71 8.71 0 01-1.069 4.194c.277.051.563.078.855.078 2.475 0 4.482-1.935 4.482-4.323 0-2.388-2.007-4.324-4.482-4.324-.31 0-.614.03-.906.088a8.71 8.71 0 011.12 4.287zM32.467 33.225c3.378-.23 6.033-2.067 6.033-4.299 0-2.21-2.61-4.033-5.943-4.292.944 1.168 1.568 2.589 1.568 4.241 0 1.704-.664 3.162-1.658 4.35z"/></svg></svg>