<svg width="153" height="23" viewBox="0 0 153 23" fill="none" xmlns="http://www.w3.org/2000/svg">
<mask id="mask0_1_169" style="mask-type:luminance" maskUnits="userSpaceOnUse" x="0" y="0" width="153" height="23">
<path d="M152.881 0.0341797H0.560547V22.7993H152.881V0.0341797Z" fill="white"/>
</mask>
<g mask="url(#mask0_1_169)">
<path d="M103.397 5.4527L103.461 5.45343L103.465 5.45355L103.518 8.42146C103.518 8.7285 103.678 8.98442 103.995 8.98442L113.091 9.03554C113.25 9.03554 113.355 9.13788 113.355 9.29146V12.8734C113.355 13.0236 113.255 13.1248 113.102 13.1291C113.061 13.154 113.009 13.1678 112.951 13.1678H103.872C103.842 13.1678 103.813 13.1701 103.785 13.1746C103.608 13.2612 103.518 13.4624 103.518 13.6922L103.465 17.0693C103.465 17.1212 103.453 17.1683 103.432 17.2058C103.512 17.3943 103.728 17.4886 103.977 17.4886L107.462 17.5393C107.62 17.5393 107.725 17.6408 107.725 17.793V21.3516C107.725 21.5038 107.62 21.6053 107.462 21.6053H95.4264C95.2671 21.6053 95.1621 21.5038 95.1621 21.3516V17.793C95.1621 17.6408 95.2671 17.5393 95.4264 17.5393L98.5408 17.4886C98.8039 17.4886 99.0682 17.3871 99.1213 17.1321V5.23835C99.1213 4.93336 98.857 4.78087 98.5408 4.78087L95.3733 4.73012C95.2152 4.73012 95.109 4.62838 95.109 4.47588V0.91783C95.109 0.765339 95.2152 0.663713 95.3733 0.663713H122.295C122.453 0.663713 122.559 0.81621 122.559 0.91783V7.11899C122.559 7.27148 122.453 7.37323 122.295 7.37323H118.6C118.442 7.37323 118.335 7.27148 118.335 7.11899L118.282 5.33997C118.282 5.03498 118.124 4.83174 117.86 4.78087H103.872C103.555 4.78087 103.397 5.03498 103.397 5.33997V5.4527ZM57.8233 17.3665C57.9295 17.3665 58.0875 17.468 58.1394 17.6215V21.1969C58.1394 21.3504 58.0344 21.4531 57.8763 21.4531H45.8601C45.702 21.4531 45.597 21.3504 45.597 21.1969V17.6215C45.597 17.468 45.702 17.3665 45.8601 17.3665L48.0731 17.3158C48.3905 17.3158 48.4955 17.1115 48.3374 16.8554C47.9681 16.3443 46.8085 14.6598 46.4924 14.3022C46.2293 13.9445 45.86 13.8926 45.5439 13.8926C45.2277 13.8926 40.168 13.8926 40.168 13.8926L36.5842 13.9445C36.4261 13.9445 36.3211 14.046 36.3211 14.1995V16.8554C36.3211 17.1623 36.5841 17.3158 36.9003 17.3158L40.4842 17.3665C40.6423 17.3665 40.7485 17.468 40.7485 17.6215V21.1969C40.7485 21.3504 40.6423 21.4531 40.4842 21.4531H28.4679C28.3098 21.4531 28.2048 21.3504 28.2048 21.1969V17.6215C28.2048 17.468 28.3098 17.3665 28.4679 17.3665L31.4726 17.3158C31.7887 17.3158 32.0518 17.1623 32.0518 16.8554V5.26106C32.0518 4.95463 31.7887 4.80129 31.4726 4.80129L28.416 4.7503C28.2579 4.7503 28.1517 4.64807 28.1517 4.49486V0.76618C28.1517 0.612964 28.2579 0.510864 28.416 0.510864H48.4423C52.2374 0.510864 55.294 3.52445 55.294 7.20201C55.294 9.65372 53.9763 11.7479 51.9732 12.9226C51.394 13.1269 51.3409 13.4845 51.552 13.8418C51.7101 14.098 53.239 16.447 53.5551 16.9581C53.7651 17.2638 53.9232 17.3158 54.2393 17.3158L57.8233 17.3665ZM48.3374 9.70483C49.7601 9.70483 50.9197 8.58108 50.9197 7.20201C50.9197 5.82294 49.7601 4.69918 48.3374 4.69918H47.9681L36.5322 4.7503C36.3742 4.7503 36.268 4.8524 36.268 5.00562V9.39827C36.268 9.55149 36.3742 9.65372 36.5322 9.65372L47.9681 9.70483H48.3374ZM20.2611 21.6053H7.06472C4.15054 21.6053 1.28826 19.1089 0.0694962 16.0518C-0.354055 14.9305 -0.566406 13.7587 -0.566406 12.5867V9.78434C-0.566406 8.61238 -0.354055 7.44041 0.0694962 6.31956C1.28826 3.26236 3.99126 0.765581 7.06472 0.765581L25.0312 0.663713C25.1905 0.663713 25.2955 0.765576 25.2955 0.91843V7.1347C25.2955 7.28756 25.1905 7.38954 25.0312 7.38954H21.1625C21.0033 7.38954 20.8971 7.28756 20.8971 7.1347L20.844 5.4533C20.844 5.14759 20.6847 4.89276 20.3673 4.89276L7.64752 4.94375C6.26947 4.94375 4.83959 6.21758 4.15057 7.8481C3.8851 8.51051 3.77885 9.12193 3.77885 9.78434V12.6377C3.77885 13.2491 3.8851 13.9119 4.15057 14.574C4.7865 16.2041 6.21758 17.5804 7.64752 17.5804L20.2611 17.5296C20.5797 17.5296 20.844 17.2747 20.844 16.969L20.8971 15.1855C20.8971 15.032 21.0033 14.9305 21.1625 14.9305H25.0312C25.1905 14.9305 25.2955 15.032 25.2955 15.1855V21.2996C25.2955 21.4531 25.1905 21.5546 25.0312 21.5546H21.2156L20.2611 21.6053ZM92.8223 17.5393C92.9804 17.5393 93.0854 17.6408 93.0323 17.793V21.3516C93.0323 21.5038 92.9273 21.6053 92.7692 21.6053H80.7348C80.5768 21.6053 80.4718 21.5038 80.4718 21.3516V17.793C80.4718 17.6408 80.5768 17.5393 80.7348 17.5393L83.6912 17.4886C84.0073 17.4886 84.2716 17.3363 84.2716 17.0306V14.3372C84.2716 14.0315 84.1136 13.7778 83.7962 13.7778H69.9156C69.5982 13.7778 69.4401 14.0315 69.4401 14.3372V17.0306C69.4401 17.3363 69.7044 17.4886 70.0205 17.4886L72.977 17.5393C73.135 17.5393 73.24 17.6408 73.24 17.793V21.3516C73.24 21.5038 73.135 21.6053 72.977 21.6053H60.9425C60.7845 21.6053 60.6783 21.5038 60.6783 21.3516V17.793C60.6783 17.6408 60.7845 17.5393 60.9425 17.5393L64.6375 17.4886C64.9536 17.4886 65.2179 17.3363 65.2179 17.0306V9.66048C65.2179 9.66048 65.2179 8.54229 65.4291 7.62734C66.1145 4.22177 69.387 0.663713 72.8708 0.663713H80.8929C84.3247 0.663713 87.5961 4.22177 88.3358 7.62734C88.5469 8.54229 88.547 9.66048 88.547 9.66048V17.0306C88.547 17.3363 88.81 17.4886 89.1274 17.4886L92.8223 17.5393ZM83.6912 9.60973C84.1135 9.60973 84.3247 9.45724 84.3247 8.99977C84.2716 8.59316 84.1655 8.08481 83.7431 7.22073C82.8996 5.4417 81.2634 4.73012 79.9963 4.73012H73.8204C72.5546 4.73012 70.9183 5.4417 70.0736 7.22073C69.6513 8.08481 69.5463 8.64391 69.4932 8.99977C69.4401 9.45724 69.6513 9.60973 70.0736 9.60973H83.6912ZM151.382 0.663713C151.541 0.663713 151.648 0.81621 151.754 0.91783V7.11899C151.754 7.27148 151.648 7.37323 151.488 7.37323H147.779C147.62 7.37323 147.513 7.27148 147.513 7.11899L147.46 5.33997C147.46 5.03498 147.302 4.83174 147.037 4.78087H141.049C140.731 4.78087 140.571 5.03498 140.571 5.33997V17.0306C140.571 17.3363 140.837 17.4886 141.154 17.4886L144.652 17.5393C144.812 17.5393 144.917 17.6408 144.917 17.793V21.3516C144.917 21.5038 144.812 21.6053 144.652 21.6053H132.304C132.146 21.6053 132.04 21.5038 132.04 21.3516V17.793C132.04 17.6408 132.146 17.5393 132.304 17.5393L135.643 17.4886C135.909 17.4886 136.173 17.3871 136.226 17.1321V5.23835C136.226 4.93336 135.962 4.78087 135.643 4.78087H129.656C129.39 4.83174 129.231 5.03498 129.231 5.33997L129.178 7.11899C129.178 7.27148 129.073 7.37323 128.913 7.37323H125.204C125.045 7.37323 124.939 7.27148 124.939 7.11899V0.91783C124.939 0.765339 125.045 0.663713 125.204 0.663713H151.382Z" fill="#808080"/>
<path d="M103.397 5.4527L103.461 5.45343L103.465 5.45355L103.518 8.42146C103.518 8.7285 103.678 8.98442 103.995 8.98442L113.091 9.03554C113.25 9.03554 113.355 9.13788 113.355 9.29146V12.8734C113.355 13.0236 113.255 13.1248 113.102 13.1291C113.061 13.154 113.009 13.1678 112.951 13.1678H103.872C103.842 13.1678 103.813 13.1701 103.785 13.1746C103.608 13.2612 103.518 13.4624 103.518 13.6922L103.465 17.0693C103.465 17.1212 103.453 17.1683 103.432 17.2058C103.512 17.3943 103.728 17.4886 103.977 17.4886L107.462 17.5393C107.62 17.5393 107.725 17.6408 107.725 17.793V21.3516C107.725 21.5038 107.62 21.6053 107.462 21.6053H95.4264C95.2671 21.6053 95.1621 21.5038 95.1621 21.3516V17.793C95.1621 17.6408 95.2671 17.5393 95.4264 17.5393L98.5408 17.4886C98.8039 17.4886 99.0682 17.3871 99.1213 17.1321V5.23835C99.1213 4.93336 98.857 4.78087 98.5408 4.78087L95.3733 4.73012C95.2152 4.73012 95.109 4.62838 95.109 4.47588V0.91783C95.109 0.765339 95.2152 0.663713 95.3733 0.663713H122.295C122.453 0.663713 122.559 0.81621 122.559 0.91783V7.11899C122.559 7.27148 122.453 7.37323 122.295 7.37323H118.6C118.442 7.37323 118.335 7.27148 118.335 7.11899L118.282 5.33997C118.282 5.03498 118.124 4.83174 117.86 4.78087H103.872C103.555 4.78087 103.397 5.03498 103.397 5.33997V5.4527ZM57.8233 17.3665C57.9295 17.3665 58.0875 17.468 58.1394 17.6215V21.1969C58.1394 21.3504 58.0344 21.4531 57.8763 21.4531H45.8601C45.702 21.4531 45.597 21.3504 45.597 21.1969V17.6215C45.597 17.468 45.702 17.3665 45.8601 17.3665L48.0731 17.3158C48.3905 17.3158 48.4955 17.1115 48.3374 16.8554C47.9681 16.3443 46.8085 14.6598 46.4924 14.3022C46.2293 13.9445 45.86 13.8926 45.5439 13.8926C45.2277 13.8926 40.168 13.8926 40.168 13.8926L36.5842 13.9445C36.4261 13.9445 36.3211 14.046 36.3211 14.1995V16.8554C36.3211 17.1623 36.5841 17.3158 36.9003 17.3158L40.4842 17.3665C40.6423 17.3665 40.7485 17.468 40.7485 17.6215V21.1969C40.7485 21.3504 40.6423 21.4531 40.4842 21.4531H28.4679C28.3098 21.4531 28.2048 21.3504 28.2048 21.1969V17.6215C28.2048 17.468 28.3098 17.3665 28.4679 17.3665L31.4726 17.3158C31.7887 17.3158 32.0518 17.1623 32.0518 16.8554V5.26106C32.0518 4.95463 31.7887 4.80129 31.4726 4.80129L28.416 4.7503C28.2579 4.7503 28.1517 4.64807 28.1517 4.49486V0.76618C28.1517 0.612964 28.2579 0.510864 28.416 0.510864H48.4423C52.2374 0.510864 55.294 3.52445 55.294 7.20201C55.294 9.65372 53.9763 11.7479 51.9732 12.9226C51.394 13.1269 51.3409 13.4845 51.552 13.8418C51.7101 14.098 53.239 16.447 53.5551 16.9581C53.7651 17.2638 53.9232 17.3158 54.2393 17.3158L57.8233 17.3665ZM48.3374 9.70483C49.7601 9.70483 50.9197 8.58108 50.9197 7.20201C50.9197 5.82294 49.7601 4.69918 48.3374 4.69918H47.9681L36.5322 4.7503C36.3742 4.7503 36.268 4.8524 36.268 5.00562V9.39827C36.268 9.55149 36.3742 9.65372 36.5322 9.65372L47.9681 9.70483H48.3374ZM20.2611 21.6053H7.06472C4.15054 21.6053 1.28826 19.1089 0.0694962 16.0518C-0.354055 14.9305 -0.566406 13.7587 -0.566406 12.5867V9.78434C-0.566406 8.61238 -0.354055 7.44041 0.0694962 6.31956C1.28826 3.26236 3.99126 0.765581 7.06472 0.765581L25.0312 0.663713C25.1905 0.663713 25.2955 0.765576 25.2955 0.91843V7.1347C25.2955 7.28756 25.1905 7.38954 25.0312 7.38954H21.1625C21.0033 7.38954 20.8971 7.28756 20.8971 7.1347L20.844 5.4533C20.844 5.14759 20.6847 4.89276 20.3673 4.89276L7.64752 4.94375C6.26947 4.94375 4.83959 6.21758 4.15057 7.8481C3.8851 8.51051 3.77885 9.12193 3.77885 9.78434V12.6377C3.77885 13.2491 3.8851 13.9119 4.15057 14.574C4.7865 16.2041 6.21758 17.5804 7.64752 17.5804L20.2611 17.5296C20.5797 17.5296 20.844 17.2747 20.844 16.969L20.8971 15.1855C20.8971 15.032 21.0033 14.9305 21.1625 14.9305H25.0312C25.1905 14.9305 25.2955 15.032 25.2955 15.1855V21.2996C25.2955 21.4531 25.1905 21.5546 25.0312 21.5546H21.2156L20.2611 21.6053ZM92.8223 17.5393C92.9804 17.5393 93.0854 17.6408 93.0323 17.793V21.3516C93.0323 21.5038 92.9273 21.6053 92.7692 21.6053H80.7348C80.5768 21.6053 80.4718 21.5038 80.4718 21.3516V17.793C80.4718 17.6408 80.5768 17.5393 80.7348 17.5393L83.6912 17.4886C84.0073 17.4886 84.2716 17.3363 84.2716 17.0306V14.3372C84.2716 14.0315 84.1136 13.7778 83.7962 13.7778H69.9156C69.5982 13.7778 69.4401 14.0315 69.4401 14.3372V17.0306C69.4401 17.3363 69.7044 17.4886 70.0205 17.4886L72.977 17.5393C73.135 17.5393 73.24 17.6408 73.24 17.793V21.3516C73.24 21.5038 73.135 21.6053 72.977 21.6053H60.9425C60.7845 21.6053 60.6783 21.5038 60.6783 21.3516V17.793C60.6783 17.6408 60.7845 17.5393 60.9425 17.5393L64.6375 17.4886C64.9536 17.4886 65.2179 17.3363 65.2179 17.0306V9.66048C65.2179 9.66048 65.2179 8.54229 65.4291 7.62734C66.1145 4.22177 69.387 0.663713 72.8708 0.663713H80.8929C84.3247 0.663713 87.5961 4.22177 88.3358 7.62734C88.5469 8.54229 88.547 9.66048 88.547 9.66048V17.0306C88.547 17.3363 88.81 17.4886 89.1274 17.4886L92.8223 17.5393ZM83.6912 9.60973C84.1135 9.60973 84.3247 9.45724 84.3247 8.99977C84.2716 8.59316 84.1655 8.08481 83.7431 7.22073C82.8996 5.4417 81.2634 4.73012 79.9963 4.73012H73.8204C72.5546 4.73012 70.9183 5.4417 70.0736 7.22073C69.6513 8.08481 69.5463 8.64391 69.4932 8.99977C69.4401 9.45724 69.6513 9.60973 70.0736 9.60973H83.6912ZM151.382 0.663713C151.541 0.663713 151.648 0.81621 151.754 0.91783V7.11899C151.754 7.27148 151.648 7.37323 151.488 7.37323H147.779C147.62 7.37323 147.513 7.27148 147.513 7.11899L147.46 5.33997C147.46 5.03498 147.302 4.83174 147.037 4.78087H141.049C140.731 4.78087 140.571 5.03498 140.571 5.33997V17.0306C140.571 17.3363 140.837 17.4886 141.154 17.4886L144.652 17.5393C144.812 17.5393 144.917 17.6408 144.917 17.793V21.3516C144.917 21.5038 144.812 21.6053 144.652 21.6053H132.304C132.146 21.6053 132.04 21.5038 132.04 21.3516V17.793C132.04 17.6408 132.146 17.5393 132.304 17.5393L135.643 17.4886C135.909 17.4886 136.173 17.3871 136.226 17.1321V5.23835C136.226 4.93336 135.962 4.78087 135.643 4.78087H129.656C129.39 4.83174 129.231 5.03498 129.231 5.33997L129.178 7.11899C129.178 7.27148 129.073 7.37323 128.913 7.37323H125.204C125.045 7.37323 124.939 7.27148 124.939 7.11899V0.91783C124.939 0.765339 125.045 0.663713 125.204 0.663713H151.382Z" fill="#808080"/>
</g>
</svg>
