<svg width="170" height="39" viewBox="0 0 170 39" fill="none" xmlns="http://www.w3.org/2000/svg">
<mask id="mask0_1_79" style="mask-type:luminance" maskUnits="userSpaceOnUse" x="0" y="0" width="170" height="39">
<path d="M169.937 0.325745H0.581055V38.7652H169.937V0.325745Z" fill="white"/>
</mask>
<g mask="url(#mask0_1_79)">
<path d="M34.5858 12.4272L13.3129 0.599487L10.6546 2.07902V5.03524L7.99499 3.55571L5.33541 5.03524V7.99147L2.67705 6.51194L0.0175171 7.99147V31.6471L2.67705 33.1266L5.33541 31.6471V34.6033L7.99499 36.0828L10.6546 34.6033V37.5595L13.3129 39.039L34.5858 27.2112V24.2549L31.9262 22.7754L34.5858 21.2959V18.3397L31.9262 16.8601L34.5858 15.3806V12.4272ZM5.33541 28.6908L2.67705 30.1703V9.47105L5.33541 10.9505V28.6908ZM13.3129 30.1674V27.2112L23.9487 21.2988L26.6083 22.7783L13.3129 30.1674ZM21.2904 19.8192L13.3129 24.2549V15.3834L21.2904 19.8192ZM23.9487 18.3397L13.3129 12.4272V9.47105L26.6083 16.863L23.9487 18.3397ZM7.99499 6.51194L10.6546 7.99147V10.9478L7.99499 9.46815V6.51194ZM7.99499 12.4272L10.6546 13.9068V25.7346L7.99499 27.2141V12.4272ZM7.99499 30.1674L10.6546 28.6879V31.6441L7.99499 33.1236V30.1674ZM31.9262 25.7317L13.3129 36.0798V33.1236L29.2666 24.2522L31.9262 25.7317ZM31.9262 19.8192L29.2666 21.2988L26.6083 19.8192L29.2666 18.3397L31.9262 19.8192ZM29.2666 15.3834L13.3129 6.51194V3.55571L31.9262 13.9039L29.2666 15.3834Z" fill="#808080"/>
<path d="M45.6306 30.1695H42.5608V9.47321H51.9272C56.2255 9.47321 58.8343 11.9856 58.8343 15.6815C58.8343 19.3776 56.2255 21.8899 51.9272 21.8899H45.6342V30.1695H45.6306ZM55.7645 15.6815C55.7645 13.613 54.5361 11.9856 51.9272 11.9856H45.6342V19.3776H51.9272C54.5361 19.3776 55.7645 17.75 55.7645 15.6815ZM59.9722 18.7857C60.2787 16.3303 62.4267 14.3499 66.7587 14.3499C69.399 14.3499 71.6386 15.03 72.7765 16.8623C73.2664 17.6618 73.5452 18.726 73.5452 19.9665V30.1668H70.596V28.2435C69.6741 29.4269 67.8339 30.6077 65.2226 30.6077C61.9657 30.6077 59.2036 28.9803 59.2036 25.5803C59.2036 22.9199 61.0764 21.0278 65.0681 20.7006L70.596 20.2567V19.9608C70.596 17.8923 69.6741 16.5607 66.7587 16.5607C64.4237 16.5607 63.1651 17.4484 63.0119 18.7771H59.9722V18.7857ZM70.5936 23.5174V22.3337L65.3722 22.7776C63.2219 22.954 62.1491 23.9612 62.1491 25.586C62.1491 27.6572 63.6853 28.3943 65.5267 28.3943C68.2912 28.3969 70.5936 26.6215 70.5936 23.5174ZM82.6292 17.1611C80.4813 17.1611 79.0996 18.3447 79.0996 21.0051V30.1724H76.1504V14.7939H79.0996V16.5693C79.8671 15.2377 81.0931 14.4979 83.3979 14.4979H84.2281V17.1582H82.6292V17.1611ZM85.1174 18.7857C85.4251 16.3303 87.573 14.3499 91.9039 14.3499C94.5453 14.3499 96.785 15.03 97.9217 16.8623C98.4128 17.6618 98.6903 18.726 98.6903 19.9665V30.1668H95.7412V28.2435C94.8205 29.4269 92.979 30.6077 90.3677 30.6077C87.1121 30.6077 84.3487 28.9803 84.3487 25.5803C84.3487 22.9199 86.2227 21.0278 90.2145 20.7006L95.7412 20.2567V19.9608C95.7412 17.8923 94.8205 16.5607 91.9039 16.5607C89.5701 16.5607 88.3115 17.4484 88.1571 18.7771H85.1174V18.7857ZM95.7412 23.5174V22.3337L90.521 22.7776C88.3706 22.954 87.2979 23.9612 87.2979 25.586C87.2979 27.6572 88.834 28.3943 90.6742 28.3943C93.4376 28.3969 95.7412 26.6215 95.7412 23.5174ZM113.182 28.101C112.261 29.5807 110.419 30.6134 107.961 30.6134C103.172 30.6134 100.563 26.9176 100.563 22.4818C100.563 18.046 103.172 14.3499 107.961 14.3499C110.417 14.3499 112.261 15.3856 113.182 16.8623V9.47321H116.127V30.1724H113.179V28.101H113.182ZM108.422 16.7172C105.199 16.7172 103.509 19.2295 103.509 22.4818C103.509 25.7337 105.199 28.2491 108.422 28.2491C111.645 28.2491 113.336 25.5886 113.336 22.4818C113.336 19.3776 111.645 16.7172 108.422 16.7172ZM127.491 27.8052V30.1695H118.034V27.8052H121.289V17.1611H118.034V14.7966H124.235V27.808H127.491V27.8052ZM124.235 12.4294H121.286V9.47321H124.235V12.4294ZM139.893 27.8052C139.279 28.693 137.592 30.0216 134.826 30.0216C130.344 30.0216 127.429 26.4736 127.429 22.1858C127.429 17.8979 130.344 14.3499 134.826 14.3499C137.588 14.3499 139.279 15.6815 139.893 16.5664V14.791H142.842V28.5393C142.842 33.419 139.926 35.9314 135.287 35.9314C131.725 35.9314 129.116 34.1558 128.501 31.4954H131.57C131.848 32.5595 132.983 33.712 135.285 33.712C138.661 33.712 139.891 31.6436 139.891 28.5365V27.8052H139.893ZM135.136 16.7172C132.221 16.7172 130.377 19.2295 130.377 22.1886C130.377 25.1448 132.217 27.6601 135.136 27.6601C138.206 27.6601 140.05 25.1477 140.05 22.1886C140.047 19.2295 138.206 16.7172 135.136 16.7172ZM148.491 16.5693C149.413 14.9418 151.253 14.3528 153.097 14.3528C155.245 14.3528 157.242 15.2405 158.164 17.0131C159.086 15.3856 160.772 14.3528 163.538 14.3528C166.915 14.3528 169.373 16.2762 169.373 20.1173V30.1695H166.425V20.5611C166.425 18.0487 165.35 16.7172 162.924 16.7172C160.926 16.7172 158.932 17.9008 158.932 21.0051V30.1724H155.983V20.564C155.983 18.0516 154.908 16.7201 152.483 16.7201C150.485 16.7201 148.491 17.9036 148.491 21.0078V30.1753H145.543V14.7939H148.491V16.5693Z" fill="#808080"/>
</g>
</svg>
