<svg width="164" height="21" viewBox="0 0 164 21" fill="none" xmlns="http://www.w3.org/2000/svg">
<mask id="mask0_1_85" style="mask-type:luminance" maskUnits="userSpaceOnUse" x="0" y="0" width="164" height="21">
<path d="M163.156 0.52002H0.600342V20.5541H163.156V0.52002Z" fill="white"/>
</mask>
<g mask="url(#mask0_1_85)">
<path d="M15.619 6.00148C15.619 5.3004 15.4766 4.64113 15.1906 4.02355C14.9058 3.40598 14.4775 2.88023 13.9067 2.44632C13.2647 1.96226 12.5431 1.62018 11.7394 1.41984C10.9551 1.2195 10.1526 1.11945 9.33209 1.11945H-0.245483V2.29612H2.26926V17.1175H-0.245483V18.2942C1.21703 18.2442 2.68923 18.2192 4.16864 18.2192C5.63116 18.2192 7.10328 18.2442 8.58269 18.2942V17.1175H6.06795V10.7583H9.33209C10.1526 10.7583 10.9551 10.6666 11.7394 10.4829C12.5431 10.2826 13.2647 9.94052 13.9067 9.45646C14.4594 9.03923 14.8793 8.53016 15.1641 7.92925C15.4669 7.31167 15.619 6.66908 15.619 6.00148ZM11.5259 6.00148C11.5259 6.25184 11.5174 6.51055 11.4993 6.77759C11.4993 7.04463 11.4812 7.30333 11.4462 7.5537C11.4281 7.80407 11.3835 8.03776 11.3123 8.25465C11.258 8.47167 11.1699 8.647 11.0444 8.78052C10.7234 9.16441 10.3131 9.41478 9.81355 9.53162C9.31397 9.64835 8.80595 9.70683 8.28948 9.70683H5.93523V2.29612H8.28948C8.80595 2.29612 9.31397 2.35448 9.81355 2.47133C10.3131 2.58818 10.7234 2.83021 11.0444 3.19742C11.1699 3.33094 11.258 3.50615 11.3123 3.72316C11.3835 3.94018 11.4281 4.18221 11.4462 4.44925C11.4812 4.69962 11.4993 4.95832 11.4993 5.22536C11.5174 5.4924 11.5259 5.75111 11.5259 6.00148Z" fill="#808080"/>
<path d="M35.6731 9.80388C35.6731 8.60219 35.4945 7.44219 35.1373 6.32388C34.7994 5.18889 34.2021 4.17908 33.3454 3.29446C32.5429 2.45999 31.598 1.84241 30.5096 1.44185C29.4393 1.04116 28.3159 0.840942 27.1393 0.840942C25.9616 0.840942 24.8297 1.04116 23.7412 1.44185C22.6709 1.84241 21.7345 2.45999 20.932 3.29446C20.0765 4.17908 19.4696 5.18889 19.1136 6.32388C18.7745 7.44219 18.6044 8.60219 18.6044 9.80388C18.6044 10.9722 18.7829 12.1155 19.1401 13.2339C19.4961 14.3355 20.0946 15.3202 20.932 16.1881C21.7345 16.9894 22.6709 17.5901 23.7412 17.9907C24.8297 18.3746 25.9616 18.5666 27.1393 18.5666C28.3159 18.5666 29.4393 18.3746 30.5096 17.9907C31.598 17.5901 32.5429 16.9894 33.3454 16.1881C34.184 15.3202 34.7813 14.3355 35.1373 13.2339C35.4945 12.1155 35.6731 10.9722 35.6731 9.80388ZM31.58 9.35329C31.58 10.3881 31.5353 11.4146 31.446 12.4327C31.3567 13.4509 31.0623 14.4189 30.5627 15.3368C30.2067 15.9711 29.7337 16.497 29.1449 16.9142C28.5572 17.3148 27.8875 17.5151 27.1393 17.5151C26.39 17.5151 25.7214 17.3148 25.1326 16.9142C24.5437 16.497 24.0707 15.9711 23.7147 15.3368C23.2151 14.4189 22.9207 13.4509 22.8314 12.4327C22.7421 11.4146 22.6974 10.3881 22.6974 9.35329C22.6974 8.40185 22.7421 7.45886 22.8314 6.52422C22.9207 5.58945 23.2151 4.69649 23.7147 3.84522C24.0707 3.26111 24.5437 2.78539 25.1326 2.41818C25.7383 2.03429 26.4081 1.84241 27.1393 1.84241C27.8706 1.84241 28.5294 2.03429 29.1183 2.41818C29.7252 2.78539 30.2067 3.26111 30.5627 3.84522C31.0623 4.69649 31.3567 5.58945 31.446 6.52422C31.5353 7.45886 31.58 8.40185 31.58 9.35329Z" fill="#808080"/>
<path d="M52.0708 11.4344H50.8135C50.7242 12.2022 50.5902 12.9698 50.4116 13.7376C50.2511 14.4887 49.9121 15.1564 49.3956 15.7405C49.0034 16.1746 48.5388 16.5166 48.0043 16.767C47.4866 17.0007 46.9255 17.1175 46.3186 17.1175H44.3927V2.29612H47.5494V1.11945C45.8552 1.16947 44.1694 1.19448 42.4933 1.19448C41.0127 1.19448 39.5417 1.16947 38.0792 1.11945V2.29612H40.594V17.1175H38.0792V18.2942H51.2684L52.0708 11.4344Z" fill="#808080"/>
<path d="M70.7627 2.29612V1.11945C69.8709 1.16947 68.9876 1.19448 68.1139 1.19448H68.0874C67.017 1.19448 65.9467 1.16947 64.8763 1.11945V2.29612C65.0911 2.29612 65.3047 2.30446 65.5195 2.32113C65.7512 2.33781 65.9829 2.36282 66.2146 2.39629C66.3388 2.42964 66.4559 2.46299 66.5621 2.49634C66.6695 2.51314 66.7045 2.55483 66.6695 2.62153L62.3893 9.63167L57.8944 2.29612H59.9011V1.11945C58.4024 1.16947 56.8964 1.19448 55.3796 1.19448H55.3531C54.0511 1.19448 52.749 1.16947 51.447 1.11945V2.29612H53.6951L59.2857 11.4344V17.1175H56.771V18.2942C58.2154 18.2442 59.6598 18.2192 61.1054 18.2192C62.5498 18.2192 63.9942 18.2442 65.4386 18.2942V17.1175H62.9239V11.4344L68.3009 2.62153C68.3552 2.53815 68.453 2.488 68.5954 2.47133C68.7378 2.43798 68.8814 2.40463 69.0238 2.37116C69.3085 2.33781 69.5946 2.32113 69.8794 2.32113C70.1653 2.30446 70.4598 2.29612 70.7627 2.29612Z" fill="#808080"/>
<path d="M89.0031 12.4327C89.0031 12.2157 88.8788 12.1072 88.629 12.1072H88.0945C87.8628 12.1072 87.7457 12.2157 87.7457 12.4327C87.7457 13.117 87.613 13.7596 87.3452 14.3605C87.0773 14.9614 86.7116 15.4872 86.2482 15.9377C85.8017 16.3884 85.2672 16.7473 84.6433 17.0144C84.0364 17.2647 83.3859 17.3899 82.6897 17.3899C81.781 17.3899 80.9158 17.2229 80.0953 16.8892C79.2928 16.5553 78.6327 16.0546 78.1151 15.387C77.8122 15.0031 77.5709 14.5859 77.3935 14.1351C77.2149 13.6846 77.081 13.2172 76.9917 12.7331C76.9024 12.2491 76.8396 11.7567 76.8046 11.2561C76.7865 10.7386 76.7781 10.2211 76.7781 9.70371C76.7781 8.65221 76.8396 7.64241 76.9651 6.67441C77.1075 5.68962 77.4828 4.805 78.0886 4.02055C78.6062 3.35295 79.2663 2.85221 80.0687 2.51835C80.8893 2.18449 81.7545 2.01762 82.6632 2.01762C83.3413 2.01762 83.9652 2.15947 84.536 2.44319C85.1067 2.72703 85.6062 3.11092 86.0346 3.59485C86.4618 4.07891 86.8093 4.64647 87.0772 5.2974C87.3451 5.93165 87.514 6.59926 87.5864 7.30033C87.6214 7.51723 87.7457 7.62573 87.9605 7.62573H88.629C88.7364 7.62573 88.8257 7.59238 88.8969 7.52556C88.9681 7.44219 89.0031 7.35869 89.0031 7.2752V1.19148C89.0031 0.957788 88.8788 0.840942 88.629 0.840942H88.4155C88.3262 0.840942 88.2453 0.865954 88.1741 0.915979L86.4353 2.39317C85.8645 1.90911 85.2225 1.53356 84.5094 1.26652C83.7962 0.9828 83.0203 0.840942 82.1816 0.840942C80.9158 0.840942 79.6753 1.03283 78.4638 1.41671C77.268 1.8006 76.2157 2.41818 75.3059 3.26945C74.3791 4.12072 73.7106 5.11373 73.3004 6.24872C72.8901 7.36703 72.6849 8.51869 72.6849 9.70371C72.6849 10.8888 72.8901 12.0488 73.3004 13.1838C73.7106 14.302 74.3791 15.2868 75.3059 16.1381C76.2157 16.9894 77.268 17.6068 78.4638 17.9907C79.6753 18.3746 80.9158 18.5666 82.1816 18.5666C83.1096 18.5666 83.9833 18.4081 84.8038 18.0909C85.6413 17.7738 86.364 17.3398 86.971 16.789C87.5949 16.2383 88.0849 15.5957 88.442 14.8612C88.8161 14.1101 89.0031 13.3007 89.0031 12.4327Z" fill="#808080"/>
<path d="M110.531 18.2942V17.1175H108.016V2.29612H110.531V1.11945C109.05 1.16947 107.579 1.19448 106.116 1.19448C104.636 1.19448 103.165 1.16947 101.702 1.11945V2.29612H104.217V8.78052H97.7166V2.29612H100.231V1.11945C98.7508 1.16947 97.2798 1.19448 95.8173 1.19448C94.3367 1.19448 92.8657 1.16947 91.4032 1.11945V2.29612H93.9179V17.1175H91.4032V18.2942C92.8657 18.2442 94.3367 18.2192 95.8173 18.2192C97.2798 18.2192 98.7508 18.2442 100.231 18.2942V17.1175H97.7166V9.9572H104.217V17.1175H101.702V18.2942C103.165 18.2442 104.636 18.2192 106.116 18.2192C107.579 18.2192 109.05 18.2442 110.531 18.2942Z" fill="#808080"/>
<path d="M130.679 18.2941V17.1173H128.432L122.466 1.24441C122.412 1.11089 122.324 1.00238 122.198 0.918885C122.074 0.83551 121.94 0.793701 121.797 0.793701H121.315C121.154 0.793701 121.012 0.83551 120.888 0.918885C120.762 1.00238 120.673 1.11089 120.62 1.24441L114.788 16.7919C114.752 16.8753 114.663 16.9338 114.52 16.9671C114.396 17.0005 114.27 17.0256 114.146 17.0423C113.843 17.0923 113.548 17.1173 113.263 17.1173C112.996 17.1173 112.71 17.1173 112.407 17.1173V18.2941C113.317 18.244 114.227 18.219 115.135 18.219H115.163H115.537C116.482 18.219 117.428 18.244 118.373 18.2941V17.1173C118.123 17.1173 117.873 17.109 117.624 17.0923C117.374 17.0756 117.124 17.0506 116.874 17.0173C116.732 16.9838 116.589 16.9588 116.447 16.9421C116.303 16.9088 116.25 16.8586 116.285 16.7919L117.436 13.7375H123.295L124.579 17.1173H122.359V18.2941C123.821 18.244 125.284 18.219 126.746 18.219H126.773C128.093 18.219 129.395 18.244 130.679 18.2941ZM122.867 12.5607H117.891L120.378 5.92622L122.867 12.5607Z" fill="#808080"/>
<path d="M141.487 18.2942V17.1175H138.84V2.29612H141.487V1.11945C139.99 1.16947 138.482 1.19448 136.967 1.19448C135.45 1.19448 133.934 1.16947 132.419 1.11945V2.29612H135.068V17.1175H132.419V18.2942C133.934 18.2442 135.45 18.2192 136.967 18.2192C138.482 18.2192 139.99 18.2442 141.487 18.2942Z" fill="#808080"/>
<path d="M162.312 2.29612V1.11945C161.242 1.16947 160.163 1.19448 159.075 1.19448C158.006 1.19448 156.935 1.16947 155.865 1.11945V2.29612C156.168 2.29612 156.48 2.29612 156.801 2.29612C157.122 2.29612 157.443 2.32113 157.764 2.37116C157.907 2.38795 158.041 2.41297 158.166 2.44632C158.308 2.47967 158.38 2.53815 158.38 2.62153V12.6861L149.525 1.29465C149.454 1.17781 149.328 1.11945 149.15 1.11945H143.185V2.29612H145.7V16.7921C145.7 16.8755 145.629 16.934 145.485 16.9673C145.361 16.984 145.227 17.009 145.084 17.0424C144.78 17.0759 144.469 17.1009 144.148 17.1175C143.827 17.1175 143.506 17.1175 143.185 17.1175V18.2942C144.254 18.2442 145.334 18.2192 146.421 18.2192C147.492 18.2192 148.562 18.2442 149.632 18.2942V17.1175C149.328 17.1175 149.017 17.1175 148.696 17.1175C148.374 17.1009 148.062 17.0759 147.76 17.0424C147.616 17.009 147.474 16.984 147.331 16.9673C147.189 16.934 147.118 16.8755 147.118 16.7921V3.52282L158.487 18.119C158.576 18.2359 158.701 18.2942 158.861 18.2942H159.316C159.458 18.2942 159.574 18.2525 159.664 18.169C159.753 18.0857 159.798 17.9771 159.798 17.8436V2.62153C159.798 2.53815 159.86 2.47967 159.985 2.44632C160.128 2.41297 160.271 2.38795 160.413 2.37116C160.734 2.32113 161.046 2.29612 161.349 2.29612C161.67 2.29612 161.991 2.29612 162.312 2.29612Z" fill="#808080"/>
</g>
</svg>
