<svg width="149" height="54" viewBox="0 0 149 54" fill="none" xmlns="http://www.w3.org/2000/svg">
<path d="M16.5722 1.11515C16.6425 1.36709 16.7599 1.8961 16.8304 2.32445C16.9243 2.72743 17.159 3.43286 17.3703 3.88634C17.7693 4.69242 17.7693 4.69242 16.3139 7.94223C15.5158 9.70568 14.8585 11.3432 14.8585 11.5446C14.8585 11.847 14.8116 11.847 14.6474 11.5446C14.483 11.2676 14.3656 11.4691 14.1309 12.2501C13.8493 13.2577 13.8727 13.3333 14.5066 14.0388C15.4454 15.0968 16.5722 15.0968 16.9712 14.0639C17.3468 13.0563 17.7928 12.6783 19.3185 12.1242C21.0086 11.4942 22.3701 10.1088 22.3701 9.0255C22.3701 8.57202 22.2527 7.99262 22.1118 7.69029C21.9006 7.26206 21.9241 7.21168 22.2761 7.2872C22.7925 7.38797 23.708 9.0255 23.9194 10.1843C24.1541 11.5699 23.0273 13.8372 21.4546 15.0715C19.3185 16.7846 18.8491 17.3388 17.8866 19.3795C17.2529 20.7398 16.9477 21.7726 16.8304 22.9567C16.7365 23.8636 16.6191 24.6193 16.5722 24.6193C16.5252 24.6193 15.5628 23.8383 14.4361 22.856C13.0042 21.6215 12.0183 20.513 11.1029 19.1023L9.81185 17.0869H7.69924L0 25.6522L0.657252 28.0454C1.38493 30.6658 1.24408 30.5643 3.05152 29.7333C3.94351 29.3556 3.94351 29.3051 3.09847 27.1889C2.84026 26.5339 2.51164 26.1308 2.27692 26.1308C1.69008 26.1308 2.08912 25.8035 3.02805 25.5011C3.49752 25.3498 4.74161 24.3422 6.05611 23.007C7.30019 21.7978 8.35649 20.8153 8.37996 20.8657C8.49735 20.9917 11.5723 27.2142 11.5723 27.315C11.5723 27.3652 11.3611 27.3905 11.1029 27.3905C10.8447 27.3905 10.1639 27.6423 9.57711 27.9446C8.73207 28.3981 8.49735 28.6499 8.37996 29.3303C8.19218 30.464 8.54429 31.4464 10.0231 33.8147C11.0794 35.4774 11.3846 36.2072 11.7132 37.8952L12.1122 39.9615L13.4267 40.2636C14.1544 40.4146 15.868 41.171 17.2763 41.9009C19.7411 43.2361 19.8114 43.2615 20.8443 42.9847C22.018 42.6573 21.9945 42.7576 21.6422 40.5657L21.3841 38.9791L19.7176 38.4245C18.3562 37.9967 17.9336 37.946 17.3703 38.1732C16.6895 38.4499 16.5722 38.3737 15.0934 37.1147C13.5441 35.7541 13.2155 35.1753 11.8775 31.4717C11.6428 30.8422 12.9807 31.1938 17.3233 32.9326C19.7411 33.915 21.7597 34.6714 21.7832 34.646C21.7832 34.5953 21.9475 33.7132 22.0885 32.6813C22.2527 31.572 22.6752 30.1365 23.1213 29.2043C23.9896 27.34 25.938 25.1232 27.3698 24.3927C30.304 22.881 35.6326 23.0575 39.3412 24.8208L40.3505 25.2996L41.6651 24.0904L40.5853 23.0825L39.5056 22.0499L40.0219 21.294C40.4915 20.5634 40.4915 20.4375 40.2098 18.9007C40.0456 18.019 39.9751 17.2129 40.0689 17.1373C40.1393 17.0618 40.5853 17.2885 41.0784 17.6412C41.9703 18.3213 42.5805 18.3213 42.0172 17.616C41.8529 17.3641 40.28 15.3991 38.5432 13.2073C36.8061 11.0409 35.304 8.92473 35.163 8.54688C35.0456 8.16891 34.7405 7.58952 34.5292 7.26206C33.9894 6.45586 34.1302 6.35509 35.0926 6.85896C36.2194 7.48875 35.6559 6.98499 33.5199 5.47337C32.4871 4.74281 31.3368 3.83596 30.9378 3.45811C30.4684 2.97937 29.7876 2.65191 28.8252 2.45036C26.6657 1.99687 26.478 1.92135 26.8534 1.66941C27.0412 1.54351 27.5577 1.44273 28.0036 1.41747C28.661 1.41747 28.5436 1.34195 27.3698 1.06476C26.3605 0.838075 25.6563 0.787692 25.1399 0.963987C23.755 1.36709 19.9758 1.99687 19.4593 1.87097C19.2012 1.82058 18.4031 1.51825 17.7223 1.21593C16.5722 0.737309 16.4783 0.71217 16.5722 1.11515Z" fill="#808080"/>
<path d="M9.22661 2.32969L8.4469 2.59032L10.3405 3.50273C11.3875 3.99815 12.8579 4.67591 13.6375 5.01484L15.041 5.6665L15.3752 4.75409C15.5534 4.25879 15.6871 3.73739 15.6871 3.60702C15.6871 3.37248 11.0979 1.99075 10.385 2.04295C10.1845 2.04295 9.64988 2.17333 9.22661 2.32969Z" fill="#808080"/>
<path d="M39.821 2.05192C39.821 2.09373 40.064 2.19113 40.361 2.27462C40.6579 2.35812 43.4411 3.27705 43.4411 3.24926C43.4411 3.20745 40.6579 2.21891 40.361 2.13542C40.064 2.05192 39.821 2.02413 39.821 2.05192Z" fill="#808080"/>
<path d="M41.4812 2.40486C44.3762 4.69827 45.2993 5.5249 46.7968 7.12485C49.2925 9.76482 51.2888 12.7782 53.0107 16.4581C54.558 19.7916 54.7826 19.7916 53.3103 16.4581C50.8147 10.8315 46.0731 5.09824 41.6059 2.37828C40.8572 1.92491 40.8572 1.92491 41.4812 2.40486Z" fill="#808080"/>
<path d="M65.0636 7.1133C64.2091 7.32173 63.955 7.50407 63.955 7.86886C63.955 8.28562 64.1397 8.3638 64.9943 8.3638H66.0334V13.9388C66.0334 19.4356 66.0334 19.5398 65.5252 19.9306C65.2482 20.165 64.7633 20.3474 64.4861 20.3474C64.0936 20.3474 63.955 20.5037 63.955 20.8945C63.955 21.4155 64.0243 21.4155 69.1048 21.3373L74.2777 21.2592L75.386 20.4777C76.9333 19.4095 77.9495 17.8464 78.2727 15.9968C78.9192 12.5319 77.6031 9.19743 74.9472 7.63433C73.8157 6.95706 73.6079 6.93096 69.9592 6.87888C67.8578 6.85278 65.6639 6.95706 65.0636 7.1133ZM72.4302 8.12938C73.3077 8.49405 74.2776 9.5882 74.878 10.8387C75.6401 12.4278 75.5938 16.101 74.8086 17.8725C73.885 19.9567 71.899 20.8424 70.0747 19.9567C69.5896 19.7482 69.1739 19.3054 69.0355 18.9146C68.7814 18.159 68.7122 8.28561 68.9661 8.0251C69.1971 7.7386 71.7141 7.81678 72.4302 8.12938Z" fill="#808080"/>
<path d="M90.5476 7.24076C90.5927 7.4237 90.9774 7.73715 91.4072 7.89387L92.1992 8.18133V20.1732L91.362 20.4083C90.8642 20.539 90.5023 20.8002 90.5023 21.0092C90.5023 21.2966 91.1357 21.375 93.9188 21.375C96.4302 21.375 97.3127 21.2966 97.2447 21.0614C97.1316 20.7219 96.7921 20.4868 95.8193 20.1471L95.1405 19.938L95.0049 14.321H96.4755C98.3761 14.321 98.9871 14.6083 99.3037 15.6273C99.7564 17.1948 100.118 16.411 100.186 13.7201C100.254 11.3165 100.231 11.1858 99.7788 11.1858C99.4394 11.1858 99.3263 11.3687 99.3263 11.8129C99.3263 12.8578 98.5345 13.2759 96.6565 13.2759H95.0049L95.1405 8.18133H99.6657L100.118 9.148C100.367 9.7228 100.752 10.1408 100.978 10.1408C101.295 10.1408 101.363 9.87952 101.363 8.49477V6.875H95.9325C91.4525 6.875 90.5023 6.9272 90.5476 7.24076Z" fill="#808080"/>
<path d="M103.911 7.44618C103.419 8.28102 104.337 9.26968 105.583 9.29167C106.959 9.29167 107.975 7.88565 107.025 7.22651C106.73 7.02882 105.976 6.875 105.353 6.875C104.435 6.875 104.173 6.98484 103.911 7.44618Z" fill="#808080"/>
<path d="M105.266 12.1944C104.922 12.4748 104.235 12.7554 103.733 12.8574C102.622 13.0614 102.569 13.5969 103.627 13.801L104.42 13.954V17.1417C104.42 20.4823 104.367 20.6099 103.072 20.6099C102.807 20.6099 102.569 20.7884 102.569 20.9924C102.569 21.2985 103.098 21.3749 105.636 21.3749C107.962 21.3749 108.676 21.2985 108.597 21.0434C108.518 20.8904 108.121 20.6864 107.698 20.6099L106.931 20.4823L107.011 16.7081C107.063 14.617 107.037 12.6533 106.958 12.2964C106.746 11.5568 106.112 11.5058 105.266 12.1944Z" fill="#808080"/>
<path d="M84.1509 11.8713C82.117 12.4636 80.8488 14.2923 80.8488 16.636C80.8488 19.4433 82.5716 21.3749 85.0841 21.3749C86.52 21.3749 87.3573 21.0917 88.4581 20.1644C89.0804 19.675 89.1759 19.4433 88.9844 19.1858C88.7692 18.9024 88.5539 18.9282 87.7163 19.3403C86.4481 19.9327 85.9455 19.9584 84.9407 19.3661C83.9596 18.7994 83.2416 17.4859 83.2416 16.2754V15.3997L86.2807 15.6057L89.2956 15.786L89.1281 14.9103C88.7214 12.6696 86.3285 11.2016 84.1509 11.8713ZM86.4241 13.1848C86.9268 13.8286 86.9505 14.5755 86.4481 14.7815C86.2328 14.8589 85.419 14.9361 84.6295 14.9361H83.1938L83.3373 14.215C83.4331 13.8286 83.7681 13.2621 84.1271 12.9272C84.8447 12.2318 85.7542 12.3349 86.4241 13.1848Z" fill="#808080"/>
<path d="M111.95 12.2677C110.753 12.9641 109.809 14.1962 109.809 15.0802C109.809 15.8301 109.925 15.8569 111.052 15.3213C111.628 15.0266 111.927 14.7052 112.019 14.1695C112.249 13.0713 112.779 12.5088 113.63 12.5088C114.321 12.5088 114.413 12.616 114.643 13.6069C115.08 15.5087 115.149 15.4284 112.042 17.0623C110.845 17.7051 110.385 18.107 110.109 18.7766C109.809 19.5534 109.786 19.7676 110.063 20.4373C110.362 21.1604 110.5 21.2141 111.904 21.2945C113.17 21.348 113.515 21.2676 114.206 20.732L115.034 20.0891L115.518 20.7052C116.185 21.6159 117.497 21.589 118.003 20.6783C118.211 20.3034 118.303 19.8213 118.234 19.5802C118.095 19.1516 118.05 19.1516 117.658 19.5802C117.451 19.8213 117.175 19.9283 117.106 19.8213C117.014 19.7409 116.945 18.3748 116.945 16.7945C116.945 13.5266 116.715 12.4553 115.886 11.9998C114.942 11.5177 113.032 11.6516 111.95 12.2677ZM114.804 18.0533C114.666 19.473 114.113 20.2766 113.239 20.2766C112.733 20.2766 112.548 20.1158 112.433 19.6069C112.364 19.2319 112.341 18.7498 112.41 18.5355C112.618 17.973 114.436 16.4998 114.689 16.6873C114.827 16.7945 114.873 17.3837 114.804 18.0533Z" fill="#808080"/>
<path d="M121.635 12.1877C121.355 12.4684 120.731 12.8257 120.28 12.9788C119.335 13.3361 119.205 13.7189 119.915 14.1017C120.538 14.4335 120.753 15.5819 120.689 18.1339C120.624 20.1244 120.603 20.2265 120.044 20.5583C118.969 21.1452 119.399 21.3749 121.592 21.3749C123.785 21.3749 124.257 21.1197 123.204 20.5583C122.645 20.2775 122.645 20.252 122.71 17.3172L122.774 14.3569L123.785 13.7699C124.601 13.2851 124.881 13.234 125.247 13.4637C125.935 13.8975 126.107 14.7652 126.107 17.7V20.3796L125.462 20.6348C124.279 21.1452 124.795 21.3749 126.966 21.3749C128.687 21.3749 129.117 21.2983 129.117 21.0176C129.117 20.8135 128.902 20.6093 128.644 20.5583C128.171 20.4817 128.149 20.3796 128.041 17.0365C127.978 15.148 127.848 13.4382 127.763 13.2595C127.095 12.0601 124.601 11.8559 123.355 12.9278L122.667 13.4892V12.596C122.667 11.5497 122.387 11.4476 121.635 12.1877Z" fill="#808080"/>
<path d="M143.284 11.8143C141.273 12.4345 140.134 13.9849 139.989 16.3104C139.819 19.3078 141.54 21.3491 144.231 21.3749C145.685 21.3749 146.533 21.0907 147.648 20.1604C148.254 19.6696 148.376 19.437 148.181 19.1785C147.963 18.8943 147.72 18.9202 146.8 19.3594C145.442 20.0054 144.375 19.8246 143.527 18.8426C142.679 17.8866 142.364 17.1632 142.364 16.2071V15.3803L148.424 15.7419V15.1218C148.424 14.2691 147.503 12.848 146.605 12.3053C145.733 11.7885 144.182 11.556 143.284 11.8143ZM145.394 12.9771C146.073 13.7007 146.194 14.5275 145.612 14.76C145.006 15.0185 142.655 14.9409 142.486 14.6567C142.291 14.3208 142.994 12.9254 143.503 12.6154C144.206 12.1761 144.764 12.2794 145.394 12.9771Z" fill="#808080"/>
<path d="M134.227 11.8229C132.505 12.3135 131.326 13.3721 130.689 14.9989C129.369 18.4588 131.775 21.6865 135.454 21.3508C136.799 21.2217 137.624 20.7052 138.449 19.5175C138.803 19.0011 138.85 18.7429 138.662 18.5363C138.449 18.3039 138.19 18.4072 137.671 18.8978C136.255 20.2146 134.817 20.1372 133.661 18.6912C131.727 16.2898 132.907 12.3392 135.454 12.5974C135.618 12.5974 136.02 13.088 136.35 13.6819C136.893 14.5857 137.058 14.7148 137.718 14.6373C138.213 14.5857 138.496 14.405 138.543 14.095C138.685 13.243 138.378 12.4684 137.789 12.1586C136.963 11.7712 135.077 11.5647 134.227 11.8229Z" fill="#808080"/>
<path d="M53.7873 16.6113C53.7873 16.762 54.9989 20.4746 55.1412 20.8765C55.6878 22.3584 56.3053 26.5782 56.3053 28.7633C56.3053 32.4806 55.3075 36.4995 53.6685 39.4636C53.2169 40.2671 51.8865 41.9503 50.7227 43.2058C48.9646 45.0642 48.1805 45.6925 46.5651 46.5468C43.5718 48.1032 41.6951 48.6058 38.2978 48.7569C33.2378 49.0082 28.724 47.8277 24.4 45.1645L22.9272 44.2607L23.6161 45.0388C24.5665 46.0949 27.2984 48.079 29.2227 49.0831C37.7989 53.6542 47.0877 51.8466 52.3856 44.5627C56.5429 38.8352 57.8259 30.1945 55.7114 22.0822C55.1888 20.0477 53.7873 15.9584 53.7873 16.6113Z" fill="#808080"/>
<path d="M70.9659 33.7398C65.3119 35.7964 64.7168 44.7332 70.0504 47.3746C71.0804 47.8821 71.6299 47.9583 73.7817 47.9583C77.0094 47.9583 77.8793 47.603 78.1081 46.1808C78.1998 45.6225 78.337 44.9374 78.4057 44.6063C78.6116 43.6167 77.7189 43.9466 76.5057 45.2927C75.1781 46.7644 73.9192 47.2731 72.5455 46.8405C71.2866 46.4599 70.5998 45.7748 70.0046 44.2765C69.5697 43.16 69.5238 42.6005 69.5925 40.5198C69.6843 37.6246 70.3021 35.8979 71.5841 35.0605C73.0721 34.0962 75.4297 34.7306 76.7117 36.432C77.3298 37.2186 78.2455 37.4723 78.2455 36.8126C78.2455 36.6096 78.1081 35.8979 77.9708 35.2635C77.6044 33.7918 77.284 33.6383 74.2395 33.486C72.637 33.4099 71.6527 33.486 70.9659 33.7398Z" fill="#808080"/>
<path d="M111.48 33.799C110.55 34.7149 111.126 37.0833 112.256 37.0833C112.721 37.0833 113.43 35.8834 113.43 35.0617C113.43 33.7362 112.278 32.9773 111.48 33.799Z" fill="#808080"/>
<path d="M142.481 33.677C142.26 33.8304 141.663 34.112 141.176 34.2654C140.136 34.6231 139.915 35.0327 140.667 35.2635C141.155 35.3916 141.221 35.5704 141.354 37.3624C141.42 38.462 141.486 40.8944 141.486 42.8398C141.486 46.4732 141.354 47.0629 140.513 47.2417C140.269 47.2671 140.048 47.4725 139.982 47.626C139.915 47.8809 140.491 47.9583 142.348 47.9583C144.339 47.9583 144.804 47.8809 144.804 47.5994C144.804 47.3698 144.538 47.1898 144.206 47.139L143.587 47.0629L143.476 40.3059C143.41 36.1335 143.277 33.5223 143.145 33.4716C143.035 33.4208 142.725 33.5223 142.481 33.677Z" fill="#808080"/>
<path d="M120.596 38.0705C120.157 38.613 119.434 39.2305 119.02 39.4286C118.065 39.8975 117.987 40.5391 118.891 40.5391H119.537V43.6977C119.537 46.6835 119.563 46.9058 120.131 47.4C120.958 48.1407 122.816 48.1407 123.772 47.4242C124.341 47.0049 124.392 46.8321 124.161 46.5602C123.953 46.3137 123.772 46.2642 123.566 46.4623C123.178 46.8321 122.197 46.7584 122.016 46.3137C121.939 46.0914 121.862 44.709 121.862 43.2288V40.5391H123.024C124.005 40.5391 124.186 40.4642 124.186 40.069C124.186 39.6751 123.98 39.576 123.101 39.5023C122.094 39.4286 121.991 39.3791 122.068 38.8112C122.146 38.0463 121.913 37.0833 121.629 37.0833C121.525 37.0833 121.061 37.5279 120.596 38.0705Z" fill="#808080"/>
<path d="M97.115 38.9042C96.5332 39.2413 95.9078 39.5277 95.7786 39.5277C95.3044 39.5277 95.4769 40.2043 96.0157 40.5173C96.5115 40.7771 96.5332 40.9076 96.684 44.7839C96.7485 46.9698 96.7919 49.6499 96.7485 50.7168C96.684 52.6417 96.6624 52.6683 95.9942 53.0586C94.7655 53.7606 95.175 53.9684 97.7617 53.995C99.7233 54.0216 100.241 53.9431 100.241 53.6833C100.241 53.4742 100.047 53.3184 99.831 53.3184C98.9687 53.3184 98.7318 52.6417 98.7318 50.196V47.8809L99.5291 48.2965C102.116 49.5979 104.983 47.1003 104.983 43.5611C104.983 40.0484 102.569 38.1489 99.7017 39.3984C99.2275 39.6062 98.8179 39.7886 98.7963 39.7886C98.7532 39.7886 98.7318 39.4237 98.7318 39.0081C98.7318 38.0704 98.5376 38.0704 97.115 38.9042ZM101.318 40.9076C102.655 41.7135 103.28 44.4975 102.504 46.2931C102.094 47.2562 101.577 47.5945 100.478 47.5945C98.9905 47.5945 98.7318 47.0483 98.7318 43.8209C98.7318 41.2193 98.7532 41.0634 99.2275 40.829C99.9172 40.4907 100.693 40.5173 101.318 40.9076Z" fill="#808080"/>
<path d="M111.894 38.8402C111.543 39.0951 110.906 39.3996 110.533 39.4758C109.656 39.6788 109.59 40.2624 110.424 40.3892C111.016 40.4654 111.016 40.492 111.126 42.7515C111.192 43.9961 111.192 45.4691 111.148 46.0032C111.082 46.8405 110.994 46.9928 110.446 47.1197C110.095 47.1958 109.809 47.4254 109.809 47.603C109.809 47.8821 110.314 47.9582 112.223 47.9582C114.175 47.9582 114.636 47.8821 114.636 47.603C114.636 47.3746 114.373 47.1958 114.044 47.145L113.429 47.0689L113.364 42.6754C113.298 37.8252 113.298 37.7998 111.894 38.8402Z" fill="#808080"/>
<path d="M85.3884 39.993C84.1997 40.6044 83.2621 41.6847 83.2621 42.4604C83.2621 43.1177 83.2394 43.1178 84.3824 42.6477C85.0684 42.3662 85.3199 42.1076 85.4342 41.6146C85.6858 40.4872 87.0575 39.6885 87.6978 40.3229C88.4065 41.0745 88.315 43.2591 87.5605 43.2591C87.4462 43.2591 86.6004 43.612 85.6628 44.0578C83.811 44.9278 83.125 45.7966 83.3994 46.901C83.5824 47.6997 84.1311 47.9583 85.5944 47.9583C86.7374 47.9583 87.6748 47.5825 88.1092 46.924C88.2008 46.7838 88.4979 46.9482 88.8408 47.324C89.2068 47.7227 89.6411 47.9583 90.0528 47.9583C90.83 47.9583 91.1044 47.7698 91.4702 47.0895C91.8131 46.408 91.7902 46.0782 91.3789 46.0782C91.1958 46.0782 91.0358 46.1724 91.0358 46.3138C91.0358 46.431 90.8758 46.5482 90.6928 46.5482C90.4184 46.5482 90.3499 46.1023 90.3499 43.9877C90.3499 40.1102 90.0068 39.523 87.7205 39.5C86.7831 39.5 86.0515 39.6643 85.3884 39.993ZM88.1321 45.538C87.7664 47.1125 86.0287 47.5584 85.8229 46.1023C85.7315 45.4909 86.2574 44.8094 87.2634 44.175C87.9264 43.7292 87.9492 43.7292 88.155 44.175C88.2694 44.4336 88.2465 45.0209 88.1321 45.538Z" fill="#808080"/>
<path d="M130.214 39.8758C128.992 40.4159 127.91 41.5904 127.91 42.3662C127.91 43.1419 127.887 43.1177 129.015 42.6719C129.73 42.3662 129.937 42.1317 130.122 41.4502C130.398 40.3229 131.481 39.7815 132.265 40.3458C132.702 40.6515 132.772 40.9101 132.702 41.8961L132.633 43.0718L131.02 43.7292C128.325 44.8094 127.357 46.1023 128.278 47.4412C128.578 47.8882 128.832 47.9583 130.099 47.9583C131.343 47.9583 131.665 47.8641 132.265 47.3469L132.978 46.7367L133.462 47.3469C133.785 47.7698 134.153 47.9583 134.66 47.9583C135.536 47.9583 135.813 47.794 136.181 47.0424C136.411 46.6195 136.411 46.431 136.204 46.2195C135.997 46.031 135.881 46.031 135.813 46.2437C135.744 46.408 135.582 46.5482 135.398 46.5482C135.19 46.5482 135.075 45.7966 135.007 43.5878C134.914 40.6987 134.891 40.6044 134.269 40.0643C133.762 39.6172 133.393 39.5 132.334 39.5C131.619 39.523 130.652 39.6885 130.214 39.8758ZM132.265 46.6195C131.987 46.8539 131.481 47.0182 131.158 46.9711C130.652 46.901 130.56 46.7597 130.49 46.031C130.421 45.2094 130.49 45.0922 131.528 44.4336L132.633 43.7062L132.702 44.9508C132.772 46.0081 132.702 46.2667 132.265 46.6195Z" fill="#808080"/>
</svg>
