<svg width="47" height="46" viewBox="0 0 47 46" fill="none" xmlns="http://www.w3.org/2000/svg">
<path fill-rule="evenodd" clip-rule="evenodd" d="M4.33331 2.39575C3.5394 2.39575 2.89581 3.03934 2.89581 3.83325C2.89581 4.62716 3.5394 5.27075 4.33331 5.27075H8.16665V20.1249C8.16665 25.9978 8.16665 28.9343 10.0914 30.7588C12.0161 32.5833 15.1139 32.5833 21.3095 32.5833H22.0625V39.3615L19.0238 40.8808C18.3137 41.2359 18.0259 42.0994 18.3809 42.8095C18.736 43.5196 19.5994 43.8074 20.3095 43.4523L23.5 41.8571L26.6904 43.4523C27.4005 43.8074 28.264 43.5196 28.6191 42.8095C28.9741 42.0994 28.6863 41.2359 27.9762 40.8808L24.9375 39.3615V32.5833H25.6905C31.8861 32.5833 34.9839 32.5833 36.9086 30.7588C38.8333 28.9343 38.8333 25.9978 38.8333 20.125V5.27075H42.6666C43.4606 5.27075 44.1041 4.62716 44.1041 3.83325C44.1041 3.03934 43.4606 2.39575 42.6666 2.39575H4.33331ZM30.2664 15.2751C30.8278 15.8365 30.8278 16.7467 30.2664 17.3081L27.7417 19.8328C27.4638 20.1109 27.1634 20.4116 26.8755 20.6312C26.5383 20.8885 26.0558 21.1655 25.4166 21.1655C24.7775 21.1655 24.295 20.8885 23.9578 20.6312C23.6699 20.4116 23.3694 20.1109 23.0916 19.8328L21.9221 18.6633C21.7879 18.5291 21.679 18.4203 21.5833 18.3276C21.4877 18.4203 21.3788 18.5291 21.2445 18.6633L18.7664 21.1414C18.2051 21.7028 17.2949 21.7028 16.7335 21.1414C16.1721 20.58 16.1721 19.6698 16.7335 19.1085L19.2582 16.5837C19.5361 16.3056 19.8366 16.0049 20.1244 15.7853C20.4616 15.528 20.9442 15.251 21.5833 15.251C22.2225 15.251 22.705 15.528 23.0422 15.7853C23.33 16.0049 23.6304 16.3055 23.9083 16.5836L25.0778 17.7532C25.2121 17.8874 25.321 17.9962 25.4166 18.0889C25.5123 17.9962 25.6212 17.8874 25.7555 17.7532L28.2335 15.2751C28.7949 14.7137 29.7051 14.7137 30.2664 15.2751Z" fill="#B5CCFF"/>
</svg>
