<svg width="46" height="46" viewBox="0 0 46 46" fill="none" xmlns="http://www.w3.org/2000/svg">
<path fill-rule="evenodd" clip-rule="evenodd" d="M30.9291 9.06285L34.4359 12.5696C39.5898 17.7235 42.1667 20.3005 42.1667 23.5027C42.1667 26.7049 39.5898 29.2819 34.4359 34.4358C29.282 39.5896 26.705 42.1666 23.5028 42.1666C20.3006 42.1666 17.7237 39.5896 12.5698 34.4357L9.06297 30.9289C6.1007 27.9667 4.61956 26.4855 4.06843 24.5639C3.51731 22.6422 3.98831 20.6012 4.93031 16.5192L5.47354 14.1652C6.26605 10.731 6.66231 9.01385 7.83814 7.83802C9.01398 6.66219 10.7311 6.26593 14.1653 5.47342L16.5193 4.93019C20.6013 3.98818 22.6423 3.51718 24.564 4.06831C26.4857 4.61944 27.9668 6.10057 30.9291 9.06285ZM21.3645 27.4628C20.0746 26.1729 20.0856 24.3222 20.8569 22.8555C20.4715 22.2955 20.5277 21.5231 21.0257 21.0251C21.5218 20.529 22.2905 20.4713 22.8499 20.8522C23.5013 20.506 24.2171 20.323 24.9303 20.3297C25.7241 20.3372 26.3616 20.9868 26.3541 21.7807C26.3467 22.5745 25.697 23.212 24.9032 23.2046C24.5641 23.2014 24.1184 23.3535 23.7362 23.7357C22.9935 24.4785 23.1888 25.2212 23.3974 25.4298C23.606 25.6384 24.3488 25.8338 25.0915 25.091C26.5943 23.5883 29.1888 23.0895 30.8515 24.7522C32.1414 26.042 32.1304 27.8927 31.3591 29.3594C31.7446 29.9194 31.6883 30.6918 31.1903 31.1898C30.6941 31.6861 29.9252 31.7436 29.3657 31.3625C28.49 31.8279 27.4938 32.0023 26.544 31.8071C25.7663 31.6473 25.2655 30.8873 25.4253 30.1096C25.5851 29.332 26.3451 28.8311 27.1227 28.9909C27.4623 29.0607 28.0097 28.9493 28.4798 28.4792C29.2225 27.7364 29.0272 26.9937 28.8186 26.7851C28.61 26.5765 27.8672 26.3812 27.1245 27.1239C25.6217 28.6267 23.0272 29.1254 21.3645 27.4628ZM19.2069 19.7284C20.7039 18.2314 20.7039 15.8043 19.2069 14.3072C17.7099 12.8102 15.2827 12.8102 13.7857 14.3072C12.2887 15.8043 12.2887 18.2314 13.7857 19.7284C15.2827 21.2254 17.7099 21.2254 19.2069 19.7284Z" fill="#FFB7A0"/>
</svg>
