<svg width="42" height="42" viewBox="0 0 42 42" fill="none" xmlns="http://www.w3.org/2000/svg">
<path d="M27.125 13.125C27.125 16.5077 24.3827 19.25 21 19.25C17.6173 19.25 14.875 16.5077 14.875 13.125C14.875 9.74226 17.6173 7 21 7C24.3827 7 27.125 9.74226 27.125 13.125Z" fill="#8C39FF"/>
<path d="M31.5 28.875C31.5 32.2577 26.799 35 21 35C15.201 35 10.5 32.2577 10.5 28.875C10.5 25.4923 15.201 22.75 21 22.75C26.799 22.75 31.5 25.4923 31.5 28.875Z" fill="#8C39FF"/>
<path d="M12.4636 8.75C12.7741 8.75 13.0773 8.78047 13.3701 8.83849C12.6569 10.1053 12.25 11.5676 12.25 13.125C12.25 14.6444 12.6373 16.0734 13.3185 17.3186C13.0418 17.3702 12.756 17.3972 12.4636 17.3972C9.98836 17.3972 7.98179 15.4615 7.98179 13.0736C7.98179 10.6857 9.98836 8.75 12.4636 8.75Z" fill="#8C39FF"/>
<path d="M9.53284 33.2254C8.53899 32.0374 7.875 30.5795 7.875 28.875C7.875 27.2226 8.499 25.802 9.44262 24.6343C6.10942 24.8928 3.5 26.7159 3.5 28.9264C3.5 31.1577 6.15528 32.9942 9.53284 33.2254Z" fill="#8C39FF"/>
<path d="M29.7499 13.125C29.7499 14.6444 29.3626 16.0734 28.6813 17.3186C28.9581 17.3702 29.2439 17.3972 29.5363 17.3972C32.0115 17.3972 34.0181 15.4615 34.0181 13.0736C34.0181 10.6857 32.0115 8.75 29.5363 8.75C29.2257 8.75 28.9225 8.78047 28.6298 8.83849C29.343 10.1053 29.7499 11.5676 29.7499 13.125Z" fill="#8C39FF"/>
<path d="M32.467 33.2254C35.8446 32.9942 38.4999 31.1577 38.4999 28.9264C38.4999 26.7159 35.8904 24.8928 32.5572 24.6343C33.5009 25.802 34.1249 27.2226 34.1249 28.875C34.1249 30.5795 33.4609 32.0374 32.467 33.2254Z" fill="#8C39FF"/>
</svg>
