<svg width="42" height="42" viewBox="0 0 42 42" fill="none" xmlns="http://www.w3.org/2000/svg">
<circle cx="21" cy="10.5" r="7" fill="#FF6739"/>
<path fill-rule="evenodd" clip-rule="evenodd" d="M28.875 38.5C25.9876 38.5 24.544 38.5 23.647 37.603C22.75 36.706 22.75 35.2624 22.75 32.375C22.75 29.4876 22.75 28.044 23.647 27.147C24.544 26.25 25.9876 26.25 28.875 26.25C31.7624 26.25 33.206 26.25 34.103 27.147C35 28.044 35 29.4876 35 32.375C35 35.2624 35 36.706 34.103 37.603C33.206 38.5 31.7624 38.5 28.875 38.5ZM32.3191 31.0552C32.7177 30.6565 32.7177 30.0102 32.3191 29.6115C31.9204 29.2128 31.274 29.2128 30.8754 29.6115L27.5139 32.973L26.8746 32.3337C26.476 31.9351 25.8296 31.9351 25.4309 32.3337C25.0323 32.7324 25.0323 33.3787 25.4309 33.7774L26.7921 35.1385C27.1907 35.5372 27.8371 35.5372 28.2357 35.1385L32.3191 31.0552Z" fill="#FF6739"/>
<path d="M26.9758 23.6379C25.2081 23.0724 23.1699 22.75 21 22.75C14.2345 22.75 8.75 25.884 8.75 29.75C8.75 33.496 13.8993 36.5547 20.3737 36.741C20.3262 36.52 20.2895 36.3006 20.2606 36.0851C20.1246 35.0741 20.1248 33.8389 20.125 32.5254V32.2245C20.1248 30.9111 20.1246 29.6758 20.2606 28.6648C20.4118 27.5398 20.7733 26.3083 21.7909 25.2908C22.8084 24.2733 24.0398 23.9118 25.1649 23.7605C25.7108 23.6871 26.3221 23.6534 26.9758 23.6379Z" fill="#FF6739"/>
</svg>
