<svg width="148" height="41" viewBox="0 0 148 41" fill="none" xmlns="http://www.w3.org/2000/svg">
<path d="M38.7766 1.83395C37.0808 1.82815 36.1607 1.86217 36.4653 1.92528C37.861 2.21444 37.8254 1.97854 37.7671 9.67745C37.7115 17.0275 37.7164 16.9777 36.7743 17.1181C36.5144 17.1568 36.8163 17.2097 37.4472 17.2363C38.0783 17.2629 39.508 17.3424 40.6243 17.4081C43.8966 17.601 44.3588 17.5925 45.6162 17.333C50.0877 16.41 52.8786 12.0785 51.899 7.58228C51.4797 5.65863 49.9364 3.6145 48.297 2.81708C46.6764 2.02869 45.9211 1.9325 40.7125 1.85544C39.9907 1.84477 39.3418 1.83587 38.7766 1.83395ZM41.6061 2.30671C43.9538 2.24903 46.6332 3.17211 48.0874 4.61143C50.3428 6.84363 50.9569 10.614 49.5381 13.5348C48.9614 14.7221 47.6375 15.8996 46.3113 16.4035C44.4443 17.113 40.6607 17.0027 39.852 16.2155C39.7119 16.079 39.6535 14.0461 39.6535 9.28534V2.54846L40.6243 2.39266C40.9417 2.34306 41.2708 2.31494 41.6061 2.30671Z" fill="#808080"/>
<path d="M96.6364 17.3841C95.5739 17.0156 95.5358 16.9431 95.5358 15.2944C95.5358 14.4564 95.6071 13.7203 95.6943 13.6587C95.7895 13.5915 95.853 13.8231 95.8535 14.2371C95.8547 15.7849 97.0063 16.8309 98.7085 16.8309C99.8303 16.8309 100.43 16.5314 100.991 15.6921C101.488 14.947 101.646 13.8757 101.408 12.8654C101.21 12.0288 100.66 11.3329 98.2027 8.81425C96.5771 7.14813 96.0115 6.04818 96.0115 4.55385C96.0115 2.12377 97.3609 0.637688 99.579 0.625291C101.327 0.615515 102.555 0.853484 102.445 1.18075C102.395 1.33034 102.347 1.99665 102.338 2.66146C102.323 3.81372 102.315 3.83674 102.175 3.1542C101.911 1.8649 101.091 1.24181 99.6583 1.24181C98.0364 1.24181 97.1231 2.16204 97.1218 3.7976C97.1212 4.90063 97.6477 5.77716 99.1825 7.22733C101.756 9.65862 102.389 10.5383 102.679 12.0808C103.073 14.1836 102.247 16.1128 100.561 17.0245C99.717 17.481 99.4007 17.5535 98.3104 17.5402C97.613 17.5318 96.8595 17.4614 96.6364 17.3841Z" fill="#808080"/>
<path d="M108.462 17.3091C107.565 16.9809 107.501 16.7775 107.689 14.8652C107.762 14.1163 107.832 13.7433 107.844 14.0363C107.885 15.0554 108.461 16.0821 109.23 16.5084C110.227 17.061 111.87 16.9654 112.577 16.3138C113.226 15.7145 113.574 14.8524 113.574 13.8426C113.574 12.6142 113.193 11.8977 111.77 10.4502C108.854 7.48335 108.31 6.66776 108.117 4.97002C107.996 3.8984 108.179 3.0795 108.752 2.13258C109.565 0.789851 111.058 0.370885 113.614 0.768946L114.526 0.910962L114.515 2.30503C114.507 3.43349 114.474 3.61259 114.343 3.24518C113.75 1.57243 113.221 1.2001 111.56 1.28591C110.549 1.33818 110.362 1.40585 109.932 1.87788C108.998 2.9031 108.974 4.56433 109.876 5.79183C110.104 6.1031 110.986 7.00124 111.834 7.78771C114.147 9.93255 114.843 11.1396 114.843 13.0059C114.843 14.7565 114.167 16.0862 112.817 16.992C112.189 17.4135 111.877 17.4915 110.649 17.5341C109.694 17.5672 108.962 17.4919 108.462 17.3091Z" fill="#808080"/>
<path d="M28.1456 14.2036C26.4674 12.3647 23.7961 9.32319 22.2097 7.44485C20.6232 5.56651 19.2617 4.02322 19.1839 4.01534C19.0072 3.99744 19.2148 14.1309 19.4214 15.6014C19.5052 16.1972 19.6517 16.7676 19.7471 16.869C19.8424 16.9704 20.2511 17.1105 20.6551 17.1805C21.1086 17.2588 20.4676 17.307 18.9811 17.3063C17.6561 17.3056 16.8432 17.2542 17.1744 17.192C18.1586 17.0072 18.1861 16.765 18.1971 8.16793C18.2047 2.14065 18.252 0.556176 18.4218 0.627262C18.5402 0.676756 21.3407 3.8427 24.6452 7.6627C27.9499 11.4827 30.6794 14.581 30.7106 14.5478C30.7417 14.5147 30.7033 11.6309 30.6248 8.13929C30.466 1.05245 30.5289 1.36622 29.2091 1.09113C28.6242 0.969185 29.0107 0.931376 30.8532 0.930373C32.4007 0.929455 33.0564 0.980736 32.6869 1.07361C32.3704 1.1531 32.0221 1.31334 31.9124 1.42969C31.7693 1.58179 31.6999 3.87491 31.6652 9.58866C31.628 15.6869 31.5682 17.5374 31.4069 17.5417C31.2917 17.5447 29.824 16.0425 28.1456 14.2036Z" fill="#808080"/>
<path d="M72.3802 17.3929C71.1714 17.3361 70.4162 17.2741 70.7014 17.2553C71.6893 17.19 71.7112 17.0235 71.7112 9.59819V2.74894L71.2601 2.42012C71.0121 2.23926 70.5391 2.07461 70.2093 2.05421C69.8024 2.02908 78.2339 1.82225 79.1955 1.83378C79.2131 1.83396 79.1663 2.41425 79.0911 3.12325C78.9759 4.21264 78.9322 4.32854 78.8092 3.87139C78.5388 2.86557 78.1272 2.70138 75.7047 2.63218L73.5265 2.56997V8.79653H75.8766C77.4315 8.79653 78.3032 8.72764 78.4529 8.59306C78.8254 8.25789 78.8721 8.49011 78.7205 9.92323C78.5901 11.1552 78.5616 11.2263 78.4313 10.6469C78.3519 10.2933 78.1307 9.92903 77.9402 9.8372C77.7493 9.74536 76.6712 9.61656 75.5446 9.55094L73.496 9.4318L73.5589 12.6987C73.6061 15.1406 73.6881 16.0369 73.883 16.2483C74.3052 16.7052 75.5008 16.9018 77.0757 16.7735C78.7276 16.6388 79.1441 16.4111 79.5609 15.4158L79.8487 14.728L79.7467 15.8106C79.5782 17.5978 79.6235 17.5704 76.9112 17.5305C75.6275 17.5117 73.5886 17.4498 72.3802 17.3929Z" fill="#808080"/>
<path d="M84.447 17.3929C83.2384 17.3361 82.483 17.2741 82.7684 17.2553C83.7563 17.19 83.7784 17.0235 83.7784 9.59819V2.74894L83.3274 2.42012C83.079 2.23926 82.6064 2.07461 82.2763 2.05421C81.8697 2.02908 90.3006 1.82225 91.2622 1.83378C91.2799 1.83396 91.233 2.41425 91.1581 3.12325C91.0427 4.21264 90.9989 4.32854 90.876 3.87139C90.601 2.84831 90.1979 2.69305 87.8187 2.69305H85.6889L85.5846 8.79653H87.7988C89.0202 8.79653 90.1861 8.71318 90.3991 8.61065C90.6112 8.50843 90.8207 8.45694 90.8644 8.49625C90.9081 8.53554 90.8843 9.18011 90.8117 9.92855C90.6871 11.2131 90.6699 11.2531 90.5049 10.6412C90.4089 10.2846 90.1796 9.92033 89.9951 9.83152C89.8107 9.74283 88.7449 9.61692 87.6267 9.55191L85.5934 9.43361L85.6042 12.3387C85.6172 15.8626 85.7564 16.3534 86.831 16.6701C87.8163 16.9603 90.4197 16.7782 90.9609 16.3813C91.1692 16.2286 91.4692 15.794 91.6276 15.4158L91.9157 14.728L91.8135 15.8106C91.645 17.5978 91.6902 17.5704 88.9782 17.5305C87.6944 17.5117 85.6556 17.4498 84.447 17.3929Z" fill="#808080"/>
<path d="M120.663 17.3986C119.444 17.3417 118.676 17.2797 118.954 17.2608C119.986 17.1907 119.983 17.2071 120.045 9.79647L120.1 2.93547L119.62 2.50545C119.335 2.25023 118.881 2.05978 118.505 2.03693C118.156 2.01574 120.037 1.95764 122.684 1.90779C125.332 1.85795 127.522 1.82521 127.551 1.83506C127.58 1.84489 127.545 2.41286 127.473 3.09722L127.344 4.34148L127.097 3.69913C126.961 3.34584 126.736 2.9932 126.596 2.91548C126.18 2.68289 124.892 2.56714 123.359 2.62426L121.914 2.67803L121.809 8.79008H124.04C125.271 8.79008 126.447 8.70664 126.661 8.60397C126.875 8.50161 127.095 8.4571 127.148 8.50507C127.201 8.55305 127.174 9.19846 127.086 9.93942C126.99 10.7683 126.903 11.0701 126.864 10.7236C126.769 9.88746 126.255 9.68458 123.887 9.54767L121.818 9.42805L121.828 12.3372C121.836 14.1143 121.929 15.4808 122.069 15.8485C122.387 16.6796 123.303 16.9401 125.348 16.7806C127.088 16.6449 127.709 16.3046 127.991 15.3299C128.127 14.8616 128.147 14.9893 128.078 15.912C128.03 16.562 127.891 17.2013 127.769 17.3324C127.533 17.5872 125.17 17.6093 120.663 17.3986Z" fill="#808080"/>
<path d="M143.083 14.626C141.449 12.8698 138.71 9.79516 136.999 7.79341C135.287 5.79162 133.844 4.1538 133.793 4.1538C133.649 4.1538 133.929 15.3456 134.093 16.1444C134.276 17.0332 134.432 17.1983 135.252 17.3666C135.661 17.4508 135.031 17.4984 133.574 17.4933C132.292 17.4887 131.494 17.4518 131.803 17.411C132.149 17.3654 132.447 17.1835 132.581 16.9361C132.742 16.6363 132.811 14.5243 132.85 8.57994L132.904 0.625L133.348 1.05958C133.591 1.2986 136.356 4.44499 139.492 8.05155C142.627 11.6582 145.243 14.6089 145.304 14.6089C145.587 14.6089 145.217 2.11182 144.921 1.68466C144.812 1.52706 144.373 1.32559 143.945 1.23696C143.337 1.11098 143.677 1.07485 145.5 1.07147C147.138 1.06842 147.68 1.11608 147.315 1.23114C146.352 1.53599 146.367 1.41635 146.347 9.46227C146.338 13.554 146.269 17.1081 146.193 17.3603C146.064 17.7947 145.9 17.6507 143.083 14.626Z" fill="#808080"/>
<path d="M7.23306 0.625233C7.02523 0.645327 6.63371 1.7906 4.5259 8.18924C3.28073 11.9692 2.12411 15.393 1.96011 15.7995C1.57632 16.7508 1.09884 17.2083 0.315909 17.3758C-0.0712433 17.4587 0.586788 17.5129 2.03341 17.5144C3.558 17.5158 4.18176 17.4658 3.81376 17.37C3.14196 17.1951 2.93535 16.8913 3.05973 16.2613C3.27866 15.1526 4.53105 11.1651 4.69869 11.0417C4.94589 10.8597 8.85172 10.8702 9.1129 11.0532C9.22619 11.1326 9.76215 12.4795 10.3068 14.0499C11.0322 16.1416 11.258 16.9945 11.1445 17.2314C11.0009 17.5315 11.1348 17.5547 13.0453 17.5374C14.7039 17.5225 14.9737 17.4852 14.4382 17.3469C13.0871 16.9979 12.9648 16.7416 9.79887 7.61183C8.50584 3.88315 7.38696 0.764336 7.31163 0.677203C7.28492 0.646318 7.26277 0.622369 7.23306 0.625233ZM6.877 3.93955C7.01011 3.98847 8.96997 9.82682 8.98201 10.2102C8.9844 10.2864 8.05807 10.3487 6.91891 10.3487H4.84531L5.78262 7.11528C6.2989 5.33657 6.79192 3.90827 6.877 3.93955Z" fill="#808080"/>
<path d="M56.1453 1.83425C54.8927 1.84201 54.2831 1.88117 54.584 1.94409C54.954 2.02142 55.3481 2.21587 55.464 2.37794C55.9551 3.06563 56.0166 15.8449 55.5337 16.9261C55.3841 17.2611 55.1658 17.4209 54.7878 17.4697C54.494 17.5078 55.4103 17.5403 56.8267 17.5412C58.243 17.5421 59.0574 17.4949 58.6347 17.4369C57.5234 17.2844 57.4358 17.0079 57.433 13.6859L57.4275 10.9179H60.3516L61.1615 12.0931C62.6681 14.266 64.599 16.6613 65.1799 17.0854C65.6965 17.4625 65.9503 17.5099 67.6426 17.5357C68.9175 17.5552 69.28 17.5274 68.7584 17.4423C67.2179 17.1912 66.4319 16.4879 63.6241 12.8566L61.7732 10.4621L62.3687 9.76457C64.9311 6.76584 64.7982 3.52586 62.0629 2.23515C61.3656 1.9061 60.9309 1.86972 57.5991 1.83974C57.0488 1.83479 56.5628 1.83164 56.1453 1.83425ZM58.9996 2.30656C61.2954 2.31843 62.7181 4.13674 62.5458 7.02963C62.464 8.40301 62.0502 9.3715 61.3226 9.90196C60.8032 10.2805 59.3506 10.4823 58.5436 10.2863C58.3546 10.2405 58.0264 10.1625 57.8139 10.1161C57.428 10.0317 57.4275 10.0273 57.4275 6.27723V2.52623L57.9641 2.41639C58.3255 2.34237 58.6715 2.30485 58.9996 2.30656Z" fill="#808080"/>
<path d="M33.3892 23.5838C31.6856 23.6005 30.006 24.0957 28.772 25.0766C27.7263 25.9082 26.5522 27.5476 26.1218 28.7802C24.4184 33.6599 26.6419 38.9433 30.9632 40.2873C32.1671 40.6617 35.1784 40.52 36.3211 40.0328C38.3736 39.1575 40.2097 37.0015 40.86 34.7006C41.3619 32.9246 41.3584 30.2348 40.8546 28.7181C40.4398 27.4693 39.5582 26.1161 38.6636 25.348C37.2794 24.1598 35.3198 23.565 33.3892 23.5838ZM32.6381 24.2738C32.8769 24.2717 33.1496 24.2761 33.4832 24.2904C34.8532 24.35 35.1941 24.4322 35.9662 24.89C38.6918 26.506 40.0498 30.5193 39.2532 34.5932C38.7904 36.9595 37.8267 38.3847 36.0707 39.2977C35.2275 39.7358 34.8709 39.814 33.817 39.801C33.1283 39.7924 32.3772 39.7242 32.1475 39.6482C29.8753 38.8964 28.1243 36.6295 27.5515 33.6997C26.7361 29.5309 28.1297 25.7593 30.911 24.6242C31.5334 24.3703 31.9214 24.28 32.6381 24.2738Z" fill="#808080"/>
<path d="M67.7798 23.5838C65.9451 23.6005 64.1363 24.0957 62.8074 25.0766C61.6811 25.9082 60.4168 27.5476 59.9535 28.7802C58.119 33.6599 60.5133 38.9433 65.1673 40.2873C66.4637 40.6617 69.7067 40.52 70.9374 40.0328C73.1478 39.1575 75.125 37.0015 75.8253 34.7006C76.3658 32.9246 76.3622 30.2348 75.8195 28.7181C75.3729 27.4693 74.4235 26.1161 73.46 25.348C71.9693 24.1598 69.8589 23.565 67.7798 23.5838ZM66.9708 24.2738C67.228 24.2717 67.5217 24.2761 67.881 24.2904C69.3563 24.35 69.7235 24.4322 70.5552 24.89C73.4904 26.506 74.9529 30.5193 74.0949 34.5932C73.5964 36.9595 72.5588 38.3847 70.6677 39.2977C69.7596 39.7358 69.3755 39.814 68.2405 39.801C67.4988 39.7924 66.6898 39.7242 66.4425 39.6482C63.9956 38.8964 62.1098 36.6295 61.4929 33.6997C60.6148 29.5309 62.1156 25.7593 65.1109 24.6242C65.7813 24.3703 66.199 24.28 66.9708 24.2738Z" fill="#808080"/>
<path d="M82.4121 40.2947C82.3683 40.177 81.584 37.6153 80.6691 34.6021C78.3149 26.8464 78.0111 25.9115 77.7267 25.546C77.5878 25.3675 77.1 25.1225 76.6427 25.0012C75.8726 24.7972 76.0091 24.7821 78.5054 24.795C79.987 24.803 80.9899 24.8408 80.7342 24.8794C79.9566 24.9966 79.8232 25.3053 80.0529 26.4564C80.2699 27.5429 83.0037 37.2929 83.125 37.4124C83.1651 37.4518 83.2255 37.4519 83.2595 37.4128C83.2935 37.3736 84.3485 34.6113 85.6036 31.2745C87.7657 25.5269 88.1046 24.7406 88.3255 24.9583C88.3765 25.0087 89.4008 27.815 90.6009 31.1946C91.8013 34.5742 92.8165 37.372 92.8569 37.4117C92.8973 37.4516 92.9648 37.4505 93.0065 37.4091C93.2406 37.1785 96.4064 26.3584 96.4064 25.789C96.4064 25.2201 96.3414 25.0932 96.0153 25.0247C95.8001 24.9794 95.4678 24.9099 95.2766 24.8701C95.0854 24.8303 95.9849 24.7966 97.2753 24.7953C98.6478 24.7939 99.3989 24.8454 99.085 24.9194C98.79 24.989 98.456 25.1021 98.343 25.1708C97.8943 25.4439 97.2245 27.171 95.1175 33.4893C93.9085 37.1147 92.8422 40.1963 92.7477 40.3376C92.5981 40.5616 92.5462 40.5557 92.3402 40.2909C92.2105 40.1242 91.5509 38.4291 90.8743 36.5246C90.1977 34.6197 89.239 31.9198 88.744 30.5246C88.2492 29.1293 87.7812 28.0508 87.7041 28.1277C87.6267 28.2047 86.5763 30.8821 85.3697 34.0776C84.163 37.2729 83.0998 40.0271 83.0069 40.198C82.8114 40.5576 82.5273 40.6038 82.4121 40.2947Z" fill="#808080"/>
<path d="M126.914 40.3206C126.852 40.2218 127.536 39.0307 128.435 37.6735C133.116 30.607 136.222 25.8588 136.306 25.6421C136.385 25.4423 136.045 25.4004 134.396 25.4067C133.293 25.4107 131.567 25.4813 130.558 25.5635C128.864 25.7014 128.685 25.751 128.208 26.2202C127.924 26.4995 127.581 27.0343 127.444 27.4086C127.14 28.2489 127.125 27.9688 127.379 26.1801L127.576 24.7916L133.074 24.8501C136.096 24.8823 138.593 24.9306 138.621 24.9577C138.649 24.9844 136.524 28.2626 133.898 32.2423C131.273 36.2221 129.124 39.513 129.124 39.5552C129.124 39.6754 136.252 39.6453 136.877 39.5224C137.611 39.378 138.457 38.5848 138.594 37.9124C138.653 37.6172 138.781 37.3757 138.877 37.3757C139.05 37.3757 139.013 37.7248 138.64 39.5886L138.457 40.5H132.742C128.997 40.5 126.988 40.4382 126.914 40.3206Z" fill="#808080"/>
<path d="M7.82557 40.3912C8.78113 40.189 8.80163 40.0251 8.80448 32.5531C8.80647 27.3417 8.75395 25.6315 8.58512 25.4087C8.46301 25.2478 8.04348 25.0433 7.65277 24.9543C7.11433 24.8318 7.58705 24.7928 9.60625 24.7931C11.3574 24.7933 12.0601 24.8422 11.6572 24.936C10.6472 25.1707 10.583 25.3878 10.583 28.5625V31.4231H19.9951V28.5625C19.9951 26.55 19.9293 25.613 19.7732 25.4029C19.6511 25.2386 19.1916 25.0347 18.7521 24.95C18.1438 24.8327 18.5891 24.7949 20.6167 24.7917C22.455 24.7891 23.1155 24.8363 22.7481 24.9446C22.455 25.0307 22.1154 25.2365 21.9933 25.4016C21.6721 25.8353 21.6782 39.212 21.9998 39.8427C22.1717 40.18 22.4071 40.3055 23.0182 40.3865C23.4556 40.4445 22.6145 40.4917 21.1494 40.4917C19.6844 40.4917 18.6995 40.4596 18.961 40.4201C19.8566 40.2849 19.9019 40.0826 19.9631 35.9572L20.02 32.1247H10.583V35.6069C10.583 40.0854 10.6157 40.1841 12.1813 40.4276C12.4255 40.4656 11.4265 40.4981 9.96142 40.4999C8.49632 40.5015 7.53518 40.4528 7.82557 40.3912Z" fill="#808080"/>
<path d="M46.3084 24.7936C44.3889 24.8054 43.3421 24.8644 43.7268 24.941C45.0021 25.1956 44.9461 24.8354 44.9461 32.607C44.9461 40.1113 44.9292 40.2569 44.0556 40.3935C43.7989 40.4335 44.6959 40.4687 46.0485 40.47C47.4012 40.4711 48.3172 40.4423 48.0839 40.4043C47.0657 40.2389 46.924 40.1527 46.7428 39.617C46.6395 39.3112 46.5573 37.9054 46.5573 36.462V33.8592L49.5258 33.9577L50.3739 35.1661C52.4151 38.0747 53.8589 39.8165 54.5189 40.1637C55.0711 40.4544 55.4963 40.5141 56.8565 40.4974C58.3083 40.4792 58.4128 40.4576 57.6941 40.3332C57.2419 40.255 56.5881 40.0011 56.2414 39.7646C55.5279 39.2774 54.0016 37.5416 52.1231 35.0895L50.8456 33.4218L51.5877 32.5524C53.6357 30.1513 53.8675 27.6317 52.1972 25.9526C51.2199 24.9701 50.195 24.7693 46.3084 24.7936ZM48.2906 25.3074C49.6032 25.3478 50.5545 25.9757 51.1743 27.1992C51.5813 28.003 51.6461 28.3405 51.6461 29.5669C51.6461 31.1806 51.2497 32.2623 50.4268 32.8805C50.0031 33.1991 48.4444 33.4492 47.9992 33.2686C47.9058 33.2309 47.5433 33.1485 47.1935 33.0883L46.5573 32.9789V25.4933L47.3208 25.3731C47.6623 25.3202 47.9879 25.2982 48.2906 25.3074Z" fill="#808080"/>
<path d="M103.132 40.4317C104.112 40.2949 104.165 39.8865 104.162 32.4479C104.161 26.0963 104.137 25.6341 103.804 25.2992C103.609 25.1022 103.175 24.9098 102.841 24.8717C102.507 24.8335 103.494 24.7977 105.034 24.7922C106.797 24.7857 107.594 24.8333 107.188 24.9209C106.833 24.9972 106.442 25.1512 106.319 25.2631C106.157 25.4104 106.095 27.4208 106.095 32.5537C106.095 39.2111 106.117 39.6627 106.454 40.0009C106.651 40.1992 107.129 40.3917 107.516 40.429C107.903 40.4662 106.96 40.4983 105.42 40.4998C103.88 40.5016 102.85 40.471 103.132 40.4317Z" fill="#808080"/>
<path d="M114.834 40.4254C115.113 40.3809 115.457 40.1355 115.631 39.8562C115.909 39.4117 115.937 38.6651 115.937 32.0001V24.6351L113.702 24.6622C111.251 24.6919 110.875 24.8101 110.348 25.7178C110.017 26.2892 110.005 26.2939 110.02 25.8457C110.029 25.5895 110.13 24.9609 110.245 24.4487C110.434 23.5968 110.489 23.5254 110.892 23.6106C111.134 23.6618 114.022 23.7038 117.311 23.7038H123.29L123.28 25.1007C123.271 26.4276 123.26 26.4649 123.058 25.8478C122.763 24.9411 122.245 24.7459 119.757 24.6054L117.602 24.4836L117.655 32.0364C117.706 39.0877 117.731 39.6147 118.038 39.9711C118.219 40.1811 118.657 40.3852 119.012 40.4247C119.367 40.4642 118.462 40.498 117.001 40.4998C115.539 40.5018 114.564 40.4683 114.834 40.4254Z" fill="#808080"/>
</svg>
