<svg width="171" height="37" viewBox="0 0 171 37" fill="none" xmlns="http://www.w3.org/2000/svg">
<mask id="mask0_1_65" style="mask-type:luminance" maskUnits="userSpaceOnUse" x="0" y="0" width="171" height="37">
<path d="M170.101 0.122986H0.766235V36.9849H170.101V0.122986Z" fill="white"/>
</mask>
<g mask="url(#mask0_1_65)">
<path fill-rule="evenodd" clip-rule="evenodd" d="M43.2637 3.03158C41.8808 3.25015 41.6853 3.30644 40.7151 3.7627C38.6094 4.75373 36.9635 6.29713 35.9306 8.25235C35.4443 9.17262 35.1112 9.93158 35.1112 10.1243C35.1112 10.2215 35.063 10.3304 35.0026 10.3667C34.9423 10.4023 34.8626 10.6053 34.8252 10.8178C34.7878 11.0307 34.6466 11.7644 34.5103 12.4484C34.0602 14.7064 34.211 18.0634 34.8651 20.4186C34.9326 20.663 35.0376 21.036 35.0968 21.2479C35.7737 23.6634 37.8637 26.1251 40.1009 27.1408C41.6636 27.8507 42.3007 27.9733 44.4366 27.9733C50.1129 27.9733 53.914 24.6906 53.8899 19.8084C53.8717 16.1956 52.2886 13.8953 48.9038 12.5653C47.6814 12.0847 44.731 11.924 43.6052 12.2769C41.9146 12.8066 40.3749 13.7283 39.3492 14.8253C38.4321 15.8076 38.2498 14.54 38.9232 11.8558C40.2216 6.68257 46.1356 4.69019 50.131 8.08077C50.4966 8.39083 50.6004 8.4295 50.6933 8.29211C50.7561 8.19907 51.0686 7.70715 51.3872 7.19929C51.7069 6.69085 52.0605 6.13075 52.1739 5.95455C52.4865 5.4668 52.4515 5.3841 51.7033 4.84985C49.2839 3.12199 46.4952 2.52106 43.2637 3.03158ZM27.3522 3.44441C26.9588 3.74513 20.4692 10.0685 20.4221 10.1962C20.3883 10.2912 20.7443 10.6881 22.2056 12.1819C22.7172 12.7042 22.5628 12.7982 24.6999 10.6519C25.8981 9.44752 26.6619 8.7665 26.7524 8.82063C26.8622 8.88576 26.8984 11.1742 26.8984 18.1368C26.8984 24.4091 26.9383 27.3914 27.0251 27.443C27.1784 27.5352 30.9638 27.5192 31.0591 27.4261C31.2172 27.2737 31.1943 3.40049 31.0362 3.30076C30.7176 3.09874 27.6478 3.21862 27.3522 3.44441ZM142.25 6.90268C142.244 7.83488 142.248 8.87283 142.259 9.2108C142.282 9.98172 142.148 10.0623 140.911 10.0169C139.363 9.95949 139.225 10.0081 139.174 10.6287C139.106 11.475 139.149 11.5004 140.668 11.5004C141.844 11.5004 142.021 11.5272 142.127 11.7194C142.202 11.8552 142.253 14.4449 142.259 18.5631C142.27 26.0713 142.277 26.1405 143.136 27.0866C144.162 28.2151 146.919 28.3562 148.197 27.345L148.556 27.0609L148.289 26.5099C147.981 25.8781 147.947 25.8673 147.321 26.2185C146.219 26.837 144.827 26.5234 144.292 25.537C143.988 24.9785 143.82 12.0041 144.111 11.6641C144.218 11.539 144.655 11.5004 145.96 11.5004H147.666L147.592 10.1377L146.06 10.1088C143.736 10.0644 143.988 10.361 143.948 7.61786L143.916 5.27871L142.26 5.20844L142.25 6.90268ZM9.79592 9.72024C9.45925 9.7751 8.94641 9.85823 8.65801 9.90572C8.37082 9.95284 8.10533 10.038 8.06913 10.0943C8.03293 10.1506 7.899 10.1967 7.7723 10.1967C7.34754 10.1967 5.64248 11.0307 4.79658 11.6522C3.81795 12.371 3.82156 12.3229 4.67349 13.7346C5.3227 14.8108 5.41199 14.8526 5.97069 14.3432C8.04741 12.4511 12.6968 12.1622 14.2897 13.8265C15.0728 14.646 15.179 14.9798 15.2212 16.7742C15.2671 18.7578 15.208 18.9113 14.572 18.4252C13.5584 17.6475 13.124 17.3969 12.3372 17.1338C7.36201 15.4721 2.96239 17.8005 2.93826 22.1071C2.92257 24.9376 4.1691 26.6154 7.07241 27.6716C9.27102 28.472 12.9804 27.6627 14.6891 26.0103C15.0656 25.6472 15.2514 25.8842 15.2514 26.7286V27.5057L18.9897 27.4401L19.0284 21.9294C19.079 14.4435 18.9656 13.6462 17.6008 11.9447C16.7887 10.9335 15.5482 10.2148 14.0013 9.8592C13.2374 9.68411 10.567 9.59578 9.79592 9.72024ZM81.0237 9.6707C80.8885 9.70066 80.4746 9.78742 80.1041 9.86343C71.609 11.599 71.1143 24.6369 79.4296 27.6303C82.123 28.6 85.737 27.8276 87.8041 25.8407C88.5691 25.1045 88.5764 25.0384 87.9489 24.4907L87.4578 24.0613L86.7096 24.778C84.3264 27.0614 80.0957 27.008 77.6871 24.6654C73.9524 21.0329 74.8212 13.856 79.2462 11.7737C81.8104 10.5672 84.8972 10.9593 86.7434 12.726L87.436 13.3889L88.5691 12.5523L88.3049 12.1942C87.004 10.4276 83.326 9.15293 81.0237 9.6707ZM128.407 9.67529C126.938 9.93218 125.224 10.811 124.12 11.8718C123.206 12.7492 123.135 12.7094 123.135 11.32C123.135 10.0365 123.063 9.94245 122.096 9.9781C121.349 10.0055 121.408 8.88685 121.447 22.4033L121.479 34.3138H123.073L123.106 29.6618C123.142 24.4473 123.099 24.6432 124.012 25.5736C125.647 27.2376 127.357 27.9733 129.594 27.9733C130.718 27.9733 130.999 27.9303 132.394 27.5455C138.8 25.7778 139.799 13.9768 133.829 10.5873C132.528 9.84844 129.921 9.4103 128.407 9.67529ZM157.523 9.67118C157.388 9.70223 156.947 9.7879 156.542 9.86137C156.138 9.9352 155.752 10.0334 155.684 10.0798C155.617 10.1264 155.419 10.1972 155.244 10.2375C154.255 10.4654 152.384 12.0216 151.488 13.3625C151.083 13.9681 150.89 14.3427 150.468 15.3518C149.504 17.6516 149.891 21.9563 151.231 23.8438C151.354 24.0169 151.455 24.2169 151.455 24.2881C151.455 24.3594 151.506 24.4178 151.57 24.4178C151.632 24.4178 151.718 24.5238 151.761 24.6534C151.804 24.7832 152.254 25.2873 152.763 25.7742C156.155 29.0212 162.086 28.7195 165.139 25.1443C167.714 22.1293 168.113 17.0099 166.029 13.7582C165.84 13.4617 165.599 13.0736 165.495 12.8965C164.895 11.8754 162.942 10.47 161.568 10.0716C161.299 9.99356 160.947 9.88046 160.785 9.82101C160.458 9.70006 157.908 9.58333 157.523 9.67118ZM98.0646 9.86137C96.7843 10.2789 95.819 10.9072 94.5507 12.1492C93.5262 13.1517 93.4671 13.1155 93.4671 11.4911C93.4671 9.97604 93.3501 9.82512 92.3364 10.0319L91.8127 10.1388V27.4401H93.4056L93.4695 14.3897L94.0777 13.7299C95.2168 12.494 97.0727 11.5716 98.7476 11.4105L99.6587 11.3226L99.7299 9.7229L99.0819 9.7322C98.7247 9.73728 98.2662 9.79576 98.0646 9.86137ZM56.9344 10.0514C56.6991 10.0768 56.4662 10.16 56.4155 10.236C56.2851 10.4339 56.2984 13.0143 56.43 13.0928C56.4903 13.1285 58.421 13.16 60.7222 13.163C63.0221 13.1657 64.9866 13.1982 65.0868 13.2354C65.491 13.3857 65.2931 13.6983 63.027 16.4803C62.9461 16.5795 62.7169 16.8725 62.5177 17.1318C62.3186 17.3912 62.1256 17.6305 62.0869 17.663C62.0495 17.6956 61.451 18.4422 60.7596 19.3221C60.0669 20.202 58.8952 21.6685 58.1567 22.581C56.3153 24.8539 56.3033 24.8761 56.3467 26.2883L56.3817 27.4401L70.6642 27.501V24.5367L70.2044 24.532C69.951 24.5295 67.972 24.5315 65.8048 24.5362C62.3295 24.5444 61.8408 24.5227 61.6658 24.3538C61.4341 24.13 61.4184 24.1605 62.3826 22.9566C62.7905 22.4462 63.29 21.8044 63.4928 21.531C63.6943 21.2576 64.1914 20.6309 64.5957 20.1385C64.9999 19.6456 65.4416 19.0963 65.5767 18.917C65.7107 18.7383 65.9049 18.4933 66.0063 18.3724C66.1065 18.252 66.7412 17.4501 67.4157 16.5908C68.0903 15.7311 69.0556 14.5153 69.5612 13.889L70.4795 12.7497L70.5218 11.551C70.5821 9.77763 71.3158 9.94765 63.7558 9.97918C60.2395 9.99356 57.1697 10.0262 56.9344 10.0514ZM102.126 10.1719C102.078 10.2468 103.776 14.3866 104.25 15.3518C104.314 15.4825 104.511 15.9357 104.687 16.3593C104.863 16.7831 105.115 17.3602 105.249 17.6418C105.382 17.9234 105.652 18.5465 105.849 19.0261C106.047 19.5056 106.312 20.1282 106.442 20.4098C106.571 20.6914 106.824 21.2685 107.006 21.6923C107.188 22.1159 107.383 22.5691 107.439 22.6998C107.495 22.8301 107.651 23.1767 107.783 23.4697C108.324 24.6591 109.649 27.8652 109.649 27.9847C109.649 28.0549 109.494 28.4414 109.304 28.8428C109.113 29.2444 108.797 29.9196 108.6 30.3433C107.33 33.0855 106.421 33.739 104.534 33.2664L103.898 33.1067L103.77 33.4611C103.444 34.3669 103.554 34.5556 104.508 34.7296C105.871 34.978 107.432 34.581 108.408 33.7356C108.703 33.4808 109.649 32.3012 109.649 32.1886C109.649 32.155 109.794 31.8194 109.97 31.4431C110.322 30.6886 110.541 30.2008 110.728 29.7508C110.795 29.5879 110.967 29.2021 111.109 28.8929C111.25 28.584 111.366 28.308 111.366 28.2798C111.366 28.2512 111.559 27.8234 111.796 27.3295C112.031 26.836 112.224 26.4025 112.224 26.3664C112.224 26.3307 112.331 26.0735 112.463 25.7943C112.594 25.5158 112.809 25.0254 112.94 24.7047C113.071 24.3842 113.35 23.7606 113.56 23.3188C113.769 22.8771 113.941 22.4828 113.941 22.4419C113.941 22.3572 115.144 19.6218 115.669 18.514C115.865 18.1022 116.025 17.6991 116.025 17.6191C116.025 17.539 116.071 17.4228 116.129 17.3608C116.186 17.2987 116.322 17.0239 116.432 16.7495C116.542 16.4751 116.748 15.9956 116.892 15.683C117.035 15.3704 117.209 14.9818 117.278 14.8186C117.345 14.6558 117.451 14.429 117.512 14.3142C117.572 14.1995 117.784 13.7103 117.984 13.2266C118.181 12.743 118.464 12.0899 118.609 11.7757C118.753 11.4616 118.954 11.0271 119.053 10.8105C119.333 10.1967 119.213 10.0784 118.312 10.0784C117.366 10.0784 117.455 9.98063 116.643 11.9152C116.287 12.7626 115.596 14.3892 115.107 15.53C114.617 16.6705 113.732 18.7501 113.141 20.1514C112.55 21.5532 112.019 22.7504 111.961 22.8124C111.903 22.8739 111.856 22.9974 111.856 23.0863C111.856 23.1752 111.714 23.5508 111.537 23.9218C111.362 24.2923 111.134 24.7826 111.031 25.0106C110.928 25.2389 110.823 25.4471 110.799 25.4741C110.72 25.5609 110.263 25.0974 110.263 24.9315C110.263 24.8425 110.209 24.6777 110.142 24.5646C110.077 24.4514 109.882 24.0123 109.708 23.5885C109.361 22.7375 109.3 22.5981 108.926 21.7827C108.785 21.4737 108.669 21.19 108.669 21.1528C108.669 21.1151 108.525 20.7813 108.349 20.4108C108.174 20.0404 107.893 19.3903 107.724 18.9666C107.554 18.543 107.313 17.971 107.185 17.6961C107.058 17.4212 106.59 16.3279 106.145 15.2665C105.699 14.2058 105.284 13.2865 105.224 13.225C105.164 13.163 105.113 13.0422 105.113 12.9569C105.113 12.8717 104.998 12.5487 104.858 12.2397C104.109 10.5919 103.939 10.2484 103.827 10.1693C103.661 10.0514 102.201 10.0541 102.126 10.1719ZM159.668 11.149C164.001 11.6925 166.753 17.2553 164.971 21.87C164.361 23.4521 164.192 23.7188 163.212 24.6545C161.767 26.0337 160.608 26.492 158.565 26.492C153.54 26.492 150.638 21.7144 152.171 15.9647C153.047 12.6794 156.121 10.7041 159.668 11.149ZM130.962 11.367C133.49 12.1276 134.93 13.7882 135.629 16.7463C135.802 17.475 135.802 20.3938 135.63 21.0267C135.558 21.2949 135.44 21.7279 135.367 21.9888C135.079 23.0357 134.49 23.9951 133.619 24.8327C132.832 25.5881 132.499 25.8144 131.777 26.0811C131.643 26.1307 131.339 26.2437 131.104 26.3318C130.53 26.546 127.769 26.5456 127.181 26.3307C125.517 25.723 124.073 24.7656 123.359 23.7967C123.081 23.419 122.848 16.177 123.067 14.7575C123.404 12.5839 128.184 10.531 130.962 11.367ZM46.3444 15.7775C48.4175 16.5878 49.3141 17.6217 49.5288 19.4508C50.1551 24.7805 41.6588 26.4236 39.29 21.4308C38.0966 18.9144 38.3717 18.0495 40.8636 16.4937C42.2669 15.6163 45.0134 15.2578 46.3444 15.7775ZM12.1164 19.1428C14.4984 19.6926 15.2514 20.4624 15.2514 22.3505V23.6675L14.7916 24.1135C12.2467 26.5824 7.42597 25.9175 6.72246 22.9999C6.07929 20.3353 8.81246 18.3801 12.1164 19.1428Z" fill="#808080" stroke="#808080" stroke-width="0.50844"/>
<mask id="mask1_1_65" style="mask-type:luminance" maskUnits="userSpaceOnUse" x="-804" y="-454" width="1738" height="909">
<path d="M933.742 -453.292H-803.902V454.167H933.742V-453.292Z" fill="white"/>
</mask>
<g mask="url(#mask1_1_65)">
<mask id="mask2_1_65" style="mask-type:luminance" maskUnits="userSpaceOnUse" x="-1293" y="-454" width="2716" height="909">
<g opacity="0.35">
<path d="M-1292.61 -453.292H1422.45V454.167H-1292.61V-453.292Z" fill="white"/>
</g>
</mask>
<g mask="url(#mask2_1_65)">
<path fill-rule="evenodd" clip-rule="evenodd" d="M818.648 -455.617C819.094 -455.804 819.613 -455.7 819.963 -455.354L968.737 -306.375V-454.5C968.737 -454.988 969.026 -455.429 969.485 -455.617C969.931 -455.804 970.45 -455.7 970.8 -455.354L1120.78 -305.167L1270.76 -455.354C1270.99 -455.582 1271.29 -455.708 1271.62 -455.708C1271.94 -455.708 1272.25 -455.582 1272.47 -455.354L1423.31 -304.313C1423.78 -303.841 1423.78 -303.075 1423.31 -302.604L1273.32 -152.407C1356.51 -151.496 1423.66 -83.6843 1423.66 -0.166748C1423.66 0.153473 1423.53 0.461548 1423.31 0.687531C1423.08 0.914673 1422.78 1.04156 1422.46 1.04156H1274.53L1423.31 150.021C1423.53 150.247 1423.66 150.555 1423.66 150.875V452.958C1423.66 453.625 1423.12 454.167 1422.46 454.167H1120.78C1120.12 454.167 1119.57 453.625 1119.57 452.958V304.833L970.8 453.813C970.33 454.285 969.557 454.285 969.087 453.813L818.249 302.771C817.779 302.3 817.779 301.534 818.249 301.062L967.059 152.057C884.413 150.516 817.9 82.9533 817.9 -0.166748H669.476V146.75L774.072 42.0101C774.543 41.5377 775.315 41.5377 775.786 42.0101C776.256 42.4814 776.256 43.2462 775.786 43.7187L671.177 148.459L819.106 148.458C819.77 148.458 820.313 149 820.313 149.667C820.313 150.334 819.77 150.875 819.106 150.875L671.177 150.876L775.786 255.614C776.256 256.087 776.256 256.852 775.786 257.324C775.303 257.795 774.543 257.795 774.072 257.324L669.476 152.585V300.708V300.713C752.895 301.362 820.313 369.276 820.313 452.958C820.313 453.625 819.77 454.167 819.106 454.167H517.432C517.106 454.167 516.804 454.04 516.575 453.813C516.358 453.587 516.225 453.278 516.225 452.958C516.225 369.276 583.643 301.362 667.062 300.713V300.708V152.585L562.466 257.324C561.995 257.795 561.235 257.795 560.752 257.324C560.282 256.852 560.282 256.087 560.752 255.614L665.361 150.876L369.508 150.875L518.289 299.854C518.759 300.325 518.759 301.091 518.289 301.563L367.448 452.604C366.977 453.077 366.212 453.077 365.742 452.604L214.904 301.563C214.432 301.091 214.432 300.325 214.904 299.854L363.682 150.875H216.964C216.964 228.432 159.052 292.444 84.1683 301.917C159.052 311.389 216.964 375.401 216.964 452.958C216.964 453.625 216.424 454.167 215.758 454.167H-387.591C-388.257 454.167 -388.798 453.625 -388.798 452.958V304.833L-537.575 453.813C-538.046 454.285 -538.811 454.285 -539.282 453.813L-688.059 304.833V451.75C-688.059 452.417 -688.598 452.958 -689.266 452.958H-1292.61C-1292.93 452.958 -1293.24 452.831 -1293.47 452.604C-1293.69 452.378 -1293.82 452.07 -1293.82 451.75C-1293.82 374.193 -1235.91 310.18 -1161.03 300.708C-1235.91 291.236 -1293.82 227.223 -1293.82 149.667C-1293.82 66.5465 -1227.3 -1.0162 -1144.66 -2.55685L-1293.47 -151.562C-1293.94 -152.034 -1293.94 -152.8 -1293.47 -153.271L-1143.48 -303.458L-1293.47 -453.646C-1293.81 -453.991 -1293.92 -454.511 -1293.73 -454.963C-1293.54 -455.414 -1293.1 -455.708 -1292.61 -455.708H-387.591C-387.271 -455.708 -386.964 -455.582 -386.738 -455.354C-386.511 -455.128 -386.385 -454.82 -386.385 -454.5C-386.385 -370.818 -453.805 -302.904 -537.222 -302.255V-302.25V-154.125L-432.623 -258.865C-432.152 -259.337 -431.388 -259.337 -430.917 -258.865C-430.446 -258.394 -430.446 -257.629 -430.917 -257.156L-535.516 -152.417H-238.46L-388.444 -302.604C-388.916 -303.075 -388.916 -303.841 -388.444 -304.313L-237.607 -455.354C-237.381 -455.582 -237.074 -455.708 -236.754 -455.708C-236.434 -455.708 -236.126 -455.582 -235.901 -455.354L-87.0971 -306.349C-85.5585 -389.1 -18.0872 -455.708 64.9203 -455.708C148.489 -455.708 216.311 -388.196 216.959 -304.667H363.682L214.904 -453.646C214.559 -453.991 214.455 -454.511 214.642 -454.963C214.829 -455.414 215.27 -455.708 215.758 -455.708H517.432C517.914 -455.708 518.361 -455.414 518.542 -454.963C518.735 -454.511 518.626 -453.991 518.289 -453.646L369.508 -304.667H516.225C516.877 -388.196 584.705 -455.708 668.269 -455.708C742.976 -455.708 805.109 -401.748 817.9 -330.625V-454.5C817.9 -454.988 818.189 -455.429 818.648 -455.617ZM817.9 -304.667C817.248 -386.861 750.505 -453.292 668.269 -453.292C586.033 -453.292 519.29 -386.861 518.638 -304.667H817.9ZM516.225 -302.25H216.964V-2.58344H366.519H366.595H366.671H516.225V-302.25ZM520.34 -2.58344H816.198L668.269 -150.708L520.34 -2.58344ZM669.97 -152.417L817.9 -300.541V-152.417C817.9 -151.929 818.189 -151.488 818.648 -151.3C819.094 -151.113 819.613 -151.217 819.963 -151.562L968.737 -300.541V-152.417V-152.412C886.681 -151.773 820.096 -86.0418 817.948 -4.23883L669.97 -152.417ZM971.645 -152.407C1048.33 -151.567 1111.39 -93.8778 1120.78 -19.4409C1130.17 -93.8778 1193.23 -151.567 1269.92 -152.407L1120.78 -301.75L971.645 -152.407ZM1119.08 -303.458L971.15 -451.583V-155.334L1119.08 -303.458ZM1122.48 -303.458L1271.62 -154.125L1420.75 -303.458L1271.62 -452.791L1122.48 -303.458ZM1119.57 -0.166748C1119.57 -82.9171 1052.58 -150 969.943 -150C887.309 -150 820.313 -82.9171 820.313 -0.166748C820.313 82.5836 887.309 149.667 969.943 149.667C1052.58 149.667 1119.57 82.5836 1119.57 -0.166748ZM1121.99 1.04156C1121.34 83.607 1055.06 150.523 972.827 152.057L1119.57 299V150.875C1119.57 150.555 1119.71 150.247 1119.92 150.021L1268.71 1.04156H1121.99ZM1271.62 1.54184L1123.69 149.667H1419.55L1271.62 1.54184ZM1421.25 152.083H1121.99V301.907V301.926V451.75H1421.25V152.083ZM1119.08 301.917L969.943 152.583L820.808 301.917L969.943 451.25L1119.08 301.917ZM1121.99 -1.37509H1421.25C1420.6 -83.5695 1353.85 -150 1271.62 -150C1189.38 -150 1122.64 -83.5695 1121.99 -1.37509ZM968.242 -303.458L820.313 -451.583V-155.334L968.242 -303.458ZM668.269 -154.125L520.34 -302.25H816.198L668.269 -154.125ZM518.638 -300.541L666.568 -152.417L518.638 -4.29202V-300.541ZM667.062 -0.166748H393.725C464.373 12.5751 518.059 74.1844 518.638 148.458L665.361 148.459L560.752 43.7187C560.282 43.2462 560.282 42.4814 560.752 42.0101C561.223 41.5377 561.995 41.5377 562.466 42.0101L667.062 146.75V-0.166748ZM516.225 148.458C515.574 66.2891 448.867 -0.125671 366.669 -0.166748C366.645 -0.166748 366.62 -0.166748 366.595 -0.166748C366.569 -0.166748 366.545 -0.166748 366.52 -0.166748C284.318 -0.126892 217.617 66.2891 216.969 148.458H366.586H366.603H516.225ZM216.964 122.5C228.172 60.1919 277.241 11.0562 339.464 -0.166748H216.964V122.5ZM214.551 -276.291C201.757 -205.168 139.632 -151.208 64.9203 -151.208C-9.7912 -151.208 -71.9168 -205.168 -84.7101 -276.291V-151.219V-151.199V-0.177612V-0.157074V123.708C-71.9168 52.5854 -9.7912 -1.37509 64.9203 -1.37509C139.632 -1.37509 201.757 52.5854 214.551 123.708V-276.291ZM214.551 150.875C214.551 68.1246 147.559 1.04156 64.9203 1.04156C-17.718 1.04156 -84.7101 68.1246 -84.7101 150.875C-84.7101 233.625 -17.718 300.708 64.9203 300.708C147.559 300.708 214.551 233.625 214.551 150.875ZM45.6722 301.917C-20.2593 293.577 -73.033 242.958 -84.7101 178.042V425.791C-73.033 360.875 -20.2593 310.256 45.6722 301.917ZM-87.1236 451.75V152.083H-236.742C-236.75 152.083 -236.757 152.083 -236.766 152.083H-386.385V301.909V301.924V451.75H-87.1236ZM-388.798 299V152.083H-535.516L-388.798 299ZM-538.437 149.667H-538.42H-388.803C-389.451 67.4721 -456.192 1.04156 -538.428 1.04156C-620.665 1.04156 -687.406 67.4721 -688.054 149.667H-538.437ZM-690.453 148.458C-689.17 65.8892 -622.247 -0.727386 -539.635 -1.37024V-148.29L-644.233 -43.5508C-644.704 -43.0795 -645.469 -43.0795 -645.939 -43.5508C-646.411 -44.0232 -646.411 -44.7881 -645.939 -45.2606L-541.341 -150H-689.266C-689.932 -150 -690.472 -150.541 -690.472 -151.208H-837.19L-688.413 -2.22934C-687.941 -1.75809 -687.941 -0.992065 -688.413 -0.520813L-837.19 148.458H-690.453ZM-840.092 150.875C-840.099 150.875 -840.106 150.875 -840.114 150.875H-989.733V450.542H-690.472V150.875H-840.092ZM-688.059 152.083H-541.341L-688.059 299V152.083ZM-687.559 301.917L-538.428 451.25L-389.298 301.917L-538.428 152.583L-687.559 301.917ZM-992.147 424.583V176.834C-1003.82 241.75 -1056.6 292.368 -1122.53 300.708C-1056.6 309.048 -1003.82 359.666 -992.147 424.583ZM-988.027 148.458H-841.31V1.54184L-988.027 148.458ZM-838.896 -1.3811V-1.37509V-1.36783V146.75L-690.972 -1.37509L-838.896 -149.5V-1.3811ZM-841.31 -151.208V-4.29202L-988.027 -151.208H-841.31ZM-840.11 -153.625H-840.096H-690.472V-453.292H-989.733V-153.625H-840.11ZM-992.147 -155.334V-451.583L-1140.07 -303.458L-992.147 -155.334ZM-1141.78 -301.75L-1290.91 -152.417L-1141.78 -3.08365L-992.646 -152.417L-1141.78 -301.75ZM-992.147 -149.5V122.5C-1004.77 52.2942 -1065.47 -1.18781 -1138.89 -2.55685L-992.147 -149.5ZM-989.733 -149.5V146.75L-841.809 -1.37509L-989.733 -149.5ZM-1141.78 -305.167L-993.853 -453.292H-1289.7L-1141.78 -305.167ZM-688.059 -427.333V-152.417H-541.341L-645.94 -257.156C-646.411 -257.629 -646.411 -258.394 -645.94 -258.865C-645.469 -259.337 -644.705 -259.337 -644.234 -258.865L-539.635 -154.125V-302.25V-302.255C-613.808 -302.832 -675.334 -356.594 -688.059 -427.333ZM-537.222 -148.29V-1.37024C-454.208 -0.723755 -387.035 66.5405 -386.389 149.667H-239.667L-388.444 0.687531C-388.79 0.341949 -388.893 -0.177643 -388.706 -0.629547C-388.519 -1.08023 -388.079 -1.37509 -387.591 -1.37509H-239.667L-388.091 -150H-535.516L-430.918 -45.2606C-430.446 -44.7881 -430.446 -44.0232 -430.918 -43.5508C-431.388 -43.0795 -432.153 -43.0795 -432.624 -43.5508L-537.222 -148.29ZM-384.678 -150L-236.754 -1.87531L-88.8297 -150H-384.678ZM-87.1236 -148.291L-233.841 -1.37509H-87.1236V-148.291ZM-88.8297 1.04156H-384.678L-236.754 149.166L-88.8297 1.04156ZM-233.841 149.667H-87.1236V2.75015L-233.841 149.667ZM-87.1236 -152.417V-300.541L-235.048 -152.417H-87.1236ZM-84.7101 -303.458C-84.7101 -220.708 -17.718 -153.625 64.9203 -153.625C147.559 -153.625 214.551 -220.708 214.551 -303.458C214.551 -386.209 147.559 -453.292 64.9203 -453.292C-17.718 -453.292 -84.7101 -386.209 -84.7101 -303.458ZM-87.6231 -303.458L-236.754 -154.125L-385.885 -303.458L-236.754 -452.791L-87.6231 -303.458ZM-688.054 -453.292C-687.406 -371.097 -620.665 -304.667 -538.428 -304.667C-456.192 -304.667 -389.451 -371.097 -388.803 -453.292H-688.054ZM-992.147 149.667C-992.147 232.417 -1059.14 299.5 -1141.78 299.5C-1224.42 299.5 -1291.41 232.417 -1291.41 149.667C-1291.41 66.9163 -1224.42 -0.166748 -1141.78 -0.166748C-1059.14 -0.166748 -992.147 66.9163 -992.147 149.667ZM-992.152 450.542C-992.8 368.347 -1059.54 301.917 -1141.78 301.917C-1224.01 301.917 -1290.75 368.347 -1291.4 450.542H-992.152ZM-84.7054 451.75C-84.0574 369.555 -17.3161 303.125 64.9203 303.125C147.157 303.125 213.898 369.555 214.546 451.75H-84.7054ZM366.595 -305.167L514.524 -453.292H218.67L366.595 -305.167ZM366.595 151.375L217.464 300.708L366.595 450.041L515.73 300.708L366.595 151.375ZM-929.298 -391.566C-929.298 -392.233 -928.758 -392.775 -928.092 -392.775H-752.114C-751.448 -392.775 -750.907 -392.233 -750.907 -391.566V-215.35C-750.907 -214.683 -751.448 -214.142 -752.114 -214.142H-928.092C-928.758 -214.142 -929.298 -214.683 -929.298 -215.35V-391.566ZM-926.885 -390.358V-216.559H-753.321V-390.358H-926.885ZM277.399 -240.525C277.399 -241.192 277.94 -241.733 278.606 -241.733H454.587C455.251 -241.733 455.794 -241.192 455.794 -240.525V-64.3087C455.794 -63.6417 455.251 -63.1003 454.587 -63.1003H278.606C277.94 -63.1003 277.399 -63.6417 277.399 -64.3087V-240.525ZM279.813 -239.316V-65.517H453.38V-239.316H279.813ZM-929.298 212.6C-929.298 211.933 -928.758 211.392 -928.092 211.392H-752.114C-751.448 211.392 -750.907 211.933 -750.907 212.6V388.816C-750.907 389.483 -751.448 390.025 -752.114 390.025H-928.092C-928.411 390.025 -928.718 389.897 -928.945 389.671C-929.17 389.443 -929.298 389.136 -929.298 388.816V212.6ZM-926.885 213.809V387.608H-753.321V213.809H-926.885ZM-325.949 213.809C-325.949 213.142 -325.409 212.6 -324.743 212.6H-148.765C-148.099 212.6 -147.558 213.142 -147.558 213.809V390.025C-147.558 390.692 -148.099 391.233 -148.765 391.233H-324.743C-325.062 391.233 -325.369 391.105 -325.596 390.879C-325.821 390.652 -325.949 390.345 -325.949 390.025V213.809ZM-323.536 215.017V388.816H-149.972V215.017H-323.536ZM1182.42 213.809C1182.42 213.142 1182.96 212.6 1183.63 212.6H1359.61C1360.27 212.6 1360.82 213.142 1360.82 213.809V390.025C1360.82 390.692 1360.27 391.233 1359.61 391.233H1183.63C1183.31 391.233 1183 391.105 1182.78 390.879C1182.55 390.652 1182.42 390.345 1182.42 390.025V213.809ZM1184.83 215.017V388.816H1358.4V215.017H1184.83ZM518.638 451.75H817.9C817.248 369.555 750.505 303.125 668.269 303.125C586.033 303.125 519.29 369.555 518.638 451.75Z" fill="#808080"/>
</g>
</g>
</g>
</svg>
