<svg width="143" height="47" viewBox="0 0 143 47" fill="none" xmlns="http://www.w3.org/2000/svg">
<mask id="mask0_1_98" style="mask-type:luminance" maskUnits="userSpaceOnUse" x="0" y="0" width="143" height="47">
<path d="M142.872 0.407227H0.570801V46.7178H142.872V0.407227Z" fill="white"/>
</mask>
<g mask="url(#mask0_1_98)">
<path fill-rule="evenodd" clip-rule="evenodd" d="M-0.556317 6.86433V13.0477H1.99584H4.54799V6.86433V0.680969H1.99584H-0.556317V6.86433ZM12.3541 19.0914C8.26823 23.1917 8.12348 23.359 7.62874 24.5785C7.01091 26.0972 7.03137 28.1563 7.67816 29.7147C8.14877 30.8487 8.49635 31.2476 12.4809 35.2278L16.2735 39.0173L18.0075 37.2831L19.7415 35.5489L15.9863 31.7782C12.003 27.7768 12.0464 27.8286 12.0464 27.0899C12.0464 26.3513 12.003 26.403 15.9863 22.4018L19.7403 18.6315L18.028 16.9166C17.0856 15.9736 16.2964 15.2019 16.2723 15.2019C16.2493 15.2019 14.4863 16.9523 12.3541 19.0914ZM131.255 15.9283C127.953 16.5842 125.394 18.9763 124.538 22.2066C124.359 22.8822 124.333 23.1438 124.331 24.2576C124.33 25.3895 124.354 25.6245 124.542 26.332C125.026 28.1577 126.167 29.9109 127.547 30.9475C128.233 31.4641 130.417 32.7071 130.495 32.6256C130.572 32.5445 132.805 28.7126 132.862 28.5645C132.885 28.5042 132.472 28.2228 131.798 27.8378C129.902 26.7568 129.296 25.9537 129.234 24.4444C129.208 23.807 129.234 23.5832 129.378 23.1479C130.228 20.5945 133.47 19.8822 135.356 21.8347C135.548 22.0336 135.868 22.5343 136.101 23.0009L136.509 23.8187H139.126C140.566 23.8187 141.743 23.804 141.743 23.7861C141.743 23.7681 141.56 23.2924 141.336 22.7289C140.364 20.2967 139.771 19.2975 138.66 18.231C137.837 17.4408 137.306 17.0738 136.296 16.5969C135.121 16.0424 134.502 15.9084 132.97 15.8765C132.246 15.8615 131.474 15.8848 131.255 15.9283ZM106.966 16.0131C101.875 16.3996 97.67 20.3009 96.8736 25.3745C96.7083 26.4297 96.7494 28.3794 96.9557 29.3239C97.8885 33.5828 100.978 36.8182 105.113 37.8684C108.862 38.8206 112.802 37.7818 115.57 35.111C116.919 33.8094 117.844 32.3636 118.405 30.6764C118.874 29.2636 118.971 28.6547 118.969 27.0899C118.969 25.5127 118.857 24.8018 118.395 23.4597C117.818 21.784 116.928 20.3899 115.628 19.1276C113.302 16.8696 110.231 15.7653 106.966 16.0131ZM-0.53702 27.1099L-0.516472 38.22L2.01513 38.241L4.54799 38.2621V27.1309V15.9997H1.99584H-0.557495L-0.53702 27.1099ZM34.9387 16.1281C33.493 16.3898 31.7964 17.0923 30.5511 17.9439C29.7595 18.4862 28.5818 19.6274 27.9471 20.4678C27.3196 21.2998 26.4773 22.9736 26.2022 23.9384C25.781 25.4108 25.7666 25.6883 25.7666 32.2162L25.7654 38.2599H28.3139H30.8637L30.8914 32.2162C30.9167 26.8676 30.9348 26.1151 31.0543 25.6744C31.683 23.3321 33.5353 21.6228 35.8968 21.2043L36.5822 21.0826L37.8359 18.6305L39.0885 16.1783L38.8689 16.1235C38.747 16.0933 37.9663 16.0544 37.1324 16.0371C35.9993 16.0134 35.4455 16.0365 34.9387 16.1281ZM50.6921 16.1279C49.2187 16.3909 47.6633 17.0246 46.3456 17.8984C45.9631 18.152 45.2813 18.7317 44.7841 19.2283C43.137 20.8702 42.1776 22.6521 41.6696 25.0155C41.4645 25.9693 41.4645 28.2105 41.6696 29.1643C42.1475 31.3859 43.0863 33.1967 44.5693 34.756C46.2092 36.4794 48.4211 37.66 50.7512 38.0554C51.7407 38.2232 53.418 38.2271 54.4316 38.0639C58.5356 37.4032 61.9663 34.4315 63.2393 30.4338C63.5857 29.3455 63.7341 28.3436 63.7341 27.0899C63.7341 24.8185 63.1428 22.8368 61.9108 20.9771C61.0238 19.639 60.0729 18.6936 58.6961 17.7832C57.423 16.9414 55.9437 16.3607 54.4618 16.1201C53.5351 15.9699 51.5549 15.9741 50.6921 16.1279ZM78.3714 16.1114C74.2167 16.9027 70.9791 19.6939 69.6771 23.6064C69.1172 25.2883 69.1196 25.2377 69.1184 32.0765V38.22H71.6705H74.2227L74.2637 32.0765L74.3036 25.9331L74.4894 25.3745C75.1615 23.3509 76.7266 21.8448 78.7298 21.2943C79.4441 21.0978 81.0453 21.0956 81.7585 21.2901C83.7665 21.8377 85.3171 23.3302 86.0001 25.3745L86.1859 25.9331L86.2269 32.0765L86.2679 38.22H88.8202H91.3723V32.0765C91.3723 26.5049 91.3591 25.8625 91.2299 25.1751C90.4987 21.3007 87.9176 18.1658 84.2637 16.7137C82.9858 16.2061 82.1954 16.0638 80.4843 16.0331C79.4127 16.0138 78.7563 16.0382 78.3714 16.1114ZM53.8259 21.233C55.6022 21.6 57.1637 22.8012 57.9516 24.4065C58.4524 25.4272 58.5851 25.9849 58.5851 27.0899C58.5851 28.1957 58.4524 28.7526 57.9504 29.7764C57.16 31.3862 55.6094 32.5784 53.8259 32.9468C51.8409 33.357 49.8933 32.7708 48.4151 31.3185C47.107 30.0343 46.4977 28.3235 46.6774 26.4523C46.809 25.1017 47.4123 23.8546 48.4163 22.8613C49.88 21.4139 51.8421 20.8232 53.8259 21.233ZM108.99 21.2212C110.228 21.4581 111.186 21.9751 112.111 22.904C112.838 23.6345 113.199 24.1974 113.519 25.1011C113.977 26.3973 113.977 27.7824 113.519 29.0786C113.194 29.9965 112.836 30.5518 112.071 31.3204C110.996 32.4029 109.732 32.9675 108.2 33.0513C105.377 33.2054 102.871 31.3962 102.088 28.6412C101.834 27.7491 101.836 26.4292 102.089 25.5341C102.391 24.4737 102.838 23.7193 103.656 22.898C104.208 22.3438 104.522 22.1012 105.012 21.8507C106.396 21.1441 107.595 20.9543 108.99 21.2212ZM134.281 32.0082C133.626 33.1322 133.081 34.092 133.07 34.1412C133.058 34.1905 133.567 34.5272 134.199 34.8897C135.539 35.6579 135.966 36.0499 136.385 36.8969C136.673 37.4808 136.679 37.5136 136.679 38.4152C136.679 39.2869 136.664 39.3664 136.423 39.8762C135.737 41.3277 134.152 42.1835 132.628 41.9262C131.355 41.7115 130.43 40.9623 129.801 39.6361L129.45 38.8983H126.824H124.197L124.385 39.3969C125.384 42.0449 126.216 43.4933 127.344 44.5485C131.232 48.1864 137.38 47.4476 140.283 42.9935C140.801 42.1995 141.138 41.4257 141.404 40.4183C141.575 39.771 141.606 39.4757 141.608 38.4594C141.613 37.1167 141.515 36.5507 141.077 35.3854C140.641 34.2193 140.14 33.4645 139.151 32.475C138.261 31.5834 138.144 31.5027 135.837 30.1742L135.472 29.9648L134.281 32.0082Z" fill="#808080"/>
</g>
</svg>
