<svg width="153" height="38" viewBox="0 0 153 38" fill="none" xmlns="http://www.w3.org/2000/svg">
<mask id="mask0_1_125" style="mask-type:luminance" maskUnits="userSpaceOnUse" x="0" y="0" width="153" height="38">
<path d="M152.607 0.892456H0.261353V37.9409H152.607V0.892456Z" fill="white"/>
</mask>
<g mask="url(#mask0_1_125)">
<path d="M79.5607 38.4177C72.4943 38.4177 72.0551 34.4339 73.3607 29.9062H79.0684C78.5133 32.4051 78.1597 34.5051 81.2972 34.5051C83.2255 34.5051 84.4346 33.3113 84.8292 31.5351C85.873 26.8262 74.4492 26.5374 76.1771 18.7485C77.0846 14.656 79.8491 11.396 86.8021 11.396C92.3589 11.396 94.5865 13.7858 92.9949 19.2572H87.4392C87.8736 17.3 87.9762 15.3079 85.6714 15.3079C83.8192 15.3079 82.5063 16.2867 82.1044 18.0962C81.0027 23.0586 92.587 22.6236 90.7625 30.8475C89.2589 37.6214 83.906 38.4177 79.5607 38.4177ZM112.924 37.9827L118.728 11.831H133.617L132.724 15.852H123.541L122.111 22.2998H130.575L129.683 26.3199H121.217L119.523 33.9638H129.009L128.117 37.9827H112.924ZM107.371 22.2998L109.696 11.8305H115.402L109.598 37.9851H103.894L106.482 26.3199H99.943L97.3547 37.9851H91.647L97.45 11.8305H103.158L100.835 22.2998H107.371ZM64.804 19.2573L55.2373 37.9851H49.4838L62.8455 11.831H70.3657L71.9706 37.9851H65.9576L64.804 19.2573ZM145.399 11.8288C152.881 11.8288 153.22 16.6108 151.411 24.7611C150.519 28.7849 149.12 37.9827 139.368 37.9827H130.073C132.007 29.2646 133.942 20.5461 135.876 11.8288H145.399ZM145.597 24.9074C146.665 20.0894 147.608 15.8517 143.639 15.8517H140.69C139.351 21.8889 138.012 27.9246 136.671 33.9638H139.43C142.907 33.9638 144.142 31.4626 145.597 24.9074ZM48.1262 37.9851H42.421L45.0081 26.3211H38.469L35.8819 37.9851H30.173L35.9784 11.8312H41.6837L39.3608 22.2998H45.8999L48.2216 11.8312H53.9269L48.1262 37.9851ZM18.8192 22.2998L20.2491 15.8519H13.7136L12.2813 22.2998H18.8192ZM31.6609 15.8519H25.9568L24.5269 22.2998H30.2309L29.3392 26.3211H23.6351L21.0443 37.9851H15.3403L17.9274 26.3211H11.3896L8.80118 37.9851H3.09592L5.68307 26.3211H-0.0197754L0.871972 22.2998H6.57482L8.00477 15.8519H2.30071L3.19365 11.8312H8.89772L11.2194 1.36914H16.9247L14.6042 11.8312H21.1433L23.4638 1.36914H29.1702L26.8498 11.8312H32.5538L31.6609 15.8519Z" fill="#808080"/>
</g>
</svg>
