<svg width="170" height="51" viewBox="0 0 170 51" fill="none" xmlns="http://www.w3.org/2000/svg">
<mask id="mask0_1_130" style="mask-type:luminance" maskUnits="userSpaceOnUse" x="0" y="0" width="170" height="51">
<path d="M169.952 0.548096H0.565308V50.3023H169.952V0.548096Z" fill="white"/>
</mask>
<g mask="url(#mask0_1_130)">
<path d="M144.764 3.03859C143.897 4.14434 143.069 5.64485 142.911 6.3951C142.753 7.30329 142.438 7.73768 142.004 7.73768C141.294 7.73768 140.388 8.44842 140.388 9.00124C140.388 9.15916 140.939 9.31721 141.57 9.31721H142.753V14.2531C142.753 19.1891 142.753 19.1891 141.767 19.4259C139.795 19.8998 140.861 20.3737 143.937 20.3737C146.46 20.3737 147.091 20.2552 147.091 19.7814C147.091 19.4259 146.736 19.1891 146.105 19.1891H145.119V9.31721H150.64V14.2136C150.64 18.7942 150.6 19.1495 149.852 19.3865C148.195 19.8998 149.181 20.3737 152.02 20.3737C154.938 20.3737 155.924 19.8998 153.992 19.4259L153.006 19.1891V1.02478H146.381L144.764 3.03859ZM150.64 5.56582V8.13256H145.119V6.43461C145.119 4.14434 145.711 3.47299 147.88 3.27554C148.865 3.19664 149.891 3.11762 150.167 3.0781C150.482 3.03859 150.64 3.74945 150.64 5.56582Z" fill="#808080"/>
<path d="M56.865 1.85649C56.9833 2.17234 57.5347 2.44882 58.0874 2.52772L59.1517 2.64614V19.0729L57.9692 19.3099C57.3381 19.4678 56.7854 19.7443 56.7854 19.9812C56.7854 20.613 65.7765 20.4945 67.9847 19.8232C70.4295 19.0729 72.3626 17.5724 73.4269 15.5191C74.1365 14.1765 74.3344 13.2288 74.3344 10.5042C74.3344 6.35801 73.3485 4.30469 70.6274 2.68565C68.9706 1.69844 68.4578 1.65905 62.7803 1.501C57.7326 1.34307 56.7069 1.42209 56.865 1.85649ZM68.576 3.90981C73.3871 7.10827 72.5593 16.7827 67.315 18.7571C66.0926 19.2309 63.8047 19.3099 62.4243 18.9545C61.518 18.7176 61.5181 18.6781 61.5181 10.9386C61.5181 6.63447 61.6363 3.00163 61.833 2.84358C62.4641 2.17235 67.0387 2.88309 68.576 3.90981Z" fill="#808080"/>
<path d="M0.00299072 2.68647C0.041605 3.19977 0.554477 5.88493 1.14576 8.72802C1.97476 12.5188 2.40795 13.822 2.80254 13.743C3.11749 13.6639 7.69209 11.7686 12.9364 9.47828C18.2217 7.22751 22.6383 5.37164 22.7167 5.37164C22.7951 5.37164 22.8747 11.9266 22.8747 19.982V34.5928H25.6345L25.7141 20.061L25.8324 5.49005L35.8878 9.71523C41.4084 12.045 45.983 13.9404 46.0216 13.8614C46.1399 13.822 48.5062 2.29159 48.5062 1.93622C48.5062 1.89671 37.5832 1.81769 24.254 1.81769H0.00299072V2.68647ZM18.8914 4.34492C18.813 4.42394 15.421 5.92444 11.3206 7.66191C4.26146 10.7024 3.94648 10.7815 3.74858 9.99169C3.03905 6.79311 2.76273 5.49005 2.76273 4.85833C2.76273 4.2265 3.39381 4.18699 10.926 4.18699C15.3824 4.18699 18.9699 4.26601 18.8914 4.34492ZM45.6283 5.05577C45.51 5.56907 45.1938 6.99056 44.9175 8.21472C44.6424 9.47828 44.2864 10.505 44.0897 10.505C43.7349 10.505 29.4995 4.62138 29.2232 4.34492C29.1448 4.26601 32.8119 4.18699 37.4251 4.18699H45.8249L45.6283 5.05577Z" fill="#808080"/>
<path d="M82.2599 8.92162C81.4719 9.79041 80.7612 10.5012 80.643 10.5012C80.5247 10.5012 80.4462 9.86932 80.4462 9.11906C80.4462 7.57904 80.2496 7.53965 78.0401 8.21088C76.3447 8.68478 75.8717 9.71138 77.4886 9.39553L78.4745 9.2376V14.1735C78.4745 19.1094 78.4745 19.1094 77.4886 19.3464C75.4384 19.8597 76.5812 20.373 79.855 20.373C82.4964 20.373 83.206 20.2546 83.206 19.8202C83.206 19.4648 82.7329 19.1883 81.945 19.1094L80.643 18.9909L80.4064 12.594L81.8267 11.3304C82.6147 10.6196 83.7985 9.98786 84.4296 9.82993C85.3756 9.67188 85.5723 9.43505 85.5723 8.48723C85.5723 6.74989 84.035 6.94733 82.2599 8.92162Z" fill="#808080"/>
<path d="M89.0428 8.41302C87.1893 9.2423 86.7549 9.63718 86.7549 10.3874C86.7549 11.1377 86.9528 11.2956 87.9387 11.2956C88.8449 11.2956 89.1212 11.1377 89.1212 10.5059C89.1212 9.71609 90.4232 8.92632 91.6842 8.92632C92.6315 8.92632 93.4593 10.111 93.4593 11.4931C93.4593 12.7961 93.4195 12.8356 90.3436 13.8624C87.9785 14.652 87.1495 15.0864 86.7947 15.8762C86.0852 17.4557 86.2818 18.3639 87.5042 19.6274C88.9245 21.049 90.0286 21.0886 91.7241 19.7854C93.3012 18.6008 93.7356 18.5613 94.0506 19.6274C94.2871 20.2988 94.5236 20.4172 95.5095 20.2198C96.1804 20.1013 96.8501 19.9829 97.048 19.9829C97.2447 19.9829 97.4028 19.7065 97.4028 19.3906C97.4028 19.0746 97.048 18.7983 96.6534 18.7983C95.5891 18.7983 95.431 18.0874 95.431 13.3095C95.431 10.4663 95.273 8.84742 94.9182 8.37351C94.0904 7.22837 91.6058 7.22837 89.0428 8.41302ZM93.4593 15.5998C93.4593 17.5346 92.0004 18.9167 90.1469 18.7193C89.0826 18.6008 88.9245 18.4429 88.8063 17.3372C88.688 16.1131 88.8063 15.9946 90.778 15.0864C91.9208 14.5731 92.9863 14.0992 93.183 14.0992C93.341 14.0598 93.4593 14.7705 93.4593 15.5998Z" fill="#808080"/>
<path d="M101.819 8.17416C98.8219 9.67467 98.0737 12.6757 100.202 14.7685L101.385 15.9532L100.202 16.8218C98.7434 17.809 98.665 18.4804 99.8476 19.665L100.675 20.4942L99.453 21.5603C97.5609 23.1399 97.8759 25.3907 100.044 26.2198C102.569 27.1677 103.988 27.0887 106.472 25.8645C109.272 24.4429 110.416 23.1399 110.416 21.3235C110.416 19.3491 109.312 18.7963 105.486 18.7963C101.583 18.7963 100.952 18.4804 101.977 17.0588C102.411 16.506 103.082 16.0322 103.476 16.0322C104.737 16.0322 107.616 14.4527 108.129 13.5445C108.405 13.0706 108.681 11.9649 108.799 11.0961C108.997 9.83259 109.233 9.47722 109.943 9.3982C110.574 9.27978 110.81 9.00331 110.81 8.29257C110.81 7.18695 109.864 7.02902 108.799 7.97672C108.129 8.56904 107.971 8.56904 106.709 7.97672C104.935 7.14744 103.869 7.18695 101.819 8.17416ZM104.699 8.76648C106.434 9.43771 107.064 13.2285 105.605 14.2157C104.344 15.0844 103.436 15.0055 102.332 13.8603C100.084 11.649 101.898 7.70024 104.699 8.76648ZM107.931 21.4024C108.72 23.4558 105.763 25.825 103.082 25.3116C101.741 25.0748 100.164 23.9295 100.164 23.1794C100.164 23.0214 100.518 22.3896 100.992 21.7973C101.741 20.8496 102.016 20.7707 104.737 20.7707C107.103 20.7707 107.735 20.8891 107.931 21.4024Z" fill="#808080"/>
<path d="M115.267 8.36988C111.835 10.0678 110.652 13.8586 112.427 17.4915C113.334 19.3869 115.463 20.769 117.395 20.769C119.012 20.7294 121.537 19.4659 122.68 18.0838C125.282 15.0433 124.02 9.3966 120.433 7.89609C118.578 7.10632 117.553 7.18523 115.267 8.36988ZM119.525 9.43599C122.206 11.213 122.561 16.1489 120.235 18.5182C119.249 19.4659 118.854 19.6238 117.83 19.4264C116.291 19.1105 115.187 18.1628 114.517 16.5438C113.412 13.9771 114.123 10.4627 115.976 9.15964C117.199 8.29085 117.948 8.36987 119.525 9.43599Z" fill="#808080"/>
<path d="M131.712 8.486L129.938 9.71017L129.583 8.80198C129.345 8.32807 129.149 7.85428 129.07 7.77526C128.872 7.49891 125.403 8.60454 125.403 8.95991C125.403 9.15735 125.836 9.31528 126.389 9.31528H127.375V14.2512C127.375 19.1871 127.375 19.1871 126.389 19.4241C124.614 19.8585 125.796 20.3718 128.596 20.3718C131.239 20.3718 132.146 19.898 130.529 19.3846C129.82 19.1477 129.74 18.7924 129.74 15.12V11.0923L131.475 10.105C132.974 9.31528 133.368 9.23638 134.236 9.63126C135.261 10.0655 135.261 10.1446 135.261 14.6066C135.261 18.2394 135.142 19.1477 134.669 19.3452C133.21 19.898 134.236 20.3718 136.839 20.3718C139.559 20.3718 140.545 19.819 138.653 19.3452C137.707 19.1082 137.707 19.0292 137.548 14.0538C137.43 8.36758 137.194 7.85428 134.827 7.49891C133.763 7.34086 133.092 7.57782 131.712 8.486Z" fill="#808080"/>
<path d="M154.978 9.27688C154.978 9.47432 155.373 9.71116 155.807 9.79018C156.517 9.86921 157.029 10.8958 158.725 15.2789C159.829 18.2405 160.893 20.8467 161.051 21.0836C161.17 21.3205 160.815 22.3077 160.223 23.2949C159.356 24.7165 158.883 25.0717 158.054 25.1114C157.108 25.1114 156.95 25.2692 156.95 26.2959C156.95 27.4016 157.029 27.4805 158.488 27.4805H159.987L161.801 23.4134C162.747 21.202 164.403 17.2138 165.428 14.5287C166.887 10.6984 167.44 9.71115 168.031 9.71115C168.425 9.71115 168.78 9.51371 168.78 9.31627C168.78 9.07944 167.716 8.92151 166.414 8.92151C165.113 8.92151 164.049 9.07944 164.049 9.31627C164.049 9.51371 164.324 9.71115 164.68 9.71115C165.073 9.71115 165.191 9.94811 165.073 10.422C164.916 10.8169 164.245 12.8702 163.536 15.042L162.234 18.9118L160.775 14.7656C159.08 9.98762 159.04 9.71115 160.105 9.71115C160.538 9.71115 160.893 9.51371 160.893 9.31627C160.893 9.07944 159.632 8.92151 157.936 8.92151C156.32 8.92151 154.978 9.07944 154.978 9.27688Z" fill="#808080"/>
<path d="M11.8287 46.4393H36.6721V21.5618H30.3635V22.9439C30.3635 24.3258 30.3635 24.3258 32.1374 24.3258H33.9124V43.6746H14.195V24.3258H18.1385V21.5618H11.8287V46.4393Z" fill="#808080"/>
<path d="M63.9254 26.2601C59.7056 27.7606 57.6156 30.2875 57.2994 34.3547C56.9845 38.0667 57.694 40.278 59.9023 42.4892C62.7416 45.3324 65.6208 45.8858 69.9191 44.425C72.8368 43.4764 73.1916 43.161 73.5078 41.1866C73.7443 39.9227 73.6658 39.7258 73.0347 39.7258C72.6003 39.7258 72.0489 40.2393 71.6543 41.1069C70.7867 42.9242 69.3278 43.793 67.2764 43.7531C63.0578 43.7133 59.9421 40.0013 59.9421 35.0664C59.9421 32.1435 60.5334 30.4059 61.9923 28.7879C64.7134 25.9048 70.234 26.4181 71.6145 29.6954C72.4423 31.6698 73.3497 31.4728 73.3497 29.2616C73.3497 27.6028 73.2713 27.4447 71.7327 26.655C69.4062 25.4703 66.527 25.3125 63.9254 26.2601Z" fill="#808080"/>
<path d="M132.029 25.9852C130.334 26.4193 129.978 27.4857 131.516 27.4857H132.502V35.5413C132.502 43.5175 132.502 43.6359 131.634 43.7543C131.161 43.8329 130.727 44.1096 130.609 44.3464C130.49 44.7415 131.24 44.86 133.448 44.86C136.484 44.86 137.826 44.228 135.696 43.8329L134.474 43.596V34.5541C134.474 27.5646 134.355 25.5112 134.001 25.5507C133.724 25.5903 132.817 25.7877 132.029 25.9852Z" fill="#808080"/>
<path d="M103.713 29.6954C103.713 31.0379 103.752 31.0765 105.013 30.9593C106.118 30.8397 106.276 30.6826 106.394 29.5371C106.512 28.3131 106.472 28.2732 105.132 28.2732C103.752 28.2732 103.713 28.3131 103.713 29.6954Z" fill="#808080"/>
<path d="M111.993 29.8066C111.795 30.2404 111.598 30.9521 111.598 31.3859C111.598 31.978 111.282 32.1761 110.336 32.2945C108.523 32.4528 108.246 33.7953 109.981 33.7953H111.204V38.8884C111.204 43.7459 111.244 44.0613 112.071 44.6147C113.294 45.4835 114.32 45.4038 116.133 44.2595C117.829 43.2324 117.789 43.1538 115.344 43.114L113.767 43.0741L113.53 33.7953H115.542C117.041 33.7953 117.514 33.637 117.514 33.202C117.514 32.7682 117.041 32.6099 115.542 32.6099H113.57V30.8337C113.57 28.8979 112.781 28.3856 111.993 29.8066Z" fill="#808080"/>
<path d="M78.2006 32.9349C76.5836 33.7252 76.1106 34.1589 76.1106 34.8694C76.1106 36.2119 77.9641 36.1732 78.3188 34.7909C78.4769 34.0804 78.9101 33.7638 79.896 33.5669C81.7495 33.2116 82.4988 33.9221 82.3408 35.8965L82.2225 37.4758L79.4628 38.4232C77.9641 38.9367 76.4653 39.6484 76.2288 40.0037C75.4397 41.0295 75.5977 43.1622 76.5052 44.0709C77.9243 45.4919 79.1466 45.4919 81.0399 44.1096L82.7752 42.8469L83.0503 43.9126C83.2868 44.8213 83.4449 44.8998 84.5104 44.7017C85.1403 44.5832 85.9295 44.4648 86.2058 44.4648C87.112 44.4648 86.8369 43.6758 85.8112 43.2807C84.9038 42.9653 84.8652 42.7671 84.7469 38.1477C84.5889 33.6454 84.5104 33.2902 83.6428 32.5797C82.3806 31.5526 80.6454 31.671 78.2006 32.9349ZM82.4204 40.2405C82.4204 41.7014 82.2623 42.0167 81.2765 42.6088C79.6197 43.5574 78.5554 43.4776 78.0039 42.2935C77.6093 41.4645 77.6479 41.1479 78.2006 40.5957C78.7134 40.1221 81.3947 38.7796 82.3408 38.5814C82.3806 38.5416 82.4204 39.2919 82.4204 40.2405Z" fill="#808080"/>
<path d="M93.0636 32.9724C91.6047 34.1976 91.0918 34.1976 91.0918 32.9724C91.0918 32.1048 90.737 32.0649 88.6868 32.6969C86.9516 33.2092 86.6753 33.8025 88.1342 33.8025H89.1201V49.9918H88.1342C87.5827 49.9918 87.1483 50.15 87.1483 50.3869C87.1483 50.6237 88.6084 50.782 90.6984 50.782C92.7884 50.782 94.2473 50.6237 94.2473 50.3869C94.2473 50.15 93.6162 49.9918 92.8668 49.9918H91.4864V45.0557H93.5764C97.5597 45.017 99.8464 42.8058 100.083 38.8171C100.281 35.737 99.5314 33.7228 97.7166 32.6171C95.9427 31.5514 94.6805 31.6299 93.0636 32.9724ZM97.007 35.0652C97.9929 36.6844 98.0725 40.3964 97.2049 42.134C96.1792 44.1084 93.8925 44.5035 92.1959 42.9629C91.6046 42.4892 91.4864 41.699 91.4864 38.9754C91.4864 35.6186 91.5262 35.5787 92.7884 34.6713C94.6407 33.3675 96.061 33.5258 97.007 35.0652Z" fill="#808080"/>
<path d="M120.988 32.8915C119.134 33.7204 118.7 34.1155 118.7 34.8659C118.7 35.6162 118.898 35.7733 119.844 35.7733C120.75 35.7733 121.026 35.5764 121.145 34.8659C121.342 33.5621 124.064 32.9313 124.852 33.9971C125.168 34.3922 125.404 35.2997 125.404 36.0114C125.404 37.2741 125.325 37.314 122.289 38.341C119.726 39.17 119.094 39.5651 118.7 40.4725C118.109 41.8947 118.542 43.474 119.764 44.4613C121.106 45.527 122.092 45.4485 123.669 44.2643C125.246 43.0789 125.679 43.039 125.996 44.106C126.232 44.7766 126.469 44.895 127.454 44.6981C128.125 44.5797 128.795 44.4613 128.992 44.4613C129.19 44.4613 129.348 44.1845 129.348 43.8692C129.348 43.5526 128.992 43.2771 128.598 43.2771C127.533 43.2771 127.376 42.5654 127.376 37.7876C127.376 34.9444 127.218 33.3252 126.863 32.8516C126.035 31.7061 123.551 31.7061 120.988 32.8915ZM125.404 40.0774C125.404 41.3812 125.206 41.7763 124.22 42.4868C123.511 43.0004 122.603 43.2771 121.974 43.1973C121.066 43.1188 120.83 42.882 120.75 41.7763C120.632 40.5523 120.75 40.4339 122.722 39.5252C123.866 39.0117 124.93 38.5779 125.128 38.5779C125.286 38.538 125.404 39.2485 125.404 40.0774Z" fill="#808080"/>
<path d="M103.043 32.692C101.466 33.2056 101.387 33.7191 102.846 33.8762L103.911 33.9946L104.029 38.8122C104.147 43.5114 104.108 43.6299 103.279 43.7483C102.767 43.828 102.333 44.1035 102.215 44.3404C102.097 44.7355 102.846 44.8539 105.094 44.8539C107.341 44.8539 108.091 44.7355 107.972 44.3404C107.854 44.1035 107.421 43.828 106.947 43.7483C106.119 43.6299 106.08 43.4728 106.08 37.9048C106.08 32.2582 106.08 32.2184 105.213 32.2582C104.7 32.2969 103.714 32.4951 103.043 32.692Z" fill="#808080"/>
</g>
</svg>
