<svg width="188" height="45" viewBox="0 0 188 45" fill="none" xmlns="http://www.w3.org/2000/svg">
<mask id="mask0_1_152" style="mask-type:luminance" maskUnits="userSpaceOnUse" x="0" y="0" width="188" height="45">
<path d="M187.016 0.041748H0.739746V44.8087H187.016V0.041748Z" fill="white"/>
</mask>
<g mask="url(#mask0_1_152)">
<path d="M-0.10498 20.1257L9.87443 15.2239L-0.10498 10.322V20.1257Z" fill="#808080"/>
<path d="M-0.10498 29.9289H29.8332V25.0279L19.8538 20.1255L-0.10498 29.9289Z" fill="#808080"/>
<path d="M-0.10498 0.518433L19.8538 10.3221L29.8332 5.42028V0.518433H-0.10498Z" fill="#808080"/>
<path d="M19.8538 10.3197L9.87439 15.2217L19.8538 20.1235L29.8331 25.0255V5.41785L19.8538 10.3197Z" fill="#808080"/>
<path d="M172.957 18.2849C172.11 18.2914 171.264 18.344 170.423 18.4424C168.873 18.6811 168.019 19.4583 168.019 20.8044C168.019 21.9728 168.8 22.6077 169.963 22.6077C171.556 22.6077 172.957 21.5461 172.957 19.4786V18.2849ZM168.883 25.2841C166.024 25.2841 164.229 23.5322 164.229 20.8602C164.229 18.4221 165.822 16.9338 168.464 16.3242C169.948 16.0445 171.457 15.9203 172.968 15.9533C172.968 13.8605 172.104 13.1494 169.891 13.1494C168.471 13.1761 167.072 13.5017 165.791 14.1043V11.2038C167.245 10.6151 168.805 10.318 170.377 10.3302C175.03 10.3302 176.711 12.3976 176.711 16.2937V22.0541H178.547V24.9651H173.376L173.092 23.5119H173.034C172.523 24.0911 171.886 24.5511 171.17 24.8587C170.456 25.1657 169.679 25.3131 168.898 25.2901L168.883 25.2841ZM122.182 18.2849C121.337 18.2914 120.492 18.344 119.654 18.4424C118.102 18.6811 117.249 19.4583 117.249 20.8044C117.249 21.9728 118.03 22.6077 119.188 22.6077C120.781 22.6077 122.182 21.5461 122.182 19.4786V18.2849ZM118.113 25.2841C115.253 25.2841 113.459 23.5322 113.459 20.8602C113.459 18.4221 115.051 16.9338 117.694 16.3242C119.177 16.0445 120.687 15.9203 122.198 15.9533C122.198 13.8605 121.335 13.1494 119.126 13.1494C117.706 13.1762 116.308 13.5018 115.026 14.1043V11.2038C116.48 10.6155 118.039 10.3185 119.613 10.3302C124.266 10.3302 125.951 12.3976 125.951 16.2937V22.0541H127.782V24.9651H122.611L122.317 23.5119H122.265C121.752 24.0902 121.115 24.5498 120.4 24.8575C119.684 25.1644 118.908 25.3119 118.129 25.2901L118.113 25.2841ZM64.7575 18.2849C63.9092 18.2914 63.0609 18.344 62.2186 18.4424C60.6668 18.6811 59.8197 19.4583 59.8197 20.8044C59.8197 21.9728 60.6052 22.6077 61.7636 22.6077C63.3565 22.6077 64.7575 21.5461 64.7575 19.4786V18.2849ZM60.6825 25.2901C57.8238 25.2901 56.0294 23.5373 56.0294 20.8654C56.0294 18.4271 57.6211 16.9388 60.2637 16.3292C61.748 16.0495 63.2576 15.9253 64.7671 15.9584C64.7671 13.8657 63.9092 13.1545 61.6912 13.1545C60.271 13.1807 58.8724 13.5063 57.5909 14.1094V11.2038C59.0449 10.6153 60.604 10.3183 62.1776 10.3302C66.8306 10.3302 68.5163 12.3976 68.5163 16.2937V22.0541H70.3517V24.9651H65.1811L64.8817 23.5119H64.8299C64.317 24.0906 63.6799 24.5502 62.9643 24.8575C62.2499 25.1656 61.4741 25.3131 60.6934 25.2901H60.6825ZM140.579 17.7566C140.579 15.0848 139.235 13.3068 137.156 13.3068C135.078 13.3068 133.759 15.1051 133.759 17.7313C133.759 20.3574 135.078 22.2064 137.078 22.2064C139.147 22.2064 140.584 20.4031 140.584 17.7516L140.579 17.7566ZM144.442 17.7516C144.442 22.2064 141.856 25.2841 138.102 25.2841C135.863 25.2841 134.54 24.4059 133.867 23.5067H133.795V29.5362L130.02 31.0599V13.4898H128.108V10.5791H133.501L133.743 12.4586H133.795C134.281 11.7169 135.413 10.3099 138.081 10.3099C141.991 10.3099 144.421 13.251 144.421 17.7566L144.442 17.7516ZM89.3283 10.3099C88.4232 10.2733 87.5242 10.4491 86.7025 10.8229C85.8819 11.1966 85.1628 11.7573 84.6077 12.4586H84.5497L84.3072 10.5791H78.6767V13.4898H80.7812V24.9651H84.5859V18.3154C84.5859 14.7596 86.4997 13.444 88.1445 13.444C89.6951 13.444 90.4083 14.4244 90.4083 16.6238V24.9651H94.1828V15.7756C94.1828 12.1741 92.5127 10.315 89.3077 10.315L89.3283 10.3099ZM106.592 21.8711C102.709 21.8711 100.419 19.3009 100.419 15.166C100.419 11.1379 102.709 8.41006 106.267 8.41006C107.128 8.40764 107.987 8.50479 108.826 8.69958V12.7633L112.202 11.3868V6.60166C110.447 5.62134 108.452 5.12798 106.432 5.17438C100.471 5.17438 96.4019 8.77581 96.4019 15.2168C96.4019 21.3124 100.021 25.2901 106.432 25.2901C108.469 25.2889 110.473 24.7947 112.27 23.8522L111.437 20.7282C109.94 21.4864 108.277 21.8785 106.592 21.8711ZM184.338 22.0591V4.28033L180.538 5.80428V24.9651H186.173V22.0541H184.338V22.0591ZM50.8382 19.1382C50.8382 17.2842 49.4626 16.2734 47.089 16.2734H43.4701V22.0286H47.1409C49.7836 22.0286 50.8636 20.8602 50.8636 19.1382H50.8382ZM43.4496 13.3881H46.5255C48.7132 13.3881 49.763 12.3722 49.763 10.9245C49.763 9.25335 48.7289 8.38468 46.7427 8.38468H43.4496V13.3881ZM54.8553 19.3313C54.8553 23.0648 51.8615 24.9445 47.3581 24.9445H39.5351V8.40498H37.1615V5.48927H46.7113C49.2973 5.48927 50.6005 5.83473 51.6238 6.46971C52.2814 6.87462 52.8197 7.44279 53.1829 8.11704C53.5461 8.79129 53.7211 9.54758 53.6921 10.3099C53.6921 12.3417 52.3997 13.9164 50.2952 14.4701V14.5259C53.1286 15.0035 54.8553 16.8321 54.8553 19.3516V19.3313ZM145.517 13.4898H147.585V24.9651H151.375V10.5791H145.517V13.4898ZM147.585 8.08501H151.375V4.56477H147.57V8.09009L147.585 8.08501ZM70.7137 13.4898H72.7821V24.9651H76.588V10.5791H70.7137V13.4898ZM72.7821 8.08501H76.588V4.56477H72.7821V8.09009V8.08501ZM159.323 10.5741H163.179V13.4898H159.323V19.8393C159.323 21.4292 159.674 22.3791 161.235 22.3791C161.817 22.3479 162.395 22.2681 162.962 22.1403V24.924C161.992 25.1656 160.996 25.301 159.995 25.3251C157.026 25.3251 155.542 23.9183 155.542 20.8196V13.4898H153.474V10.5791H155.542V8.11039L159.323 6.58644V10.5893V10.5741Z" fill="#808080"/>
<path d="M45.4985 35.683L43.1142 43.1046L40.7562 35.683H38.7458L41.9919 45.1056H44.1121L47.3593 35.683H45.4985Z" fill="#808080"/>
<path d="M48.9147 35.683V45.1056H55.2173V43.5915H50.8177V40.9199H54.778V39.4373H50.8177V37.1511H55.0785V35.683H48.9147Z" fill="#808080"/>
<path d="M63.4095 35.683V42.1693L59.3188 35.683H57.2771V45.1056H59.0762V38.2785L63.3781 45.1056H65.2087V35.683H63.4095Z" fill="#808080"/>
<path d="M66.7968 35.683V37.1511H69.5468V45.1056H71.4402V37.1511H74.1697V35.683H66.7968Z" fill="#808080"/>
<path d="M81.4292 35.683H83.3322V41.367C83.3322 42.6321 83.1354 43.49 82.4886 44.2017C81.843 44.9122 80.9381 45.2578 79.5105 45.2578C78.0842 45.2578 77.1683 44.9183 76.5324 44.2017C75.8965 43.4852 75.6744 42.6418 75.6744 41.3827V35.683H77.5774V41.4733C77.5774 42.2914 77.6703 42.6623 77.9708 42.997C78.3859 43.3801 78.9337 43.5927 79.5033 43.5927C80.0728 43.5927 80.6207 43.3801 81.0358 42.997C81.3411 42.6418 81.4292 42.2708 81.4292 41.4733V35.683Z" fill="#808080"/>
<path d="M90.1258 37.4218C89.7626 37.191 89.333 37.0811 88.901 37.1076H87.5567V40.0487H88.8853C89.3221 40.0753 89.7566 39.9654 90.1258 39.7334C90.3044 39.5968 90.4492 39.4204 90.5481 39.221C90.6471 39.0204 90.699 38.8005 90.699 38.5782C90.699 38.3546 90.6471 38.1359 90.5481 37.9354C90.4492 37.7348 90.3044 37.5596 90.1258 37.4218ZM90.9838 45.108L88.7453 41.4456H87.5507V45.108H85.6538V35.6854H89.1122C89.9665 35.6347 90.8137 35.857 91.5268 36.3198C91.9262 36.6352 92.2315 37.0496 92.4089 37.5209C92.5874 37.9921 92.6333 38.5009 92.5404 38.9963C92.4475 39.4905 92.2206 39.9509 91.8828 40.3279C91.5449 40.7061 91.1093 40.9864 90.623 41.1411L93.1607 45.1032H90.9838V45.108Z" fill="#808080"/>
<path d="M94.8405 35.683V45.1056H101.138V43.5915H96.7434V40.9199H100.704V39.4373H96.7434V37.1511H101.004V35.683H94.8405Z" fill="#808080"/>
<path d="M105.872 45.2385C104.55 45.2385 103.278 44.7334 102.326 43.8319L103.276 42.5112C103.975 43.1819 104.89 43.5915 105.862 43.6688C106.994 43.6688 107.569 43.2266 107.569 42.5112C107.569 41.7947 106.86 41.5349 106.478 41.3827C106.095 41.2304 104.88 40.8039 104.621 40.7024C104.085 40.5465 103.614 40.2227 103.28 39.7816C102.946 39.3394 102.767 38.8041 102.77 38.2543C102.77 37.0351 103.644 35.5367 106.214 35.5367C107.408 35.5404 108.558 35.9838 109.435 36.7813L108.619 38.0609C107.944 37.4495 107.073 37.0895 106.157 37.0447C105.175 37.0447 104.606 37.4 104.606 38.102C104.606 38.8029 105.304 39.0518 105.64 39.1992C105.976 39.3466 107.191 39.7623 107.465 39.8698C108.897 40.3773 109.429 41.292 109.429 42.3433C109.429 43.6942 108.447 45.2844 105.811 45.2844" fill="#808080"/>
</g>
</svg>
