<svg width="86" height="37" viewBox="0 0 86 37" fill="none" xmlns="http://www.w3.org/2000/svg">
<g clip-path="url(#clip0_63_1500)">
<path d="M11.3342 16.5075L8.76689 15.2794H28.2283C29.0257 15.2794 29.7462 14.7981 30.0594 14.0564L31.6995 10.1701L12.798 10.168C9.6172 10.168 6.74172 12.0815 5.48337 15.0362L0.322339 27.299C-0.795471 29.9557 1.13127 32.9046 3.98606 32.9046H20.7895C21.5871 32.9046 22.3076 32.4233 22.6208 31.6816L24.2913 27.7239H6.60546L11.3342 16.5082V16.5075Z" fill="white"/>
<path d="M65.5427 10.1685C62.3456 10.1685 59.4587 12.1022 58.2111 15.08L57.3779 17.0693L56.7829 18.4872C55.668 21.1433 57.5955 24.0885 60.448 24.0885H61.9119H73.8603L72.326 27.7244H54.2092C53.413 27.7244 52.694 28.2035 52.3801 28.9432L50.6966 32.9051H71.1547C74.3448 32.9051 77.2265 30.98 78.4785 28.0124L79.978 24.4587C81.0993 21.802 79.1719 18.8502 76.3163 18.8502H62.9169L63.9006 16.5094L61.3968 15.2806H82.5345C83.3334 15.2806 84.0547 14.7979 84.3671 14.0547L86 10.1692H65.5434L65.5427 10.1685Z" fill="white"/>
<path d="M59.6008 4.987C59.5829 4.987 59.5679 4.97185 59.5679 4.95381C59.5694 4.82826 59.5729 4.38379 59.5736 4.30009C59.5736 4.18464 59.4937 4.09156 59.3939 4.09156C59.3361 4.09156 59.2846 4.12331 59.2512 4.17239C59.2341 4.19692 59.0294 4.49924 58.9032 4.68469C58.896 4.69478 58.8853 4.70055 58.8731 4.70055H48.8991C48.86 4.70055 48.8279 4.6688 48.8271 4.62911L48.8072 4.35638C48.8065 4.3102 48.8478 4.27412 48.8927 4.28277L49.4027 4.33184C49.447 4.33545 49.4869 4.30659 49.4976 4.2633L49.8693 2.73867C49.8772 2.70332 49.8578 2.66723 49.8244 2.65497L49.4792 2.52437C49.4592 2.51643 49.4441 2.49984 49.4391 2.47891C49.3764 2.21338 48.8657 0.438373 46.4038 0.0415233C45.2061 -0.15113 44.4216 0.366219 44.0028 0.778943C43.8166 0.962217 43.6633 1.17652 43.5433 1.4103L43.3964 1.73788C43.3837 1.76313 43.3265 2.07051 43.3265 2.09865L43.4043 3.61174C43.4043 3.66369 43.4285 3.71203 43.4686 3.74378L44.0086 3.97972L43.7103 4.47977C43.7004 4.51656 43.6675 4.54181 43.6297 4.54181C43.6297 4.54181 42.9948 4.5584 42.6816 4.57139C42.0946 4.59521 40.7871 5.32036 39.8233 7.40562C38.8766 9.45339 38.7212 9.79467 38.7212 9.79467C38.7013 9.83363 38.6605 9.85816 38.6169 9.856L37.7376 9.85889C37.6833 9.85889 37.6255 9.9029 37.6027 9.95268L36.2352 13.8729C36.2125 13.9227 36.2259 13.9977 36.2615 14.0395L37.216 14.6435C37.2424 14.6658 37.2539 14.7012 37.2459 14.7344L36.7475 16.2244C36.741 16.2576 36.7288 16.29 36.7117 16.3196L36.0504 16.9091C36.0333 16.9243 36.0176 16.943 36.0083 16.964C36.0034 16.9755 35.9991 16.9878 35.9954 17L35.0852 19.3602C35.0732 19.402 35.0354 19.4302 34.9926 19.4302L34.4817 19.433C34.3533 19.433 34.2464 19.5334 34.235 19.6625L33.9296 23.1902C33.924 23.2523 33.9161 23.3143 33.9054 23.3763L33.6644 24.7762C33.655 24.8087 33.6373 24.8375 33.6136 24.8614L32.7634 25.5186C32.3738 25.8953 31.8517 26.5828 31.5963 27.0627L28.7644 33.1114C28.6959 33.2398 28.6409 33.4615 28.6445 33.608L28.8456 33.9709C28.8486 34.1007 28.7971 34.6737 28.738 34.789L27.7892 36.4674C27.7678 36.5085 27.7664 36.5569 27.785 36.5994L27.8321 36.7083L27.974 36.9948L30.8537 36.9993C31.0322 37.0157 31.2296 36.7842 31.2353 36.536L31.3917 34.5373L31.3509 34.2364L36.8416 27.7121C36.985 27.5353 37.1797 27.2236 37.2773 27.0173L39.8938 21.1756C39.9247 21.1115 39.9795 21.0623 40.0466 21.0399L40.212 20.9859C40.3126 20.9527 40.4226 20.9852 40.4903 21.0674C40.7193 21.346 41.2578 22.2716 41.5203 22.6576C41.7371 22.9781 42.8136 24.5545 43.2836 25.0742C43.4136 25.217 43.8137 25.3794 43.9929 25.4898C44.0514 25.5259 44.0706 25.6023 44.037 25.6623L42.469 28.4502L41.7764 31.7426C41.7523 31.8193 41.7336 31.8985 41.7222 31.9779L41.0953 34.2644C41.0995 34.5531 40.8804 34.7047 40.8627 35.0452L40.6344 36.7163C40.6315 36.7675 40.6721 36.8109 40.7228 36.8109L44.5969 36.8326H44.5999C44.6048 36.8326 44.873 36.8288 45.0313 36.8223C45.0614 36.821 45.1127 36.8159 45.1463 36.8116C45.6627 36.7451 46.0159 36.6737 46.2562 36.5915C46.2669 36.588 46.2776 36.5842 46.2883 36.5799C46.4553 36.5201 46.5636 36.4536 46.6336 36.3802C46.7655 36.2408 46.9182 36.0698 46.941 35.8498C46.9418 35.841 46.9425 35.8332 46.9433 35.8244C46.9433 35.8194 46.9433 35.8136 46.9438 35.8085C46.9438 35.7964 46.9438 35.7848 46.9438 35.7725C46.9438 35.7712 46.9438 35.7689 46.9438 35.7674C46.9438 35.7566 46.9425 35.7457 46.941 35.7356C46.9361 35.6917 46.9261 35.6585 46.9147 35.6317C46.9147 35.6317 46.9147 35.6317 46.9147 35.6312C46.9147 35.6304 46.9139 35.6297 46.9132 35.6289C46.9097 35.6203 46.9054 35.6131 46.901 35.6058C46.8982 35.6015 46.896 35.5972 46.8925 35.5929C46.8704 35.5619 46.849 35.5503 46.8462 35.5488C46.8355 35.5424 46.824 35.5366 46.8119 35.5323L45.0129 34.9831C44.8973 34.9471 44.7968 34.8749 44.7253 34.7768L44.2424 34.0538C44.2189 34.0034 44.2296 33.9426 44.2688 33.9038L45.2098 32.9649C45.2419 32.9339 45.2668 32.8958 45.2832 32.8539L48.1816 25.9349C48.317 25.4956 48.2722 25.0013 48.1816 24.4789C48.1144 24.0928 47.138 22.434 46.8825 21.9758C46.6578 21.5717 45.2568 19.0918 44.9245 18.5045C44.8866 18.4381 44.8374 18.3789 44.7754 18.3356C44.7311 18.3046 44.6875 18.2649 44.6519 18.2231C44.6163 18.1812 44.5906 18.1321 44.5762 18.0788L44.4657 16.3564C44.4557 16.3189 44.4814 16.2814 44.5199 16.2785L45.0243 16.2359C45.0721 16.2316 45.1149 16.2035 45.1371 16.1609L46.8833 12.8396C46.9075 12.7942 46.9062 12.7386 46.8798 12.6946L46.5223 12.2465C46.4981 12.2054 46.4974 12.1534 46.5208 12.1116L47.0558 11.5264C47.078 11.486 47.128 11.4723 47.1679 11.4946L48.5904 12.3064C48.6765 12.3554 48.7744 12.3843 48.8735 12.3843C49.268 12.3814 49.9178 12.1455 50.2559 11.9362C50.3451 11.8807 50.4185 11.802 50.467 11.7082L51.1648 10.058C51.1741 10.0371 51.2047 10.04 51.2089 10.0624L51.4036 10.9802C51.4166 11.0379 51.4666 11.0704 51.5236 11.0574L53.578 10.5949C53.6322 10.5826 53.6657 10.5285 53.6542 10.4737L53.17 8.40208C53.1635 8.37394 53.1685 8.34436 53.1842 8.31982L53.384 8.00596C53.4089 7.967 53.4274 7.92443 53.4388 7.8804L53.6808 6.76274C53.6871 6.73387 53.7122 6.71294 53.7413 6.71294L59.4245 6.72015C59.5044 6.72015 59.5664 6.65811 59.5664 6.57658V5.5996C59.5664 5.58156 59.5814 5.56641 59.5993 5.56641H61.7906C61.8292 5.56641 61.8613 5.53466 61.8613 5.49497V5.05484C61.8613 5.01587 61.8299 4.9834 61.7906 4.9834H59.5985L59.6008 4.987Z" fill="white"/>
</g>
<defs>
<clipPath id="clip0_63_1500">
<rect width="86" height="37" fill="white"/>
</clipPath>
</defs>
</svg>
