<svg width="47" height="46" viewBox="0 0 47 46" fill="none" xmlns="http://www.w3.org/2000/svg">
<path d="M34.1906 8.49366L30.3573 6.48202C26.9924 4.71618 25.3099 3.83325 23.5 3.83325C21.6902 3.83325 20.0077 4.71617 16.6428 6.48202L12.8094 8.49366C9.40975 10.2777 7.41135 11.3265 6.17278 12.7291L23.5 21.3927L40.8273 12.7291C39.5887 11.3265 37.5903 10.2777 34.1906 8.49366Z" fill="#D1B0FF"/>
<path d="M42.1844 15.2649L24.9375 23.8883V41.9826C26.3136 41.6399 27.8792 40.8183 30.3573 39.5178L34.1906 37.5062C38.3147 35.342 40.3767 34.2599 41.5217 32.3154C42.6667 30.3709 42.6667 27.9513 42.6667 23.112V22.8878C42.6667 19.2602 42.6667 16.9923 42.1844 15.2649Z" fill="#D1B0FF"/>
<path d="M22.0625 41.9826V23.8883L4.81568 15.2649C4.33337 16.9923 4.33337 19.2602 4.33337 22.8878V23.112C4.33337 27.9513 4.33337 30.3709 5.47838 32.3154C6.62339 34.2599 8.68541 35.342 12.8094 37.5062L16.6428 39.5178C19.1209 40.8183 20.6865 41.6399 22.0625 41.9826Z" fill="#D1B0FF"/>
</svg>
