<svg width="42" height="42" viewBox="0 0 42 42" fill="none" xmlns="http://www.w3.org/2000/svg">
<path d="M3.5 11.375C3.5 7.02576 7.02576 3.5 11.375 3.5C15.7242 3.5 19.25 7.02576 19.25 11.375V16.625C19.25 17.2353 19.25 17.5404 19.1829 17.7908C19.0009 18.4702 18.4702 19.0009 17.7908 19.1829C17.5404 19.25 17.2353 19.25 16.625 19.25H11.375C7.02576 19.25 3.5 15.7242 3.5 11.375Z" fill="#0084FF"/>
<path d="M22.75 25.375C22.75 24.7647 22.75 24.4596 22.8171 24.2092C22.9991 23.5298 23.5298 22.9991 24.2092 22.8171C24.4596 22.75 24.7647 22.75 25.375 22.75H30.625C34.9742 22.75 38.5 26.2758 38.5 30.625C38.5 34.9742 34.9742 38.5 30.625 38.5C26.2758 38.5 22.75 34.9742 22.75 30.625V25.375Z" fill="#0084FF"/>
<path d="M3.5 30.625C3.5 26.2758 7.02576 22.75 11.375 22.75H16.1C17.2026 22.75 17.7539 22.75 18.175 22.9646C18.5455 23.1533 18.8467 23.4545 19.0354 23.825C19.25 24.2461 19.25 24.7974 19.25 25.9V30.625C19.25 34.9742 15.7242 38.5 11.375 38.5C7.02576 38.5 3.5 34.9742 3.5 30.625Z" fill="#0084FF"/>
<path d="M22.75 11.375C22.75 7.02576 26.2758 3.5 30.625 3.5C34.9742 3.5 38.5 7.02576 38.5 11.375C38.5 15.7242 34.9742 19.25 30.625 19.25H25C24.7388 19.25 24.6082 19.25 24.4983 19.2376C23.5856 19.1348 22.8652 18.4144 22.7624 17.5017C22.75 17.3918 22.75 17.2612 22.75 17V11.375Z" fill="#0084FF"/>
</svg>
