<svg width="47" height="46" viewBox="0 0 47 46" fill="none" xmlns="http://www.w3.org/2000/svg">
<path d="M35.684 3.09364C36.0925 2.41287 36.9755 2.19212 37.6563 2.60058L36.9167 3.83323C37.6563 2.60058 37.6556 2.60019 37.6563 2.60058L37.6589 2.60218L37.6619 2.604L37.669 2.60832L37.6874 2.61966C37.7015 2.62843 37.7192 2.63962 37.7403 2.65327C37.7825 2.68054 37.8383 2.71768 37.9057 2.76489C38.0405 2.85923 38.2226 2.99436 38.4359 3.17214C38.8616 3.52689 39.4183 4.05684 39.9727 4.7776C41.0899 6.22993 42.1875 8.44731 42.1875 11.4999C42.1875 14.5525 41.0899 16.7699 39.9727 18.2222C39.4183 18.9429 38.8616 19.4729 38.4359 19.8276C38.2226 20.0054 38.0405 20.1406 37.9057 20.2349C37.8383 20.2821 37.7825 20.3192 37.7403 20.3465C37.7298 20.3533 37.7201 20.3595 37.7113 20.3651C37.7025 20.3707 37.6945 20.3757 37.6874 20.3801L37.669 20.3915L37.6619 20.3958L37.6589 20.3976C37.6583 20.398 37.6563 20.3992 36.9167 19.1666L37.6563 20.3992C36.9755 20.8077 36.0925 20.5869 35.684 19.9061C35.2773 19.2282 35.4945 18.3498 36.1685 17.9391L36.1791 17.9323C36.1931 17.9233 36.2197 17.9058 36.257 17.8796C36.3319 17.8272 36.4493 17.7407 36.5954 17.619C36.8884 17.3748 37.29 16.9943 37.694 16.4693C38.4934 15.4299 39.3125 13.814 39.3125 11.4999C39.3125 9.18581 38.4934 7.56986 37.694 6.53052C37.29 6.00544 36.8884 5.62498 36.5954 5.38077C36.4493 5.25907 36.3319 5.17259 36.257 5.12018C36.2197 5.09402 36.1931 5.0765 36.1791 5.06746L36.1685 5.06069C35.4945 4.64999 35.2773 3.77155 35.684 3.09364Z" fill="#FFB7A0"/>
<path d="M19.6667 19.1666C23.9009 19.1666 27.3333 15.7341 27.3333 11.4999C27.3333 7.26571 23.9009 3.83323 19.6667 3.83323C15.4325 3.83323 12 7.26571 12 11.4999C12 15.7341 15.4325 19.1666 19.6667 19.1666Z" fill="#FFB7A0"/>
<path d="M4.33334 33.5416C4.33334 38.305 4.33334 42.1666 19.6667 42.1666C35 42.1666 35 38.305 35 33.5416C35 28.7781 28.135 24.9166 19.6667 24.9166C11.1983 24.9166 4.33334 28.7781 4.33334 33.5416Z" fill="#FFB7A0"/>
<path d="M33.8229 6.43391C33.1422 6.02545 32.2592 6.2462 31.8507 6.92697L32.3265 8.88867L32.3413 8.89886C32.3638 8.91458 32.4064 8.94566 32.4626 8.99249C32.5759 9.08696 32.738 9.23982 32.9023 9.45343C33.2226 9.86986 33.5625 10.5275 33.5625 11.4999C33.5625 12.4723 33.2226 13.1299 32.9023 13.5463C32.738 13.76 32.5759 13.9128 32.4626 14.0073C32.4064 14.0541 32.3638 14.0852 32.3413 14.1009L32.3265 14.1111C31.6593 14.5241 31.4457 15.3978 31.8507 16.0728C32.2592 16.7536 33.1422 16.9743 33.8229 16.5659L33.0833 15.3332C33.8229 16.5659 33.8223 16.5663 33.8229 16.5659L33.8255 16.5643L33.8283 16.5627L33.8343 16.559L33.8486 16.5502L33.8855 16.5268C33.9136 16.5086 33.9488 16.4851 33.9901 16.4562C34.0724 16.3986 34.1796 16.3188 34.3031 16.2159C34.5491 16.0109 34.8662 15.7086 35.1811 15.2993C35.8191 14.4699 36.4375 13.2108 36.4375 11.4999C36.4375 9.78897 35.8191 8.52993 35.1811 7.70052C34.8662 7.29121 34.5491 6.98887 34.3031 6.78385C34.1796 6.68094 34.0724 6.60122 33.9901 6.54357C33.9488 6.5147 33.9136 6.49123 33.8855 6.47303L33.8486 6.44962L33.8343 6.44081L33.8283 6.43712L33.8255 6.43546C33.8249 6.43508 33.8229 6.43391 33.0833 7.66656L33.8229 6.43391Z" fill="#FFB7A0"/>
</svg>
